<svg width="25" height="24" viewBox="0 0 25 24" fill="none" xmlns="http://www.w3.org/2000/svg">
<path d="M8.86061 0.789371C6.46264 1.62125 4.39463 3.20018 2.96035 5.29425C1.52606 7.38832 0.801099 9.88714 0.891944 12.4237C0.98279 14.9602 1.88466 17.4008 3.46507 19.3869C5.04549 21.373 7.22115 22.7999 9.67249 23.4581C11.6598 23.9709 13.742 23.9934 15.74 23.5237C17.55 23.1172 19.2233 22.2476 20.5962 21C22.0251 19.6619 23.0623 17.9596 23.5962 16.0762C24.1766 14.0281 24.2799 11.8742 23.8981 9.78H12.7381V14.4094H19.2012C19.0721 15.1477 18.7953 15.8524 18.3874 16.4813C17.9795 17.1102 17.449 17.6503 16.8275 18.0694C16.0383 18.5914 15.1486 18.9427 14.2156 19.1006C13.2799 19.2746 12.3201 19.2746 11.3844 19.1006C10.436 18.9045 9.5388 18.5131 8.74999 17.9512C7.48277 17.0542 6.53126 15.7799 6.03124 14.31C5.52277 12.8126 5.52277 11.1893 6.03124 9.69187C6.38716 8.64228 6.97555 7.68663 7.75249 6.89625C8.6416 5.97515 9.76724 5.31674 11.0059 4.99326C12.2446 4.66979 13.5484 4.69374 14.7744 5.0625C15.7321 5.35648 16.6078 5.87013 17.3319 6.5625C18.0606 5.8375 18.7881 5.11062 19.5144 4.38187C19.8894 3.99 20.2981 3.61687 20.6675 3.21562C19.5623 2.18714 18.265 1.38685 16.85 0.860622C14.2732 -0.0750226 11.4537 -0.100167 8.86061 0.789371Z" fill="white"/>
<path d="M8.86064 0.789382C11.4535 -0.100761 14.273 -0.0762781 16.85 0.858757C18.2653 1.38856 19.562 2.1927 20.6656 3.22501C20.2906 3.62626 19.895 4.00126 19.5125 4.39126C18.785 5.11751 18.0581 5.84126 17.3319 6.56251C16.6079 5.87014 15.7321 5.35649 14.7744 5.06251C13.5488 4.69246 12.2451 4.66712 11.0061 4.98927C9.76706 5.31143 8.64073 5.96862 7.75064 6.88876C6.9737 7.67914 6.38532 8.63479 6.02939 9.68438L2.14252 6.67501C3.53378 3.91606 5.94267 1.80568 8.86064 0.789382Z" fill="#E33629"/>
<path d="M1.11125 9.65624C1.32016 8.62085 1.66701 7.61816 2.1425 6.67499L6.02937 9.69186C5.5209 11.1892 5.5209 12.8126 6.02937 14.31C4.73437 15.31 3.43875 16.315 2.1425 17.325C0.952156 14.9556 0.589122 12.2559 1.11125 9.65624Z" fill="#F8BD00"/>
<path d="M12.7381 9.77814H23.8981C24.2799 11.8724 24.1766 14.0263 23.5963 16.0744C23.0623 17.9578 22.0252 19.66 20.5963 20.9981C19.3419 20.0194 18.0819 19.0481 16.8275 18.0694C17.4494 17.6499 17.9802 17.1092 18.3881 16.4796C18.796 15.8501 19.0726 15.1447 19.2013 14.4056H12.7381C12.7363 12.8644 12.7381 11.3213 12.7381 9.77814Z" fill="#587DBD"/>
<path d="M2.14062 17.325C3.43687 16.325 4.7325 15.32 6.0275 14.31C6.52851 15.7804 7.48138 17.0548 8.75 17.9512C9.54127 18.5105 10.4404 18.8987 11.39 19.0912C12.3257 19.2652 13.2855 19.2652 14.2213 19.0912C15.1542 18.9333 16.0439 18.5821 16.8331 18.06C18.0875 19.0387 19.3475 20.01 20.6019 20.9887C19.2292 22.237 17.5558 23.1073 15.7456 23.5144C13.7476 23.9841 11.6655 23.9616 9.67813 23.4487C8.10632 23.0291 6.63814 22.2892 5.36563 21.2756C4.01874 20.2063 2.91867 18.8587 2.14062 17.325Z" fill="#319F43"/>
</svg>
