<svg width="20" height="20" viewBox="0 0 20 20" fill="none" xmlns="http://www.w3.org/2000/svg">
<path d="M1.66602 7.76509C1.66602 10.8726 5.01602 14.1593 7.46768 16.1484C8.57768 17.0501 9.13268 17.5001 9.99935 17.5001C10.866 17.5001 11.421 17.0501 12.531 16.1493C14.9835 14.1584 18.3327 10.8726 18.3327 7.76425C18.3327 2.57259 13.7493 0.634253 9.99935 4.64509C6.24935 0.634253 1.66602 2.57259 1.66602 7.76509Z" fill="url(#paint0_linear_700_3458)"/>
<path fill-rule="evenodd" clip-rule="evenodd" d="M13.7507 5.20825C13.9164 5.20825 14.0754 5.2741 14.1926 5.39131C14.3098 5.50852 14.3757 5.66749 14.3757 5.83325V6.87492H15.4173C15.5831 6.87492 15.742 6.94077 15.8593 7.05798C15.9765 7.17519 16.0423 7.33416 16.0423 7.49992C16.0423 7.66568 15.9765 7.82465 15.8593 7.94186C15.742 8.05907 15.5831 8.12492 15.4173 8.12492H14.3757V9.16658C14.3757 9.33235 14.3098 9.49132 14.1926 9.60853C14.0754 9.72574 13.9164 9.79158 13.7507 9.79158C13.5849 9.79158 13.4259 9.72574 13.3087 9.60853C13.1915 9.49132 13.1257 9.33235 13.1257 9.16658V8.12492H12.084C11.9182 8.12492 11.7593 8.05907 11.642 7.94186C11.5248 7.82465 11.459 7.66568 11.459 7.49992C11.459 7.33416 11.5248 7.17519 11.642 7.05798C11.7593 6.94077 11.9182 6.87492 12.084 6.87492H13.1257V5.83325C13.1257 5.66749 13.1915 5.50852 13.3087 5.39131C13.4259 5.2741 13.5849 5.20825 13.7507 5.20825Z" fill="white"/>
<defs>
<linearGradient id="paint0_linear_700_3458" x1="1.66602" y1="9.99992" x2="18.3327" y2="9.99992" gradientUnits="userSpaceOnUse">
<stop stop-color="#1F8CC2"/>
<stop offset="1" stop-color="#4AC2F5"/>
</linearGradient>
</defs>
</svg>
