<svg width="45" height="75" viewBox="0 0 45 75" fill="none" xmlns="http://www.w3.org/2000/svg">
<path fill-rule="evenodd" clip-rule="evenodd" d="M41.3898 27.2459C37.3288 22.6564 30.3886 22.1609 25.7283 26.1284C16.3386 34.1222 2.40392 45.9856 2.40392 45.9856L2.40391 45.9862C3.87497 48.5112 6.36788 50.2576 9.22496 50.7656C12.0818 51.2728 15.0155 50.4908 17.2516 48.6255C27.2435 40.2906 42.0228 27.9619 42.0228 27.9619C42.0228 27.9619 41.7843 27.6919 41.3898 27.2459Z" fill="white"/>
<path fill-rule="evenodd" clip-rule="evenodd" d="M41.9117 28.0222C41.9115 25.0063 40.7257 22.1139 38.6129 19.9806C36.5006 17.8483 33.6354 16.6498 30.6486 16.6496L2.33402 16.6486L2.33418 16.6493C2.33422 19.6651 3.52062 22.5581 5.63274 24.6908C7.74522 26.8233 10.6102 28.0216 13.5976 28.0217L41.9117 28.0228L41.9117 28.0222Z" fill="url(#paint0_linear_1379_9570)"/>
<path fill-rule="evenodd" clip-rule="evenodd" d="M41.9106 57.4268C41.9107 54.4106 40.7246 51.5179 38.6116 49.3854C36.4995 47.2529 33.6349 46.0543 30.6472 46.0539L2.33316 46.0529L2.33316 46.0534C2.33279 49.0699 3.51966 51.9617 5.63193 54.0951C7.7442 56.2279 10.6091 57.4261 13.5965 57.4263L41.9103 57.4276L41.9106 57.4268Z" fill="url(#paint1_linear_1379_9570)"/>
<path fill-rule="evenodd" clip-rule="evenodd" d="M31.1347 19.7168C31.1347 19.4899 31.224 19.2722 31.383 19.1118C31.5419 18.9513 31.7575 18.8611 31.9823 18.8611H32.8298C33.0546 18.8611 33.2702 18.9513 33.4291 19.1118C33.5881 19.2722 33.6774 19.4899 33.6774 19.7168V21.4283H35.3725C35.5973 21.4283 35.8129 21.5185 35.9718 21.679C36.1308 21.8394 36.2201 22.0571 36.2201 22.2841V23.1398C36.2201 23.3667 36.1308 23.5844 35.9718 23.7449C35.8129 23.9054 35.5973 23.9955 35.3725 23.9955H33.6774V25.707C33.6774 25.9339 33.5881 26.1516 33.4291 26.3121C33.2702 26.4726 33.0546 26.5627 32.8298 26.5627H31.9823C31.7575 26.5627 31.5419 26.4726 31.383 26.3121C31.224 26.1516 31.1347 25.9339 31.1347 25.707V23.9955H29.4396C29.2148 23.9955 28.9992 23.9054 28.8403 23.7449C28.6813 23.5844 28.592 23.3667 28.592 23.1398V22.2841C28.592 22.0571 28.6813 21.8394 28.8403 21.679C28.9992 21.5185 29.2148 21.4283 29.4396 21.4283H31.1347V19.7168Z" fill="white"/>
<defs>
<linearGradient id="paint0_linear_1379_9570" x1="9.4128" y1="9.50208" x2="35.077" y2="34.9229" gradientUnits="userSpaceOnUse">
<stop stop-color="#1FC29D"/>
<stop offset="1" stop-color="#4AF5CE"/>
</linearGradient>
<linearGradient id="paint1_linear_1379_9570" x1="9.41168" y1="38.9066" x2="35.0759" y2="64.3274" gradientUnits="userSpaceOnUse">
<stop stop-color="#1FC29D"/>
<stop offset="1" stop-color="#4AF5CE"/>
</linearGradient>
</defs>
</svg>
