<svg width="20" height="20" viewBox="0 0 20 20" fill="none" xmlns="http://www.w3.org/2000/svg">
<path d="M9.58366 17.5H3.75033C3.52931 17.5 3.31735 17.4122 3.16107 17.2559C3.00479 17.0996 2.91699 16.8877 2.91699 16.6667V3.33333C2.91699 3.11232 3.00479 2.90036 3.16107 2.74408C3.31735 2.5878 3.52931 2.5 3.75033 2.5H15.417C15.638 2.5 15.85 2.5878 16.0062 2.74408C16.1625 2.90036 16.2503 3.11232 16.2503 3.33333V8.125" stroke="white" stroke-width="1.66667" stroke-linecap="round" stroke-linejoin="round"/>
<path d="M15.2653 11.25C16.2695 11.25 17.0837 12.0334 17.0837 13C17.0837 14.2584 15.8712 15.3334 15.2653 15.9167C14.8614 16.3056 14.3564 16.6945 13.7503 17.0834C13.1442 16.6945 12.6392 16.3056 12.2353 15.9167C11.6291 15.3334 10.417 14.2584 10.417 13C10.417 12.0334 11.2312 11.25 12.2353 11.25C12.8674 11.25 13.4245 11.5609 13.7503 12.0325C13.9206 11.7891 14.1474 11.5908 14.4113 11.4544C14.6752 11.3181 14.9683 11.248 15.2653 11.25Z" fill="white" stroke="white" stroke-width="1.66667" stroke-linejoin="round"/>
<path d="M6.25 5.83337H12.9167" stroke="white" stroke-width="1.66667" stroke-linecap="round"/>
</svg>
