<svg width="24" height="24" viewBox="0 0 24 24" fill="none" xmlns="http://www.w3.org/2000/svg">
<path d="M9.5 19.75C9.69891 19.75 9.88968 19.671 10.0303 19.5303C10.171 19.3896 10.25 19.1989 10.25 19C10.25 18.8011 10.171 18.6103 10.0303 18.4696C9.88968 18.329 9.69891 18.25 9.5 18.25V19.75ZM11 4.99997V5.74997C11.1482 5.74984 11.2931 5.70578 11.4163 5.62336C11.5395 5.54094 11.6356 5.42386 11.6923 5.28689C11.749 5.14993 11.7638 4.99923 11.735 4.85383C11.7061 4.70843 11.6348 4.57486 11.53 4.46997L11 4.99997ZM9.53 2.46997C9.38783 2.33749 9.19978 2.26537 9.00548 2.26879C8.81118 2.27222 8.62579 2.35093 8.48838 2.48835C8.35097 2.62576 8.27225 2.81114 8.26882 3.00545C8.2654 3.19975 8.33752 3.38779 8.47 3.52997L9.53 2.46997ZM9.5 18.25H9V19.75H9.5V18.25ZM9 5.74997H11V4.24997H9V5.74997ZM11.53 4.46997L9.53 2.46997L8.47 3.52997L10.47 5.52997L11.53 4.46997ZM1.25 12C1.25 14.0554 2.06652 16.0266 3.51992 17.48C4.97333 18.9335 6.94457 19.75 9 19.75V18.25C7.3424 18.25 5.75269 17.5915 4.58058 16.4194C3.40848 15.2473 2.75 13.6576 2.75 12H1.25ZM2.75 12C2.75 10.3424 3.40848 8.75265 4.58058 7.58055C5.75269 6.40845 7.3424 5.74997 9 5.74997V4.24997C6.94457 4.24997 4.97333 5.06648 3.51992 6.51989C2.06652 7.9733 1.25 9.94454 1.25 12H2.75ZM13 19V18.25C12.8518 18.2501 12.7069 18.2942 12.5837 18.3766C12.4605 18.459 12.3644 18.5761 12.3077 18.713C12.251 18.85 12.2362 19.0007 12.265 19.1461C12.2939 19.2915 12.3652 19.4251 12.47 19.53L13 19ZM14.47 21.53C14.5387 21.6037 14.6215 21.6628 14.7135 21.7038C14.8055 21.7447 14.9048 21.7668 15.0055 21.7686C15.1062 21.7703 15.2062 21.7518 15.2996 21.7141C15.393 21.6764 15.4778 21.6202 15.549 21.549C15.6203 21.4778 15.6764 21.393 15.7141 21.2996C15.7518 21.2062 15.7704 21.1061 15.7686 21.0054C15.7668 20.9047 15.7448 20.8054 15.7038 20.7134C15.6628 20.6214 15.6037 20.5386 15.53 20.47L14.47 21.53ZM14.5 4.24997C14.3011 4.24997 14.1103 4.32899 13.9697 4.46964C13.829 4.61029 13.75 4.80106 13.75 4.99997C13.75 5.19888 13.829 5.38965 13.9697 5.5303C14.1103 5.67095 14.3011 5.74997 14.5 5.74997V4.24997ZM15 18.25H13V19.75H15V18.25ZM12.47 19.53L14.47 21.53L15.53 20.47L13.53 18.47L12.47 19.53ZM14.5 5.74997H15V4.24997H14.5V5.74997ZM21.25 12C21.25 13.6576 20.5915 15.2473 19.4194 16.4194C18.2473 17.5915 16.6576 18.25 15 18.25V19.75C17.0554 19.75 19.0267 18.9335 20.4801 17.48C21.9335 16.0266 22.75 14.0554 22.75 12H21.25ZM22.75 12C22.75 9.94454 21.9335 7.9733 20.4801 6.51989C19.0267 5.06648 17.0554 4.24997 15 4.24997V5.74997C16.6576 5.74997 18.2473 6.40845 19.4194 7.58055C20.5915 8.75265 21.25 10.3424 21.25 12H22.75Z" fill="#3F3F3F"/>
</svg>
