<svg width="20" height="20" viewBox="0 0 20 20" fill="none" xmlns="http://www.w3.org/2000/svg">
<path d="M17.5 8.12498H16.8461C16.6891 6.41785 15.8999 4.83098 14.6334 3.67562C13.3668 2.52025 11.7143 1.87976 10 1.87976C8.28566 1.87976 6.63318 2.52025 5.36665 3.67562C4.10012 4.83098 3.31095 6.41785 3.15391 8.12498H2.5C2.33424 8.12498 2.17527 8.19083 2.05806 8.30804C1.94085 8.42525 1.875 8.58422 1.875 8.74998C1.87775 10.2363 2.28679 11.6936 3.0579 12.9643C3.82901 14.235 4.93283 15.2707 6.25 15.9594V16.25C6.25 16.5815 6.3817 16.8994 6.61612 17.1339C6.85054 17.3683 7.16848 17.5 7.5 17.5H12.5C12.8315 17.5 13.1495 17.3683 13.3839 17.1339C13.6183 16.8994 13.75 16.5815 13.75 16.25V15.9594C15.0672 15.2707 16.171 14.235 16.9421 12.9643C17.7132 11.6936 18.1223 10.2363 18.125 8.74998C18.125 8.58422 18.0592 8.42525 17.9419 8.30804C17.8247 8.19083 17.6658 8.12498 17.5 8.12498ZM13.5531 4.39295C13.6964 4.51014 13.8336 4.63383 13.9648 4.76404C12.3011 5.34932 10.9262 6.55217 10.125 8.12342H7.82031C8.21094 7.02844 8.93011 6.08076 9.87956 5.40986C10.829 4.73895 11.9624 4.37753 13.125 4.37498C13.268 4.37498 13.4109 4.38201 13.5531 4.39295ZM11.5719 8.12498C12.3296 6.98817 13.476 6.16679 14.7961 5.81482C15.2277 6.5169 15.4985 7.30583 15.5891 8.12498H11.5719ZM10 3.12498C10.5015 3.12543 11.0007 3.19296 11.4844 3.32576C10.3066 3.61793 9.22663 4.2154 8.35334 5.05796C7.48005 5.90053 6.8443 6.95841 6.51016 8.12498H4.41094C4.56597 6.75065 5.22135 5.48144 6.25212 4.55931C7.28288 3.63718 8.61696 3.12662 10 3.12498Z" fill="white"/>
</svg>
