<svg width="24" height="25" viewBox="0 0 24 25" fill="none" xmlns="http://www.w3.org/2000/svg">
<path d="M8.35206 20.742C8.78721 21.2922 9.34171 21.7364 9.97367 22.041C10.6056 22.3455 11.2985 22.5025 12.0001 22.5C12.7016 22.5025 13.3945 22.3455 14.0264 22.041C14.6584 21.7364 15.2129 21.2922 15.6481 20.742C13.2271 21.0697 10.773 21.0697 8.35206 20.742ZM18.7501 9.5V10.204C18.7501 11.049 18.9901 11.875 19.4421 12.578L20.5501 14.301C21.5611 15.875 20.7891 18.014 19.0301 18.511C14.4338 19.8127 9.56635 19.8127 4.97006 18.511C3.21106 18.014 2.43906 15.875 3.45006 14.301L4.55806 12.578C5.01128 11.8692 5.25178 11.0453 5.25106 10.204V9.5C5.25106 5.634 8.27306 2.5 12.0001 2.5C15.7271 2.5 18.7501 5.634 18.7501 9.5Z" fill="white"/>
</svg>
