<svg width="20" height="20" viewBox="0 0 20 20" fill="none" xmlns="http://www.w3.org/2000/svg">
<path d="M12.7077 5.41663C13.205 5.41663 13.6819 5.21908 14.0335 4.86745C14.3851 4.51582 14.5827 4.03891 14.5827 3.54163C14.5827 3.04434 14.3851 2.56743 14.0335 2.2158C13.6819 1.86417 13.205 1.66663 12.7077 1.66663C12.2104 1.66663 11.7335 1.86417 11.3818 2.2158C11.0302 2.56743 10.8327 3.04434 10.8327 3.54163C10.8327 4.03891 11.0302 4.51582 11.3818 4.86745C11.7335 5.21908 12.2104 5.41663 12.7077 5.41663ZM8.941 7.20079C8.42142 7.32996 8.06684 7.52413 7.78059 7.76496C7.35142 8.12663 7.00475 8.64829 6.53642 9.46829C6.42674 9.66019 6.24533 9.80065 6.03208 9.85879C5.81884 9.91693 5.59123 9.88797 5.39934 9.77829C5.20744 9.66861 5.06698 9.4872 5.00884 9.27395C4.9507 9.06071 4.97966 8.8331 5.08934 8.64121C5.55559 7.82579 6.02684 7.06288 6.70725 6.49038C7.41725 5.89204 8.28642 5.55371 9.4585 5.42329C9.9485 5.36913 10.4877 5.37996 10.9931 5.60538C11.5235 5.84246 11.911 6.26704 12.1752 6.83454C12.531 7.59829 12.7956 8.05288 13.0073 8.31663C13.1093 8.44287 13.1806 8.50163 13.221 8.52787C13.2531 8.54871 13.2668 8.55038 13.2718 8.55121C13.3081 8.55538 13.426 8.55121 13.771 8.39829C13.9214 8.33163 14.0856 8.25163 14.2864 8.15371L14.3343 8.13038C14.58 8.00919 14.8278 7.89251 15.0777 7.78038C15.2794 7.6918 15.508 7.68674 15.7135 7.76629C15.919 7.84584 16.0846 8.00354 16.1741 8.20487C16.2636 8.40621 16.2698 8.6348 16.1912 8.84065C16.1126 9.04649 15.9557 9.21284 15.7548 9.30329C15.5232 9.4072 15.2935 9.51541 15.066 9.62788L15.0114 9.65454C14.8193 9.74829 14.626 9.84288 14.4448 9.92288C14.0698 10.0887 13.5906 10.2687 13.071 10.2058C12.5227 10.1391 12.1002 9.82954 11.7523 9.41412L10.6135 11.6112L12.1885 13.6604C12.2824 13.7827 12.3405 13.9287 12.3564 14.082L12.7031 17.4137C12.7163 17.5235 12.7075 17.6348 12.6773 17.7411C12.6471 17.8475 12.596 17.9467 12.527 18.0331C12.458 18.1196 12.3725 18.1914 12.2755 18.2444C12.1785 18.2975 12.0719 18.3307 11.962 18.3421C11.852 18.3536 11.7409 18.343 11.635 18.3111C11.5292 18.2791 11.4307 18.2265 11.3455 18.1561C11.2602 18.0858 11.1897 17.9991 11.1382 17.9013C11.0868 17.8035 11.0553 17.6963 11.0456 17.5862L10.7231 14.4891L9.76642 13.2441L9.75809 13.2595L9.72309 13.1879L7.95559 10.8879C7.8687 10.7748 7.81227 10.6414 7.7917 10.5003C7.77113 10.3592 7.7871 10.2152 7.83809 10.082L8.941 7.20079Z" fill="white"/>
<path d="M7.67965 12.0862L7.06631 13.7362L4.64965 13.5445C4.53977 13.5343 4.42897 13.546 4.32366 13.579C4.21835 13.612 4.12063 13.6655 4.03619 13.7365C3.95174 13.8076 3.88224 13.8947 3.83172 13.9928C3.7812 14.0909 3.75067 14.198 3.7419 14.308C3.73312 14.418 3.74628 14.5287 3.78061 14.6335C3.81494 14.7384 3.86976 14.8354 3.94188 14.9189C4.014 15.0024 4.10199 15.0708 4.20074 15.12C4.2995 15.1693 4.40704 15.1984 4.51715 15.2058L7.56215 15.4474C7.74286 15.4618 7.92334 15.4169 8.0762 15.3194C8.22907 15.222 8.34599 15.0773 8.40923 14.9074L8.87798 13.6458L7.67965 12.0862Z" fill="white"/>
</svg>
