<svg width="24" height="24" viewBox="0 0 24 24" fill="none" xmlns="http://www.w3.org/2000/svg">
<path d="M5 8C5 5.172 5 3.757 5.879 2.879C6.757 2 8.172 2 11 2H13C15.828 2 17.243 2 18.121 2.879C19 3.757 19 5.172 19 8V16C19 18.828 19 20.243 18.121 21.121C17.243 22 15.828 22 13 22H11C8.172 22 6.757 22 5.879 21.121C5 20.243 5 18.828 5 16V8Z" stroke="#3F3F3F" stroke-width="1.5"/>
<path d="M14.5 19H9.5" stroke="#3F3F3F" stroke-width="1.5" stroke-linecap="round"/>
<path d="M22 6L21.224 7.553C21.1546 7.6918 21.1185 7.84484 21.1185 8C21.1185 8.15516 21.1546 8.3082 21.224 8.447L21.776 9.553C21.8454 9.6918 21.8815 9.84484 21.8815 10C21.8815 10.1552 21.8454 10.3082 21.776 10.447L21.224 11.553C21.1546 11.6918 21.1185 11.8448 21.1185 12C21.1185 12.1552 21.1546 12.3082 21.224 12.447L21.776 13.553C21.8454 13.6918 21.8815 13.8448 21.8815 14C21.8815 14.1552 21.8454 14.3082 21.776 14.447L21.224 15.553C21.1546 15.6918 21.1185 15.8448 21.1185 16C21.1185 16.1552 21.1546 16.3082 21.224 16.447L22 18M2 6L2.776 7.553C2.84536 7.6918 2.88147 7.84484 2.88147 8C2.88147 8.15516 2.84536 8.3082 2.776 8.447L2.224 9.553C2.15464 9.6918 2.11853 9.84484 2.11853 10C2.11853 10.1552 2.15464 10.3082 2.224 10.447L2.776 11.553C2.84536 11.6918 2.88147 11.8448 2.88147 12C2.88147 12.1552 2.84536 12.3082 2.776 12.447L2.224 13.553C2.15464 13.6918 2.11853 13.8448 2.11853 14C2.11853 14.1552 2.15464 14.3082 2.224 14.447L2.776 15.553C2.84536 15.6918 2.88147 15.8448 2.88147 16C2.88147 16.1552 2.84536 16.3082 2.776 16.447L2 18" stroke="#3F3F3F" stroke-width="1.5" stroke-linecap="round" stroke-linejoin="round"/>
</svg>
