<svg width="24" height="24" viewBox="0 0 24 24" fill="none" xmlns="http://www.w3.org/2000/svg">
<path d="M9 19C9 19.7956 8.68393 20.5587 8.12132 21.1213C7.55871 21.6839 6.79565 22 6 22C5.20435 22 4.44129 21.6839 3.87868 21.1213C3.31607 20.5587 3 19.7956 3 19C3 18.2044 3.31607 17.4413 3.87868 16.8787C4.44129 16.3161 5.20435 16 6 16C6.79565 16 7.55871 16.3161 8.12132 16.8787C8.68393 17.4413 9 18.2044 9 19ZM9 19V8M21 17C21 17.7956 20.6839 18.5587 20.1213 19.1213C19.5587 19.6839 18.7956 20 18 20C17.2044 20 16.4413 19.6839 15.8787 19.1213C15.3161 18.5587 15 17.7956 15 17C15 16.2044 15.3161 15.4413 15.8787 14.8787C16.4413 14.3161 17.2044 14 18 14C18.7956 14 19.5587 14.3161 20.1213 14.8787C20.6839 15.4413 21 16.2044 21 17ZM21 17V6" stroke="#3F3F3F" stroke-width="1.5"/>
<path d="M15.735 3.755L11.735 5.08799C10.415 5.52799 9.755 5.74799 9.378 6.27199C9.001 6.79599 9 7.492 9 8.882V12L21 8V7.55C21 5.017 21 3.74999 20.17 3.152C19.339 2.553 18.138 2.954 15.735 3.755Z" stroke="#3F3F3F" stroke-width="1.5" stroke-linecap="round"/>
</svg>
