<svg width="24" height="24" viewBox="0 0 24 24" fill="none" xmlns="http://www.w3.org/2000/svg">
<path d="M16.659 6C16.519 5.202 16.289 4.685 15.867 4.372C15.7028 4.24962 15.5215 4.15192 15.329 4.082C14.337 3.725 13.157 4.547 10.796 6.192L10.592 6.332C10.195 6.609 9.997 6.747 9.783 6.847C9.57293 6.94505 9.3511 7.01563 9.123 7.057C8.892 7.097 8.654 7.097 8.179 7.097C6.903 7.097 6.265 7.097 5.709 7.369C5.2 7.618 4.692 8.123 4.426 8.644C4.135 9.214 4.101 9.806 4.032 10.992C4.012 11.342 4 11.684 4 12C4 12.316 4.012 12.658 4.032 13.008C4.101 14.194 4.135 14.786 4.426 15.356C4.692 15.877 5.2 16.382 5.708 16.631C6.265 16.903 6.903 16.903 8.178 16.903C8.654 16.903 8.892 16.903 9.122 16.943C9.35067 16.9843 9.571 17.0543 9.783 17.153C9.997 17.253 10.195 17.391 10.593 17.667L10.796 17.809C13.156 19.453 14.338 20.275 15.329 19.918C15.519 19.849 15.703 19.75 15.867 19.628C16.289 19.315 16.519 18.798 16.659 18M20 9L14 15M14 9L20 15" stroke="#3F3F3F" stroke-width="1.5" stroke-linecap="round"/>
</svg>
