<svg width="353" height="353" viewBox="0 0 353 353" fill="none" xmlns="http://www.w3.org/2000/svg">
<path d="M226.753 80.0886C226.753 80.0886 188.389 62.5869 147.554 81.6277C106.719 100.669 83.308 143.445 63.3353 177.644C43.3625 211.842 49.9213 248.886 78.1613 267.976C106.401 287.067 128.676 264.446 170.393 266.868C212.111 269.29 222.785 276.194 259.349 255.685C295.913 235.176 306.99 180.214 283.318 136.788C259.646 93.3615 226.753 80.0886 226.753 80.0886Z" fill="#1FC29D"/>
<path opacity="0.7" d="M226.753 80.0886C226.753 80.0886 188.389 62.5869 147.554 81.6277C106.719 100.669 83.308 143.445 63.3353 177.644C43.3625 211.842 49.9213 248.886 78.1613 267.976C106.401 287.067 128.676 264.446 170.393 266.868C212.111 269.29 222.785 276.194 259.349 255.685C295.913 235.176 306.99 180.214 283.318 136.788C259.646 93.3615 226.753 80.0886 226.753 80.0886Z" fill="white"/>
<path d="M251.16 252.578C248.47 250.715 244.968 253.941 243.634 256.172C242.525 258.022 241.099 260.874 240.767 261.545L240.725 261.382L240.803 261.319L240.725 261.361C240.116 259.027 239.24 256.772 238.113 254.64C238.699 253.934 241.078 253.094 241.643 252.868C243.845 251.915 245.97 251.152 247.291 248.985C248.307 247.269 248.766 244.855 246.542 243.888C243.542 242.574 240.739 246.422 239.857 248.865C239.151 250.785 238.381 253.637 238.127 254.555C237.152 252.72 236.045 250.957 234.816 249.281C235.664 248.373 236.611 247.563 237.64 246.867C239.532 245.384 241.381 244.106 242.08 241.678C242.624 239.758 242.448 237.308 240.054 236.941C236.821 236.439 235.112 240.88 234.865 243.464C234.71 245.278 234.667 247.834 234.653 249.034C233.721 247.764 232.804 246.613 231.963 245.561C231.123 244.509 230.297 243.443 229.683 242.574L229.902 242.476C229.819 242.51 229.729 242.522 229.641 242.511L229.605 242.469C230.05 241.678 232.239 240.4 232.719 240.075C234.71 238.734 236.651 237.59 237.52 235.225C238.226 233.347 238.226 230.89 235.846 230.347C232.655 229.641 230.608 233.919 230.198 236.482C229.874 238.487 229.627 241.424 229.549 242.384C229.443 242.229 229.344 242.08 229.259 241.932C228.13 240.091 227.128 238.176 226.259 236.199L226.492 236.157C226.406 236.177 226.317 236.177 226.231 236.157C226.195 236.086 226.167 236.009 226.132 235.938C226.817 234.911 227.615 233.963 228.511 233.114C230.135 231.342 231.759 229.782 232.041 227.275C232.267 225.292 231.702 222.905 229.281 222.926C226.005 222.926 225.009 227.614 225.207 230.205C225.327 231.787 225.624 233.919 225.821 235.225C225.263 233.912 224.854 232.81 224.6 232.083C224.473 231.723 224.381 231.462 224.332 231.3C224.271 230.189 224.297 229.074 224.409 227.967C224.515 225.574 224.755 223.329 223.364 221.225C222.27 219.552 220.293 218.09 218.422 219.665C215.93 221.783 218.168 226.019 219.983 227.854C221.26 229.16 223.174 230.869 224.077 231.66C224.317 232.366 224.882 233.982 225.737 235.945C224.797 235.288 223.916 234.551 223.103 233.742C221.303 232.154 219.707 230.558 217.194 230.318C215.21 230.121 212.831 230.742 212.901 233.142C212.993 236.411 217.674 237.315 220.258 237.068C222.129 236.884 224.755 236.446 225.906 236.256C226.784 238.274 227.803 240.227 228.956 242.101C229.019 242.214 229.097 242.327 229.168 242.433C228.082 242.033 227.035 241.534 226.04 240.944C223.922 239.842 221.966 238.691 219.474 239.073C217.497 239.376 215.344 240.562 216.008 242.885C216.904 246.041 221.656 245.758 224.106 244.883C225.871 244.248 228.306 243.182 229.351 242.709C229.98 243.619 230.763 244.629 231.681 245.759C232.599 246.888 233.601 248.173 234.618 249.578C233.912 249.874 231.356 248.328 230.784 248.039C228.666 246.938 226.718 245.787 224.219 246.168C222.249 246.472 220.096 247.658 220.759 249.98C221.656 253.136 226.407 252.854 228.85 251.978C231.13 251.159 234.498 249.62 234.618 249.578V249.691C234.611 249.656 234.611 249.62 234.618 249.585C235.808 251.221 236.881 252.939 237.83 254.725C236.92 254.929 234.533 254.259 233.976 254.139C231.632 253.637 229.457 253.037 227.149 254.061C225.327 254.866 223.562 256.574 224.812 258.65C226.499 261.474 231.017 259.935 233.142 258.452C234.83 257.273 237.153 255.381 237.866 254.795C238.97 256.901 239.832 259.125 240.435 261.425C239.447 261.545 237.258 260.93 236.729 260.817C234.385 260.323 232.211 259.716 229.902 260.74C228.08 261.552 226.315 263.253 227.565 265.329C229.252 268.153 233.771 266.614 235.896 265.131C237.484 264.016 239.638 262.272 240.478 261.601C241.275 264.771 241.53 268.053 241.233 271.309H241.551C241.852 268.035 241.602 264.735 240.81 261.545C241.381 260.937 244.078 260.535 244.664 260.408C247.015 259.907 249.239 259.568 250.927 257.69C252.233 256.278 253.143 253.962 251.16 252.578Z" fill="white"/>
<path d="M272.516 264.326C270.031 264.757 268.562 266.444 266.868 268.188C266.487 268.577 265.011 270.306 264.122 270.751C263.34 268.505 262.821 266.176 262.575 263.811C263.493 263.903 266.473 264.185 268.527 264.228C271.125 264.277 275.721 263.027 275.587 259.759C275.474 257.344 273.06 256.935 271.097 257.245C268.605 257.676 267.136 259.363 265.449 261.1C265.046 261.51 263.437 263.395 262.568 263.726C262.366 261.714 262.305 259.69 262.385 257.669L262.463 257.747L262.399 257.655C262.505 257.655 266.176 257.033 268.527 256.448C271.047 255.819 275.156 253.405 274.175 250.291C273.434 247.99 270.984 248.173 269.177 249.042C266.889 250.115 265.922 252.148 264.757 254.245C264.446 254.803 263.161 257.521 262.427 257.655C262.491 255.918 262.625 254.301 262.752 252.847C262.879 251.393 262.978 250.122 262.992 249.02C264.122 248.823 266.741 248.357 268.562 247.905C271.083 247.277 275.192 244.862 274.21 241.749C273.504 239.447 271.019 239.631 269.212 240.499C266.868 241.558 265.915 243.57 264.75 245.688C264.249 246.734 263.656 247.733 262.978 248.674C262.978 248.54 262.978 248.406 262.978 248.279C262.894 246.079 262.658 243.888 262.272 241.72C263.317 241.254 265.745 240.16 267.397 239.263C269.685 238.035 273.045 234.689 271.33 231.914C270.045 229.867 267.729 230.671 266.183 231.914C264.228 233.517 263.79 235.726 263.176 238.042C262.948 239.169 262.624 240.274 262.208 241.346C261.827 239.228 261.411 237.59 261.206 236.856C261.516 235.698 262.159 233.213 262.498 231.42C262.978 228.864 262.498 224.127 259.243 223.739C256.843 223.456 256.01 225.765 256.024 227.763C256.024 230.29 257.492 231.999 258.911 233.947C259.618 234.807 260.258 235.721 260.825 236.68C260.874 236.842 260.945 237.11 261.036 237.477C261.227 238.226 261.495 239.369 261.742 240.767C261.178 239.574 260.246 237.64 259.462 236.256C258.184 233.99 254.774 230.664 252.035 232.465C250.009 233.792 250.863 236.094 252.155 237.611C253.793 239.532 256.01 239.934 258.347 240.499C259.557 240.709 260.74 241.05 261.877 241.516L261.919 241.749C261.865 241.821 261.795 241.879 261.714 241.918L261.933 241.826C262.318 243.951 262.554 246.1 262.639 248.258C262.639 248.434 262.639 248.611 262.639 248.794C262.046 248.046 260.203 245.737 258.82 244.248C257.055 242.342 252.96 239.906 250.715 242.292C249.056 244.05 250.425 246.098 252.035 247.234C254.075 248.724 256.327 248.59 258.721 248.604C259.3 248.604 261.834 248.449 262.639 248.858V248.915C262.569 248.973 262.487 249.014 262.399 249.035L262.639 248.992C262.639 250.072 262.519 251.329 262.399 252.741C262.279 254.153 262.166 255.565 262.095 257.125C261.389 256.137 259.977 254.04 258.82 252.614C257.196 250.588 253.292 247.863 250.884 250.072C249.098 251.71 250.312 253.849 251.83 255.134C253.758 256.765 256.01 256.801 258.403 256.984C259.642 256.992 260.876 257.141 262.081 257.429C261.992 259.506 262.051 261.587 262.258 263.656C261.552 263.027 259.3 261.1 257.662 259.886C255.544 258.347 251.103 256.702 249.331 259.462C248.025 261.502 249.747 263.253 251.548 264.115C253.828 265.195 256.017 264.651 258.375 264.221C258.94 264.115 261.396 263.515 262.272 263.755C262.517 266.16 263.041 268.529 263.832 270.815L263.889 270.977C263.239 270.603 260.472 269.021 258.523 268.104C256.172 266.988 251.463 266.247 250.27 269.297C249.387 271.549 251.407 272.94 253.341 273.427C255.791 274.055 257.831 273.095 260.062 272.213C260.62 271.994 263.084 270.8 263.903 271.012C265.018 274.102 266.64 276.985 268.704 279.541L268.958 279.343C266.905 276.807 265.294 273.943 264.192 270.871C265.265 270.977 268.026 271.231 269.967 271.274C272.565 271.323 277.161 270.08 277.027 266.805C276.914 264.425 274.5 263.988 272.516 264.326Z" fill="white"/>
<path d="M81.6489 256.229C79.1708 255.734 77.187 256.8 75.0054 257.796C74.5112 258.022 72.5133 259.095 71.5178 259.208C71.5972 256.822 71.9526 254.452 72.5768 252.148C73.3958 252.564 76.1068 253.899 77.9848 254.682C80.3852 255.664 85.1224 256.158 86.1602 253.052C86.9227 250.75 84.8259 249.472 82.8703 249.084C80.3922 248.59 78.4084 249.656 76.2268 250.658C75.7044 250.891 73.5228 252.07 72.598 252.07C73.1298 250.119 73.7998 248.208 74.603 246.352C74.6218 246.382 74.6361 246.416 74.6454 246.45V246.337C74.7442 246.337 78.3942 247.121 80.7946 247.418C83.3715 247.742 88.0735 246.973 88.2571 243.704C88.3912 241.29 86.0332 240.605 84.0211 240.739C81.5006 240.915 79.8627 242.462 78.0271 244.001C77.5329 244.403 75.3584 246.486 74.6242 246.337C75.3302 244.742 76.0362 243.281 76.6504 241.967C77.2646 240.654 77.8506 239.503 78.2601 238.48C79.3897 238.713 81.9948 239.221 83.8587 239.454C86.4356 239.772 91.1375 239.002 91.3211 235.733C91.4552 233.319 89.0972 232.634 87.0851 232.768C84.5647 232.945 82.9268 234.491 81.0841 236.03C80.2407 236.816 79.3287 237.525 78.3589 238.148C78.4084 238.028 78.4507 237.901 78.4931 237.781C79.2037 235.704 79.7698 233.581 80.1875 231.427C81.3383 231.37 83.9928 231.222 85.8355 230.989C88.4124 230.664 92.7825 228.758 92.1895 225.546C91.7235 223.167 89.2737 223.089 87.3746 223.71C84.9812 224.501 83.774 226.4 82.362 228.349C81.7372 229.317 81.0285 230.229 80.244 231.074C80.6464 228.956 80.8511 227.29 80.95 226.527C81.656 225.56 83.1527 223.47 84.1128 221.917C85.4754 219.707 86.7392 215.111 83.8375 213.586C81.7195 212.449 80.0957 214.292 79.3897 216.177C78.5001 218.542 79.2203 220.674 79.8557 222.99C80.2016 224.047 80.4682 225.127 80.6534 226.224C80.6534 226.393 80.6111 226.668 80.5687 227.042C80.4769 227.812 80.3146 228.977 80.0675 230.382C79.9686 229.062 79.7921 226.922 79.5591 225.348C79.185 222.778 77.2011 218.443 73.9959 219.135C71.6308 219.644 71.5955 222.101 72.2591 223.986C73.0922 226.365 75.0196 227.516 76.9893 228.928C78.0476 229.558 79.0326 230.304 79.9263 231.151C79.9139 231.228 79.8974 231.303 79.8768 231.377C79.8019 231.425 79.7177 231.456 79.6297 231.469H79.8627C79.4537 233.59 78.897 235.681 78.1966 237.724C78.1401 237.887 78.0765 238.056 78.013 238.226C77.7235 237.308 76.841 234.498 76.0856 232.578C75.1255 230.17 72.1814 226.421 69.2304 227.833C67.0488 228.885 67.5854 231.278 68.6656 232.959C70.0281 235.077 72.1956 235.783 74.4124 236.637C74.949 236.849 77.3635 237.618 77.9424 238.289V238.346C77.8561 238.362 77.7675 238.362 77.6812 238.346L77.9142 238.395C77.5117 239.398 76.9611 240.513 76.3398 241.805C75.7185 243.097 75.1113 244.34 74.483 245.787C74.2077 244.615 73.6005 242.137 73.071 240.4C72.2873 237.922 69.6257 233.968 66.5758 235.169C64.3237 236.051 64.6908 238.48 65.6439 240.231C66.8511 242.447 68.9409 243.295 71.1083 244.325C72.2608 244.782 73.3594 245.365 74.3842 246.062C73.5495 247.967 72.8535 249.931 72.3015 251.936C71.8567 251.096 70.4588 248.484 69.3716 246.761C67.9596 244.572 64.4296 241.431 61.7538 243.365C59.8053 244.777 60.7725 247.051 62.1492 248.505C63.8789 250.333 66.1169 250.623 68.5032 251.061C69.068 251.167 71.5813 251.477 72.3015 252.028C71.6708 254.356 71.3107 256.748 71.2283 259.158H71.1366L71.2283 259.208C71.2283 259.264 71.2283 259.321 71.2283 259.377C70.7624 258.798 68.7432 256.32 67.2606 254.76C65.4674 252.882 61.3443 250.489 59.1275 252.903C57.4896 254.682 58.8804 256.709 60.5395 257.845C62.594 259.307 64.8461 259.151 67.2394 259.13C67.8466 259.13 70.5647 258.925 71.2566 259.391C71.1842 262.679 71.6614 265.955 72.6686 269.085L72.9722 268.986C71.9644 265.876 71.4871 262.618 71.5602 259.349C72.5274 259.836 75.0125 261.065 76.8057 261.799C79.2132 262.787 83.9505 263.274 84.9812 260.168C85.7013 257.895 83.6045 256.617 81.6489 256.229Z" fill="white"/>
<path d="M115.459 274.069C113.814 273.744 112.501 274.45 111.054 275.114C110.317 275.516 109.535 275.829 108.724 276.046C108.78 274.469 109.016 272.903 109.43 271.379C109.974 271.655 111.753 272.544 113.016 273.06C114.605 273.709 117.754 274.041 118.439 271.979C118.947 270.454 117.556 269.607 116.257 269.346C114.612 269.021 113.299 269.727 111.852 270.391C111.506 270.546 110.058 271.33 109.444 271.323C109.801 270.031 110.244 268.764 110.771 267.532C110.776 267.555 110.776 267.579 110.771 267.602V267.525C110.842 267.525 113.257 268.047 114.852 268.231C116.561 268.442 119.681 267.934 119.794 265.767C119.886 264.164 118.319 263.705 116.97 263.797C115.304 263.917 114.217 264.941 112.995 265.957C112.671 266.233 111.223 267.609 110.736 267.51C111.188 266.451 111.654 265.484 112.077 264.609C112.501 263.733 112.868 262.978 113.144 262.3C113.892 262.448 115.622 262.787 116.857 262.943C118.566 263.154 121.686 262.646 121.799 260.472C121.891 258.869 120.324 258.417 118.975 258.509C117.309 258.622 116.222 259.653 115 260.669C114.439 261.193 113.832 261.666 113.186 262.081C113.186 261.997 113.249 261.912 113.278 261.834C113.751 260.45 114.126 259.035 114.4 257.598C115.163 257.563 116.928 257.464 118.163 257.309C119.872 257.09 122.766 255.826 122.35 253.694C122.046 252.12 120.415 252.063 119.159 252.48C117.57 253.002 116.772 254.266 115.833 255.551C115.417 256.196 114.945 256.803 114.421 257.365C114.69 255.953 114.824 254.852 114.873 254.351C115.339 253.708 116.335 252.324 116.991 251.294C117.895 249.825 118.735 246.775 116.815 245.766C115.403 245.01 114.33 246.246 113.864 247.481C113.271 249.049 113.751 250.468 114.167 252C114.401 252.691 114.58 253.399 114.704 254.118C114.704 254.231 114.669 254.414 114.64 254.661C114.584 255.17 114.478 255.946 114.308 256.871C114.245 255.996 114.125 254.577 113.977 253.532C113.722 251.83 112.409 248.957 110.284 249.416C108.717 249.755 108.689 251.378 109.126 252.628C109.684 254.209 110.962 254.986 112.268 255.897C112.971 256.313 113.625 256.808 114.217 257.372C114.217 257.422 114.217 257.471 114.217 257.521C114.166 257.553 114.107 257.572 114.047 257.577H114.203C113.931 258.985 113.561 260.372 113.094 261.728C113.059 261.834 113.016 261.947 112.974 262.06C112.783 261.453 112.198 259.589 111.696 258.332C111.061 256.737 109.105 254.252 107.15 255.191C105.738 255.897 106.055 257.471 106.775 258.587C107.679 259.999 109.105 260.45 110.588 261.029C110.948 261.164 112.543 261.679 112.946 262.124V262.159C112.89 262.169 112.832 262.169 112.776 262.159L112.932 262.194C112.663 262.858 112.296 263.606 111.887 264.453C111.477 265.301 111.068 266.134 110.651 267.094C110.468 266.317 110.065 264.672 109.705 263.522C109.183 261.877 107.418 259.286 105.399 260.048C103.902 260.634 104.142 262.251 104.777 263.409C105.575 264.877 106.966 265.442 108.399 266.127C109.167 266.423 109.897 266.81 110.574 267.277C110.012 268.539 109.541 269.839 109.162 271.168C108.872 270.617 107.94 268.887 107.22 267.743C106.295 266.289 103.923 264.213 102.165 265.491C100.873 266.437 101.516 267.934 102.426 268.894C103.577 270.109 105.06 270.306 106.627 270.596C107.001 270.666 108.668 270.871 109.148 271.231C108.731 272.775 108.494 274.363 108.442 275.961C108.442 275.997 108.442 276.039 108.442 276.074C108.131 275.693 106.797 274.048 105.808 273.01C104.622 271.768 101.89 270.186 100.421 271.782C99.3342 272.961 100.252 274.309 101.332 275.072C102.695 276.046 104.191 275.94 105.78 275.926C106.182 275.926 107.983 275.792 108.442 276.102C108.396 278.281 108.713 280.452 109.381 282.527L109.585 282.464C108.919 280.399 108.606 278.236 108.66 276.067C109.303 276.392 110.948 277.211 112.141 277.698C113.73 278.348 116.878 278.679 117.563 276.618C118.149 275.178 116.758 274.33 115.459 274.069Z" fill="white"/>
<path d="M110.327 273.653C108.915 274.5 108.371 275.905 107.736 277.366C107.451 278.146 107.072 278.889 106.606 279.576C105.594 278.367 104.725 277.045 104.015 275.637C104.608 275.474 106.521 274.931 107.813 274.493C109.437 273.921 111.993 272.071 111.132 270.073C110.496 268.605 108.894 268.894 107.757 269.572C106.345 270.419 105.801 271.824 105.166 273.286C104.885 274.104 104.491 274.879 103.994 275.587C103.399 274.386 102.887 273.145 102.462 271.874H102.525L102.462 271.831C102.525 271.796 104.665 270.56 105.992 269.643C107.319 268.725 109.388 266.204 108.032 264.51C107.037 263.253 105.568 263.959 104.643 264.905C103.471 266.106 103.344 267.595 103.118 269.141C103.055 269.558 102.893 271.549 102.469 271.803C102.095 270.709 101.805 269.685 101.537 268.746C101.269 267.807 101.043 267.002 100.789 266.31C101.452 265.922 102.963 265.025 103.987 264.312C105.399 263.338 107.39 260.874 106.034 259.18C105.032 257.923 103.563 258.629 102.638 259.575C101.473 260.775 101.346 262.265 101.113 263.811C101.047 264.577 100.912 265.335 100.711 266.077C100.711 265.993 100.647 265.915 100.619 265.837C100.05 264.491 99.3867 263.187 98.6353 261.933C99.179 261.397 100.429 260.147 101.248 259.208C102.377 257.909 103.69 255.035 101.954 253.722C100.676 252.755 99.426 253.8 98.7624 254.944C97.9293 256.398 98.1694 257.874 98.3388 259.455C98.4565 260.207 98.5131 260.967 98.5082 261.728C97.8022 260.507 97.1315 259.61 96.835 259.173C96.7574 258.389 96.5738 256.695 96.362 255.501C96.0584 253.807 94.6535 250.976 92.5425 251.498C90.9823 251.887 91.0105 253.51 91.4906 254.746C92.0907 256.313 93.3968 257.048 94.7311 257.909C95.3706 258.28 95.9818 258.698 96.5597 259.158L96.8774 259.603C97.1739 260.027 97.5834 260.669 98.1058 261.474C97.4775 260.867 96.4397 259.886 95.6278 259.208C94.3075 258.107 91.3918 256.843 90.1351 258.601C89.189 259.9 90.2551 261.128 91.42 261.764C92.8814 262.576 94.3499 262.3 95.9313 262.103C96.7336 261.949 97.5506 261.885 98.367 261.912C98.3955 261.953 98.4214 261.995 98.4447 262.039C98.4283 262.096 98.3994 262.149 98.36 262.194L98.4729 262.088C99.2046 263.319 99.8532 264.598 100.414 265.915L100.542 266.247C99.9979 265.922 98.3176 264.919 97.1033 264.319C95.5642 263.55 92.4508 262.999 91.6177 265.025C91.0035 266.508 92.3237 267.454 93.6015 267.807C95.2183 268.252 96.5809 267.645 98.0705 267.101C98.4306 266.967 99.9697 266.282 100.563 266.346C100.534 266.397 100.493 266.441 100.443 266.473L100.584 266.395C100.824 267.066 101.057 267.871 101.29 268.774C101.523 269.678 101.805 270.575 102.13 271.598C101.473 271.146 100.083 270.186 99.0377 269.572C97.5551 268.689 94.4982 267.913 93.5168 269.854C92.8108 271.266 94.0463 272.325 95.2959 272.77C96.8703 273.335 98.2753 272.827 99.8073 272.382C100.578 272.095 101.378 271.896 102.194 271.789C102.623 273.1 103.147 274.379 103.761 275.615C103.168 275.397 101.325 274.726 100.026 274.352C98.367 273.886 95.2042 273.914 94.7594 276.039C94.4276 277.613 95.9031 278.298 97.2233 278.411C98.8895 278.545 100.118 277.705 101.459 276.872C101.791 276.674 103.168 275.721 103.768 275.672C104.486 277.102 105.365 278.445 106.387 279.675H106.331H106.394L106.472 279.76C105.978 279.682 103.888 279.35 102.462 279.237C100.746 279.096 97.654 279.738 97.6257 281.913C97.6257 283.515 99.186 283.904 100.499 283.756C102.165 283.572 103.203 282.499 104.382 281.426C104.679 281.157 105.935 279.858 106.5 279.781C107.916 281.437 109.598 282.845 111.477 283.946L111.59 283.763C109.721 282.667 108.05 281.264 106.648 279.611C107.354 279.428 109.112 278.941 110.327 278.51C111.95 277.931 114.506 276.081 113.645 274.083C113.066 272.685 111.463 272.975 110.327 273.653Z" fill="white"/>
<path d="M92.5213 193.726C92.5221 190.651 91.3338 187.694 89.2049 185.474C87.0759 183.254 84.1712 181.944 81.0982 181.816V181.689H87.2828C87.0542 180.08 86.2524 178.607 85.0247 177.541C83.7971 176.476 82.2261 175.889 80.6005 175.889C78.9749 175.889 77.4039 176.476 76.1762 177.541C74.9486 178.607 74.1468 180.08 73.9182 181.689H80.1098V181.816C77.5769 181.919 75.1427 182.827 73.1611 184.408C71.1795 185.989 69.7536 188.161 69.0907 190.607C68.4278 193.054 68.5625 195.649 69.4751 198.014C70.3877 200.379 72.0307 202.391 74.1653 203.759L72.5909 208.425C72.5566 208.527 72.5426 208.635 72.55 208.742C72.5573 208.85 72.5857 208.955 72.6335 209.051C72.6814 209.147 72.7478 209.233 72.8289 209.304C72.91 209.375 73.0043 209.429 73.1063 209.463C73.1906 209.491 73.2788 209.505 73.3675 209.505C73.5328 209.503 73.6936 209.451 73.8293 209.357C73.9651 209.262 74.0698 209.13 74.13 208.976L75.6055 204.585C77.1351 205.29 78.7969 205.663 80.4812 205.679C82.1655 205.694 83.834 205.353 85.3766 204.676L86.7886 208.976C86.8156 209.086 86.8653 209.189 86.9343 209.279C87.0034 209.369 87.0904 209.444 87.1898 209.498C87.2892 209.553 87.3989 209.586 87.5118 209.596C87.6248 209.606 87.7386 209.593 87.846 209.556C87.9535 209.52 88.0522 209.462 88.136 209.385C88.2197 209.309 88.2867 209.216 88.3326 209.112C88.3786 209.009 88.4025 208.896 88.4028 208.783C88.4032 208.67 88.38 208.557 88.3347 208.453L86.838 203.879C88.5739 202.813 90.0078 201.32 91.0028 199.543C91.9977 197.766 92.5205 195.763 92.5213 193.726ZM80.604 203.215C78.7276 203.214 76.8938 202.656 75.3343 201.612C73.7749 200.569 72.5598 199.087 71.8427 197.353C71.1256 195.619 70.9387 193.711 71.3056 191.871C71.6725 190.031 72.5768 188.341 73.9041 187.014C75.2314 185.688 76.9221 184.785 78.7625 184.419C80.603 184.054 82.5104 184.242 84.2439 184.961C85.9773 185.679 87.4588 186.895 88.5011 188.455C89.5434 190.016 90.0997 191.85 90.0997 193.726C90.096 196.243 89.0941 198.655 87.3139 200.434C85.5338 202.213 83.1206 203.213 80.604 203.215Z" fill="#263238"/>
<path d="M80.604 192.625H80.5616L77.3988 187.619C77.3631 187.554 77.3146 187.497 77.256 187.452C77.1974 187.406 77.1302 187.373 77.0583 187.354C76.9864 187.335 76.9115 187.332 76.8382 187.343C76.7648 187.355 76.6946 187.381 76.6318 187.42C76.569 187.46 76.515 187.512 76.4731 187.573C76.4312 187.635 76.4022 187.704 76.3881 187.777C76.374 187.85 76.3749 187.925 76.3909 187.997C76.4069 188.07 76.4375 188.138 76.481 188.198L79.6368 193.204C79.5519 193.363 79.5059 193.539 79.5026 193.719C79.5035 193.913 79.5555 194.103 79.6534 194.271C79.7514 194.438 79.8917 194.577 80.0604 194.672V198.845C80.0757 198.979 80.1399 199.103 80.2408 199.193C80.3417 199.284 80.4723 199.333 80.6075 199.333C80.7428 199.333 80.8733 199.284 80.9742 199.193C81.0752 199.103 81.1394 198.979 81.1547 198.845V194.672C81.3643 194.551 81.528 194.364 81.6206 194.14C81.7131 193.916 81.7293 193.668 81.6666 193.434C81.6039 193.2 81.4658 192.993 81.2737 192.846C81.0816 192.698 80.8462 192.618 80.604 192.618V192.625Z" fill="#263238"/>
<path d="M85.9388 215.744C98.3855 212.925 106.191 200.55 103.372 188.103C100.553 175.657 88.1782 167.852 75.7315 170.67C63.2848 173.489 55.4798 185.864 58.2984 198.311C61.1171 210.757 73.4921 218.562 85.9388 215.744Z" stroke="#1FC29D" stroke-width="1.412" stroke-linecap="round" stroke-linejoin="round"/>
<path d="M282.012 188.502V181.385C281.963 180.923 281.735 180.497 281.376 180.201C281.016 179.905 280.555 179.763 280.091 179.804H267.941C267.477 179.763 267.016 179.905 266.657 180.201C266.297 180.497 266.069 180.923 266.021 181.385V188.502C266.035 188.813 266.14 189.112 266.323 189.363C266.507 189.614 266.76 189.806 267.052 189.914C266.759 190.02 266.505 190.211 266.321 190.463C266.137 190.714 266.033 191.015 266.021 191.326V195.336C266.046 195.693 266.187 196.032 266.423 196.301C266.659 196.57 266.976 196.754 267.327 196.826C266.578 197.705 266.122 198.796 266.021 199.946V209.35C266.071 209.812 266.3 210.236 266.659 210.53C267.018 210.824 267.479 210.966 267.941 210.925H280.091C280.554 210.966 281.014 210.824 281.373 210.53C281.733 210.236 281.962 209.812 282.012 209.35V199.897C281.911 198.746 281.454 197.656 280.706 196.776C281.056 196.705 281.374 196.52 281.609 196.251C281.845 195.982 281.987 195.643 282.012 195.287V191.277C282 190.965 281.895 190.665 281.711 190.413C281.528 190.162 281.274 189.971 280.981 189.865C281.265 189.76 281.513 189.576 281.696 189.334C281.879 189.093 281.988 188.804 282.012 188.502Z" fill="#263238"/>
<path d="M272.813 175.547H275.213C275.354 175.547 275.493 175.575 275.624 175.628C275.754 175.682 275.872 175.761 275.972 175.861C276.071 175.961 276.15 176.079 276.204 176.209C276.258 176.339 276.286 176.479 276.286 176.62V178.921H271.739V176.62C271.739 176.479 271.767 176.339 271.821 176.209C271.875 176.079 271.954 175.961 272.054 175.861C272.153 175.761 272.272 175.682 272.402 175.628C272.532 175.575 272.672 175.547 272.813 175.547Z" fill="#263238"/>
<path d="M275.785 177.933H272.255V181.308H275.785V177.933Z" fill="#263238"/>
<path d="M266.946 189.158C266.972 189.425 267.07 189.679 267.229 189.894C267.388 190.109 267.603 190.277 267.849 190.38C267.589 190.486 267.365 190.666 267.203 190.896C267.042 191.126 266.95 191.398 266.939 191.679V195.435C266.951 195.763 267.07 196.079 267.277 196.334C267.485 196.589 267.77 196.769 268.089 196.847C267.422 197.684 267.021 198.702 266.939 199.77V208.566C266.971 208.987 267.168 209.377 267.486 209.653C267.805 209.93 268.219 210.069 268.64 210.042H279.392C279.813 210.069 280.228 209.93 280.546 209.653C280.865 209.377 281.061 208.987 281.094 208.566V199.748C281.011 198.681 280.61 197.663 279.943 196.826C280.262 196.748 280.548 196.567 280.755 196.313C280.963 196.058 281.082 195.742 281.094 195.414V191.679C281.082 191.398 280.99 191.126 280.829 190.896C280.668 190.666 280.443 190.486 280.183 190.38C280.43 190.277 280.644 190.109 280.803 189.894C280.962 189.679 281.06 189.425 281.087 189.158C281.087 189.158 281.087 189.102 281.087 189.074V185.099C279.404 185.726 277.652 186.152 275.869 186.37C272.537 186.716 271.598 185.558 268.661 185.558C268.058 185.565 267.465 185.715 266.932 185.996V189.074C266.932 189.074 266.932 189.13 266.932 189.158H266.946Z" fill="white"/>
<path d="M277.627 196.014C277.649 196.52 277.569 197.026 277.39 197.5C277.211 197.975 276.938 198.408 276.588 198.774C276.237 199.14 275.816 199.432 275.35 199.631C274.884 199.83 274.382 199.932 273.875 199.932C273.368 199.932 272.866 199.83 272.4 199.631C271.934 199.432 271.513 199.14 271.162 198.774C270.812 198.408 270.539 197.975 270.36 197.5C270.181 197.026 270.101 196.52 270.123 196.014C270.123 193.938 273.872 189.66 273.872 189.66C273.872 189.66 277.627 193.938 277.627 196.014Z" fill="#263238"/>
<path d="M290.357 209.552C299.381 200.528 299.381 185.897 290.357 176.873C281.333 167.849 266.702 167.849 257.678 176.873C248.654 185.897 248.654 200.528 257.678 209.552C266.702 218.576 281.333 218.576 290.357 209.552Z" stroke="#1FC29D" stroke-width="1.412" stroke-linecap="round" stroke-linejoin="round"/>
<path d="M97.0962 150.696C102.126 150.696 106.204 146.024 106.204 140.261C106.204 134.498 102.126 129.826 97.0962 129.826C92.0663 129.826 87.9888 134.498 87.9888 140.261C87.9888 146.024 92.0663 150.696 97.0962 150.696Z" fill="#263238"/>
<path d="M97.0961 151.028C91.8859 151.028 87.6569 146.198 87.6569 140.261C87.6569 134.324 91.8929 129.495 97.0961 129.495C102.299 129.495 106.535 134.324 106.535 140.261C106.535 146.198 102.299 151.028 97.0961 151.028ZM97.0961 130.158C92.253 130.158 88.3135 134.691 88.3135 140.261C88.3135 145.831 92.253 150.378 97.0961 150.378C101.939 150.378 105.9 145.831 105.9 140.261C105.9 134.691 101.932 130.158 97.0961 130.158Z" fill="white"/>
<path d="M94.1169 150.696C99.1467 150.696 103.224 146.024 103.224 140.261C103.224 134.498 99.1467 129.826 94.1169 129.826C89.087 129.826 85.0095 134.498 85.0095 140.261C85.0095 146.024 89.087 150.696 94.1169 150.696Z" fill="#263238"/>
<path d="M94.1168 151.028C88.9065 151.028 84.6705 146.198 84.6705 140.261C84.6705 134.324 88.9065 129.495 94.1168 129.495C99.3271 129.495 103.556 134.324 103.556 140.261C103.556 146.198 99.32 151.028 94.1168 151.028ZM94.1168 130.158C89.2737 130.158 85.3342 134.691 85.3342 140.261C85.3342 145.831 89.2737 150.378 94.1168 150.378C98.96 150.378 102.892 145.845 102.892 140.275C102.892 134.705 98.9529 130.158 94.1168 130.158Z" fill="white"/>
<path d="M95.1052 141.419H76.3892V138.439H95.1052C95.3011 138.439 95.4952 138.476 95.6764 138.551C95.8576 138.625 96.0221 138.735 96.1607 138.874C96.2992 139.012 96.4089 139.177 96.4834 139.358C96.5579 139.539 96.5958 139.733 96.5949 139.929C96.5949 140.125 96.5564 140.318 96.4815 140.499C96.4066 140.68 96.2969 140.844 96.1586 140.982C96.0202 141.121 95.856 141.231 95.6753 141.305C95.4946 141.38 95.3009 141.419 95.1052 141.419Z" fill="#263238"/>
<path d="M95.1052 141.751H76.0432V138.108H95.1052C95.5883 138.108 96.0516 138.3 96.3932 138.641C96.7348 138.983 96.9267 139.446 96.9267 139.929C96.9267 140.412 96.7348 140.876 96.3932 141.217C96.0516 141.559 95.5883 141.751 95.1052 141.751ZM76.7492 141.087H95.1052C95.4123 141.087 95.7068 140.965 95.9239 140.748C96.1411 140.531 96.2631 140.236 96.2631 139.929C96.2631 139.622 96.1411 139.328 95.9239 139.11C95.7068 138.893 95.4123 138.771 95.1052 138.771H76.7492V141.087Z" fill="white"/>
<path d="M80.8653 150.696C85.8952 150.696 89.9727 146.024 89.9727 140.261C89.9727 134.498 85.8952 129.826 80.8653 129.826C75.8354 129.826 71.7579 134.498 71.7579 140.261C71.7579 146.024 75.8354 150.696 80.8653 150.696Z" fill="#263238"/>
<path d="M80.8652 151.028C75.6549 151.028 71.4189 146.198 71.4189 140.261C71.4189 134.324 75.6549 129.495 80.8652 129.495C86.0755 129.495 90.3044 134.324 90.3044 140.261C90.3044 146.198 86.0684 151.028 80.8652 151.028ZM80.8652 130.158C76.0221 130.158 72.0826 134.691 72.0826 140.261C72.0826 145.831 76.0221 150.378 80.8652 150.378C85.7084 150.378 89.662 145.831 89.662 140.261C89.662 134.691 85.7013 130.158 80.8652 130.158Z" fill="white"/>
<path d="M77.8788 150.696C82.9087 150.696 86.9862 146.024 86.9862 140.261C86.9862 134.498 82.9087 129.826 77.8788 129.826C72.8489 129.826 68.7714 134.498 68.7714 140.261C68.7714 146.024 72.8489 150.696 77.8788 150.696Z" fill="#263238"/>
<path d="M77.8789 151.028C72.6756 151.028 68.4396 146.198 68.4396 140.261C68.4396 134.324 72.6756 129.495 77.8789 129.495C83.0821 129.495 87.3251 134.324 87.3251 140.261C87.3251 146.198 83.0891 151.028 77.8789 151.028ZM77.8789 130.158C73.0428 130.158 69.1033 134.691 69.1033 140.261C69.1033 145.831 73.0428 150.378 77.8789 150.378C82.715 150.378 86.6615 145.845 86.6615 140.275C86.6615 134.705 82.722 130.158 77.8789 130.158Z" fill="white"/>
<path d="M81.19 140.261C81.19 142.379 79.7003 144.066 77.8647 144.066C76.0291 144.066 74.5395 142.365 74.5395 140.261C74.5395 138.157 76.0291 136.449 77.8647 136.449C79.7003 136.449 81.19 138.157 81.19 140.261Z" fill="#263238"/>
<path d="M77.8789 144.398C75.8668 144.398 74.2218 142.541 74.2218 140.261C74.2218 137.981 75.8668 136.117 77.8789 136.117C79.891 136.117 81.536 137.973 81.536 140.261C81.536 142.548 79.898 144.398 77.8789 144.398ZM77.8789 136.78C76.2268 136.78 74.8854 138.341 74.8854 140.261C74.8854 142.181 76.2268 143.734 77.8789 143.734C79.5309 143.734 80.8723 142.174 80.8723 140.261C80.8723 138.348 79.5309 136.78 77.8789 136.78Z" fill="white"/>
<path d="M79.8839 140.261C79.8839 142.379 78.3943 144.066 76.5587 144.066C74.7231 144.066 73.2334 142.365 73.2334 140.261C73.2334 138.157 74.716 136.449 76.5587 136.449C78.4013 136.449 79.8839 138.157 79.8839 140.261Z" fill="#263238"/>
<path d="M76.5587 144.398C74.5395 144.398 72.9016 142.541 72.9016 140.261C72.9016 137.981 74.5395 136.117 76.5587 136.117C78.5779 136.117 80.2158 137.973 80.2158 140.261C80.2158 142.548 78.5708 144.398 76.5587 144.398ZM76.5587 136.78C74.9067 136.78 73.5582 138.341 73.5582 140.261C73.5582 142.181 74.9067 143.734 76.5587 143.734C78.2107 143.734 79.5521 142.174 79.5521 140.261C79.5521 138.348 78.2037 136.78 76.5587 136.78Z" fill="white"/>
<path d="M109.158 148.898C114.233 137.189 108.854 123.582 97.1443 118.508C85.4347 113.433 71.8285 118.812 66.754 130.522C61.6795 142.231 67.0584 155.838 78.768 160.912C90.4775 165.987 104.084 160.608 109.158 148.898Z" stroke="#1FC29D" stroke-width="1.412" stroke-linecap="round" stroke-linejoin="round"/>
<path d="M285.026 129.127C285.026 129.127 287.688 125.95 285.619 125.131C283.551 124.313 281.694 130.688 281.694 130.688C281.694 130.688 282.111 127.292 280.72 125.746C279.329 124.2 278.919 127.567 279.4 130.328C279.601 131.551 279.935 132.749 280.395 133.9C279.819 133.291 279.193 132.731 278.524 132.227C274.048 128.796 269.572 136.463 269.572 136.463C269.572 136.463 258.65 145.641 256.829 151.995C255.007 158.349 274.161 148.062 279.421 144.045C283.212 141.158 283.388 138.08 281.539 135.298C283.41 135.46 287.286 135.665 288.38 134.79C289.841 133.618 285.845 133.025 285.845 133.025C285.845 133.025 291.987 131.147 292.771 128.365C293.555 125.583 285.026 129.127 285.026 129.127Z" fill="#263238"/>
<path d="M263.416 147.328C263.363 147.343 263.308 147.346 263.254 147.336C263.2 147.327 263.149 147.304 263.105 147.272C262.715 146.991 262.261 146.812 261.785 146.749C261.739 146.746 261.694 146.735 261.652 146.714C261.611 146.694 261.574 146.665 261.544 146.63C261.513 146.596 261.49 146.555 261.476 146.511C261.462 146.467 261.456 146.421 261.46 146.375C261.463 146.329 261.475 146.284 261.495 146.242C261.515 146.201 261.544 146.164 261.579 146.134C261.614 146.103 261.654 146.08 261.698 146.066C261.742 146.052 261.788 146.046 261.834 146.05C262.444 146.119 263.026 146.345 263.522 146.707C263.596 146.762 263.645 146.843 263.66 146.934C263.674 147.026 263.652 147.119 263.599 147.194C263.555 147.258 263.49 147.306 263.416 147.328Z" fill="white"/>
<path d="M274.811 144.97C274.721 144.997 274.624 144.987 274.541 144.944C274.458 144.9 274.395 144.826 274.366 144.737C273.946 143.224 273.171 141.832 272.107 140.678C272.056 140.609 272.033 140.524 272.04 140.44C272.047 140.355 272.085 140.276 272.146 140.217C272.207 140.157 272.287 140.122 272.372 140.117C272.457 140.112 272.541 140.138 272.608 140.191C273.756 141.419 274.592 142.906 275.044 144.525C275.07 144.615 275.061 144.712 275.017 144.795C274.974 144.878 274.9 144.941 274.811 144.97Z" fill="white"/>
<path d="M270.998 139.604C270.954 139.623 270.905 139.633 270.857 139.633C270.808 139.633 270.76 139.623 270.716 139.604C270.19 139.274 269.605 139.049 268.993 138.941C268.9 138.928 268.815 138.88 268.757 138.806C268.699 138.732 268.672 138.639 268.682 138.545C268.693 138.453 268.74 138.368 268.813 138.31C268.885 138.252 268.978 138.225 269.071 138.235C269.782 138.356 270.463 138.615 271.076 138.997C271.133 139.033 271.179 139.084 271.208 139.145C271.237 139.205 271.248 139.273 271.24 139.34C271.231 139.406 271.204 139.47 271.162 139.521C271.119 139.573 271.062 139.612 270.998 139.633V139.604Z" fill="white"/>
<path d="M279.251 142.88C279.198 142.891 279.142 142.891 279.089 142.88C278.997 142.863 278.915 142.811 278.861 142.734C278.807 142.658 278.785 142.563 278.799 142.471C278.951 141.686 278.866 140.874 278.554 140.139C278.242 139.403 277.718 138.777 277.049 138.341C276.967 138.293 276.908 138.215 276.884 138.123C276.86 138.032 276.874 137.935 276.921 137.854C276.969 137.772 277.047 137.713 277.139 137.689C277.23 137.665 277.327 137.679 277.409 137.726C278.199 138.241 278.821 138.976 279.198 139.841C279.575 140.705 279.689 141.662 279.527 142.591C279.517 142.662 279.486 142.728 279.436 142.78C279.387 142.832 279.322 142.867 279.251 142.88Z" fill="white"/>
<path d="M269.304 147.745C269.214 147.771 269.117 147.762 269.034 147.718C268.951 147.675 268.888 147.601 268.859 147.512C268.665 147.035 268.378 146.602 268.014 146.238C267.651 145.874 267.218 145.587 266.741 145.394C266.655 145.358 266.586 145.29 266.55 145.204C266.513 145.118 266.51 145.022 266.543 144.935C266.559 144.891 266.583 144.851 266.615 144.817C266.646 144.783 266.684 144.756 266.726 144.737C266.768 144.718 266.814 144.707 266.86 144.706C266.906 144.705 266.952 144.713 266.995 144.73C267.579 144.962 268.108 145.311 268.55 145.757C268.993 146.203 269.338 146.735 269.565 147.321C269.584 147.412 269.568 147.506 269.519 147.585C269.471 147.664 269.393 147.721 269.304 147.745Z" fill="white"/>
<path d="M279.795 162.195C292.225 159.303 299.956 146.882 297.064 134.452C294.171 122.022 281.75 114.291 269.32 117.183C256.891 120.076 249.159 132.497 252.052 144.926C254.944 157.356 267.365 165.088 279.795 162.195Z" stroke="#1FC29D" stroke-width="1.412" stroke-linecap="round" stroke-linejoin="round"/>
<path d="M131.718 94.9641C132.145 94.8432 132.512 94.5692 132.749 94.1945C133.575 92.8884 133.194 90.4315 132.707 88.6877C131.665 87.2417 130.312 86.0472 128.749 85.192C127.185 84.3369 125.45 83.8427 123.67 83.7457C127.934 85.5813 131.083 89.8526 131.718 94.9641Z" fill="#263238"/>
<path d="M119.519 98.9106C123.247 99.4643 127.049 99.2699 130.702 98.3387C130.755 97.8486 130.783 97.3561 130.787 96.8632C130.787 96.6231 130.787 96.3878 130.787 96.1572H130.751C128.118 96.1572 125.724 94.5051 123.197 92.7683C121.986 91.9034 120.733 91.0999 119.441 90.3609C117.567 89.3094 115.448 88.7735 113.299 88.8077C111.866 90.8176 111.094 93.2231 111.089 95.6912C111.908 96.5172 114.21 98.2046 119.519 98.9106Z" fill="#263238"/>
<path d="M134.274 91.6458C134.377 92.7245 134.153 93.8092 133.632 94.7592C133.427 95.081 133.161 95.3591 132.848 95.5772C132.536 95.7954 132.183 95.9493 131.81 96.03C131.81 96.3054 131.81 96.5807 131.81 96.8631C131.81 97.1455 131.81 97.6185 131.768 97.9927C132.9 97.611 133.97 97.0664 134.945 96.3759C134.945 96.15 134.945 95.9312 134.945 95.7123C134.959 94.3281 134.732 92.9521 134.274 91.6458Z" fill="#263238"/>
<path d="M131.316 100.916C132.1 100.817 132.894 101.002 133.554 101.438C134.176 100.285 134.606 99.0375 134.825 97.7456C133.833 98.3358 132.776 98.8096 131.676 99.1576C131.593 99.7505 131.473 100.338 131.316 100.916Z" fill="#263238"/>
<path d="M129.636 102.497C129.007 102.801 128.316 103.203 127.567 103.641C125.668 104.749 123.522 106.006 121.121 106.387C120.575 106.47 120.022 106.513 119.469 106.514C118.835 106.513 118.202 106.459 117.577 106.352C120.205 107.708 123.244 108.033 126.099 107.263C127.635 105.973 128.847 104.341 129.636 102.497Z" fill="#263238"/>
<path d="M131.154 101.975L130.956 102.017C130.398 103.589 129.569 105.052 128.506 106.338C130.317 105.407 131.86 104.029 132.989 102.335C132.449 101.977 131.789 101.848 131.154 101.975Z" fill="#263238"/>
<path d="M119.921 89.429C121.247 90.1845 122.534 91.0068 123.776 91.893C126.24 93.5874 128.393 95.07 130.674 95.0911C129.968 89.3231 125.816 84.7059 120.557 83.9999C118.068 84.5329 115.813 85.8433 114.118 87.7417C116.156 87.8509 118.142 88.4282 119.921 89.429Z" fill="#263238"/>
<path d="M120.959 105.349C123.162 105.003 125.195 103.796 127.031 102.737C128.014 102.111 129.054 101.579 130.137 101.149C130.306 100.602 130.442 100.045 130.546 99.4825C128.39 100.019 126.175 100.282 123.952 100.266C122.425 100.262 120.899 100.158 119.385 99.9555C114.986 99.3695 112.501 98.1269 111.16 97.1315C111.491 99.8831 112.769 102.434 114.774 104.347C116.69 105.29 118.844 105.639 120.959 105.349Z" fill="#263238"/>
<path d="M128.276 118.22C140.706 115.328 148.438 102.907 145.545 90.4771C142.653 78.0473 130.232 70.3159 117.802 73.2084C105.372 76.1009 97.6406 88.522 100.533 100.952C103.426 113.381 115.847 121.113 128.276 118.22Z" stroke="#1FC29D" stroke-width="1.412" stroke-linecap="round" stroke-linejoin="round"/>
<path d="M250.771 96.5172C250.771 102.716 245.702 109.296 240.845 109.296C239.659 109.296 236.559 109.296 235.458 108.872C229.443 106.549 227.12 100.789 227.12 95.7759C227.12 93.1779 227.897 90.3397 229.944 88.603C232.676 86.3085 235.684 87.7558 238.854 87.7558C241.614 87.7558 245.483 86.6262 247.587 88.1723C250.256 90.135 250.771 93.432 250.771 96.5172Z" fill="#263238"/>
<path d="M238.55 88.5959C239.024 87.1241 239.578 85.6793 240.209 84.2681C240.656 83.379 241.356 82.6421 242.221 82.1501L243.485 82.6796C242.566 83.2891 241.747 84.0369 241.057 84.8965C240.183 86.3032 239.441 87.7874 238.84 89.3302" fill="#263238"/>
<path d="M239.369 86.6967C239.381 86.3778 239.32 86.0604 239.192 85.7682C239.063 85.476 238.871 85.2166 238.628 85.0094C237.316 84.1333 235.94 83.3568 234.512 82.6866C234.512 82.6866 234.194 84.4799 235.218 85.5106C236.242 86.5414 239.369 86.6967 239.369 86.6967Z" fill="#263238"/>
<path d="M247.517 92.3517C247.121 93.0577 245.914 93.1001 244.827 92.4718C243.739 91.8434 243.175 90.7703 243.577 90.0784C243.979 89.3865 245.18 89.3301 246.274 89.9584C247.368 90.5867 247.919 91.6599 247.517 92.3517Z" fill="white"/>
<path d="M260.551 103.862C265.052 91.9206 259.02 78.5913 247.078 74.0907C235.136 69.5901 221.806 75.6225 217.306 87.5645C212.805 99.5064 218.838 112.836 230.78 117.336C242.722 121.837 256.051 115.804 260.551 103.862Z" stroke="#1FC29D" stroke-width="1.412" stroke-linecap="round" stroke-linejoin="round"/>
<mask id="mask0_619_4167" style="mask-type:luminance" maskUnits="userSpaceOnUse" x="166" y="57" width="40" height="40">
<path d="M185.876 96.5808C196.754 96.5808 205.573 87.762 205.573 76.8834C205.573 66.0049 196.754 57.186 185.876 57.186C174.997 57.186 166.178 66.0049 166.178 76.8834C166.178 87.762 174.997 96.5808 185.876 96.5808Z" fill="white"/>
</mask>
<g mask="url(#mask0_619_4167)">
<path d="M198.732 75.309L198.626 75.2525C198.555 75.2525 191.446 71.4119 189.759 71.073C187.707 70.8546 185.642 70.7932 183.581 70.8894H182.805C181.731 70.8894 180.842 71.1083 180.729 71.3907C180.687 71.5178 180.8 71.8002 181.273 72.2308C182.685 73.5157 185.424 73.7134 186.737 73.8123C187.046 73.8181 187.353 73.8535 187.655 73.9182C188.378 74.3668 189.02 74.935 189.554 75.5984L189.992 76.0926L171.699 77.9706C171.473 77.9828 171.26 78.0844 171.109 78.2533C170.957 78.4221 170.879 78.6442 170.891 78.8707C170.903 79.0973 171.005 79.3098 171.173 79.4614C171.342 79.613 171.564 79.6913 171.791 79.6791L185.558 79.4673L170.075 82.9338C169.98 82.9544 169.89 82.9946 169.811 83.0517C169.732 83.1088 169.666 83.1816 169.616 83.2656C169.564 83.3487 169.529 83.4418 169.514 83.5391C169.5 83.6363 169.506 83.7355 169.532 83.8304C169.579 83.9929 169.681 84.1345 169.819 84.2319C169.958 84.3294 170.125 84.377 170.294 84.367L181.88 83.3856L182.007 84.0493L171.65 87.078C171.458 87.1422 171.297 87.2756 171.199 87.452C171.1 87.6285 171.071 87.8354 171.117 88.0322C171.163 88.2291 171.281 88.4017 171.447 88.5164C171.613 88.6311 171.817 88.6796 172.017 88.6524L182.028 86.9015L182.204 87.5581L176.182 89.7537C176.128 89.7757 176.08 89.8112 176.043 89.8569C176.005 89.9026 175.981 89.957 175.97 90.015C175.963 90.074 175.971 90.134 175.995 90.1887C176.019 90.2433 176.056 90.2906 176.105 90.3256C176.135 90.3496 176.17 90.367 176.208 90.3767C176.246 90.3864 176.285 90.3882 176.323 90.3821C177.997 90.2126 186.405 89.3231 187.81 89.0124C189.342 88.6736 197.334 85.3765 197.412 85.3412H197.532L213.593 84.9953L209.936 73.1839H209.901L198.732 75.309Z" fill="#263238"/>
<path d="M173.853 85.7437L177.213 84.7623L177.418 84.4587L174.382 84.72L173.853 85.7437Z" fill="#263238"/>
<path d="M177.538 84.4518L177.46 84.6847L178.576 84.36L177.538 84.4518Z" fill="#263238"/>
<path d="M172.836 80.3569C172.568 80.7664 172.349 81.0629 172.208 81.2959C172.066 81.5289 171.989 81.656 171.89 81.8466L178.95 80.2651L172.836 80.3569Z" fill="#263238"/>
<path d="M175.547 82.3477L174.721 84.0139L181.894 83.4067L182.021 84.0704L177.199 85.4824L176.387 87.911L180.058 87.2685C181.089 86.2237 182.042 85.1505 182.042 85.1505C181.547 85.7806 181.099 86.446 180.701 87.1415L182.042 86.9085L182.219 87.5651L180.411 88.2216C180.422 88.255 180.439 88.2862 180.461 88.3134C180.99 88.8429 181.873 89.3654 182.395 88.8429C182.918 88.3205 187.139 82.8702 188.043 82.3407C190.212 81.1105 192.27 79.6931 194.192 78.1047C194.778 77.6034 196.007 76.3044 197.532 74.6311C195.414 73.5439 191.065 71.2988 189.766 71.0447C187.714 70.8262 185.649 70.7649 183.588 70.8611H182.812C181.739 70.8611 180.849 71.08 180.736 71.3624C180.694 71.4894 180.807 71.7718 181.28 72.2025C182.692 73.4874 185.431 73.6851 186.744 73.7839C187.053 73.7897 187.36 73.8252 187.662 73.8898C188.385 74.3385 189.028 74.9066 189.561 75.5701L189.999 76.0643L174.615 77.6599C174.135 78.3659 173.683 79.0719 173.295 79.6437L185.572 79.4531L171.558 82.6019C171.341 83.1531 171.164 83.7194 171.029 84.2963L173.895 84.0562C174.714 83.1879 175.547 82.3477 175.547 82.3477Z" fill="#263238"/>
<path d="M172.208 86.0401C172.495 85.6027 172.824 85.1937 173.189 84.8187L170.859 85.0164L170.803 85.3341C170.803 85.3341 171.855 86.739 172.208 86.0401Z" fill="#263238"/>
<path d="M175.37 71.6378C176.531 71.3969 177.715 71.2786 178.9 71.2848L175.088 76.954L188.58 75.542C188.244 75.1574 187.854 74.8243 187.422 74.5536C187.174 74.5144 186.924 74.4909 186.673 74.483C185.177 74.37 182.388 74.1653 180.807 72.725C180.559 72.5062 179.818 71.8284 180.101 71.1365C180.411 70.3246 181.929 70.2046 182.805 70.2046H183.567C185.687 70.1051 187.811 70.1712 189.921 70.4023C191.333 70.6847 195.964 73.0639 198.005 74.137C202.848 68.7714 210.176 60.2147 210.176 60.2147L198.386 55.8304C197.856 55.8304 192.413 66.5405 192.413 66.5405C192.413 66.5405 182.932 65.1285 181.703 65.312C180.475 65.4956 175.024 68.4749 173.796 69.0044C172.568 69.5339 171.163 70.0563 171.862 70.7623C172.338 71.1719 172.903 71.4644 173.512 71.6164C174.121 71.7684 174.758 71.7757 175.37 71.6378Z" fill="#263238"/>
<path d="M177.912 89.1324L177.418 89.316C177.55 89.2994 177.679 89.2613 177.799 89.203L177.912 89.1324Z" fill="#263238"/>
<path d="M178.406 88.25L176.38 88.603C176.443 88.7111 176.516 88.8128 176.599 88.9066L178.406 88.25Z" fill="#263238"/>
<path d="M176.613 85.6448L173.436 86.5696L173.259 86.9156C173.322 87.4203 173.453 87.9143 173.648 88.3841L174.791 88.1793C175.314 87.5439 176.027 86.492 176.613 85.6448Z" fill="#263238"/>
</g>
<path d="M180.115 65.1567C180.115 65.1567 177.615 59.8264 175.759 61.6267C173.782 63.5965 180.115 65.1567 180.115 65.1567Z" fill="#263238"/>
<path d="M187.796 65.1567C187.796 65.1567 190.295 59.8264 192.159 61.6267C194.15 63.5965 187.796 65.1567 187.796 65.1567Z" fill="#263238"/>
<path d="M181.336 64.7755C181.246 64.7736 181.159 64.7364 181.096 64.6717C181.033 64.607 180.997 64.5201 180.997 64.4295V52.7382C180.999 52.6489 181.035 52.5637 181.098 52.5005C181.162 52.4374 181.247 52.4011 181.336 52.3993C181.381 52.3993 181.425 52.4081 181.466 52.4251C181.507 52.4421 181.544 52.4671 181.576 52.4985C181.607 52.53 181.632 52.5674 181.649 52.6085C181.666 52.6496 181.675 52.6937 181.675 52.7382V64.4295C181.676 64.4746 181.668 64.5195 181.651 64.5614C181.635 64.6033 181.61 64.6415 181.578 64.6737C181.547 64.706 181.509 64.7315 181.467 64.749C181.426 64.7665 181.381 64.7755 181.336 64.7755Z" fill="#263238"/>
<path d="M183.821 69.0255C183.731 69.0255 183.645 68.9898 183.582 68.9263C183.518 68.8627 183.482 68.7765 183.482 68.6867V66.2015C183.482 66.1117 183.518 66.0255 183.582 65.9619C183.645 65.8984 183.731 65.8627 183.821 65.8627C183.911 65.8645 183.996 65.9008 184.059 65.9639C184.122 66.0271 184.158 66.1122 184.16 66.2015V68.6867C184.158 68.776 184.122 68.8611 184.059 68.9243C183.996 68.9875 183.911 69.0237 183.821 69.0255Z" fill="white"/>
<path d="M183.821 66.5476C183.776 66.5476 183.731 66.5386 183.69 66.5211C183.648 66.5036 183.611 66.478 183.579 66.4458C183.548 66.4136 183.523 66.3754 183.506 66.3335C183.489 66.2915 183.481 66.2467 183.482 66.2016V59.8476C183.481 59.8029 183.49 59.7584 183.506 59.7168C183.523 59.6753 183.548 59.6375 183.579 59.6059C183.611 59.5742 183.649 59.5493 183.69 59.5326C183.732 59.5159 183.776 59.5078 183.821 59.5087C183.866 59.5087 183.91 59.5175 183.951 59.5345C183.992 59.5516 184.029 59.5765 184.061 59.608C184.092 59.6395 184.117 59.6768 184.134 59.7179C184.151 59.7591 184.16 59.8031 184.16 59.8476V66.2016C184.16 66.2922 184.125 66.3791 184.061 66.4438C183.998 66.5085 183.912 66.5457 183.821 66.5476Z" fill="#263238"/>
<path d="M186.829 67.9596C186.739 67.9596 186.653 67.9239 186.589 67.8603C186.526 67.7968 186.49 67.7106 186.49 67.6207V57.186C186.49 57.0955 186.525 57.0085 186.589 56.9439C186.652 56.8792 186.738 56.8419 186.829 56.8401C186.874 56.8401 186.919 56.8491 186.96 56.8665C187.002 56.884 187.039 56.9096 187.071 56.9418C187.103 56.974 187.127 57.0122 187.144 57.0542C187.161 57.0961 187.169 57.1409 187.168 57.186V67.6348C187.167 67.6784 187.157 67.7214 187.14 67.7613C187.122 67.8012 187.097 67.8373 187.066 67.8674C187.034 67.8976 186.997 67.9212 186.956 67.9371C186.916 67.9529 186.872 67.9605 186.829 67.9596Z" fill="#263238"/>
<path d="M186.829 56.4799C186.784 56.4799 186.74 56.4711 186.699 56.4541C186.658 56.4371 186.621 56.4121 186.589 56.3806C186.558 56.3492 186.533 56.3118 186.516 56.2707C186.499 56.2296 186.49 56.1855 186.49 56.141V53.4512C186.49 53.3606 186.525 53.2737 186.589 53.209C186.652 53.1443 186.738 53.1071 186.829 53.1052C186.874 53.1052 186.919 53.1142 186.96 53.1317C187.002 53.1491 187.039 53.1747 187.071 53.207C187.103 53.2392 187.127 53.2774 187.144 53.3193C187.161 53.3612 187.169 53.4061 187.168 53.4512V56.1057C187.174 56.1533 187.17 56.2017 187.155 56.2475C187.141 56.2933 187.117 56.3354 187.085 56.371C187.052 56.4065 187.013 56.4347 186.969 56.4535C186.924 56.4723 186.877 56.4813 186.829 56.4799Z" fill="#263238"/>
<path d="M178.152 72.9368C177.461 72.6162 176.714 72.4355 175.953 72.4052C175.192 72.3749 174.432 72.4956 173.718 72.7603C171.24 73.6428 172.306 75.4149 173.895 75.0619C175.483 74.7089 178.152 72.9368 178.152 72.9368Z" fill="#263238"/>
<path d="M179.034 76.8198C178.945 76.8198 178.858 76.7841 178.795 76.7206C178.731 76.657 178.696 76.5708 178.696 76.4809V73.2898C178.697 73.2005 178.734 73.1153 178.797 73.0522C178.86 72.989 178.945 72.9527 179.034 72.9509C179.124 72.9509 179.211 72.9866 179.274 73.0502C179.338 73.1137 179.373 73.1999 179.373 73.2898V76.4809C179.374 76.5257 179.366 76.5702 179.35 76.6117C179.333 76.6533 179.308 76.691 179.276 76.7227C179.245 76.7544 179.207 76.7793 179.165 76.796C179.124 76.8127 179.079 76.8208 179.034 76.8198Z" fill="white"/>
<path d="M201.191 93.4747C210.215 84.4507 210.215 69.8199 201.191 60.7959C192.167 51.7719 177.537 51.7719 168.513 60.7959C159.489 69.8199 159.489 84.4506 168.513 93.4746C177.537 102.499 192.167 102.499 201.191 93.4747Z" stroke="#1FC29D" stroke-width="1.412" stroke-linecap="round" stroke-linejoin="round"/>
<path d="M170.146 309.934C204.291 309.934 231.97 305.667 231.97 300.403C231.97 295.139 204.291 290.872 170.146 290.872C136.001 290.872 108.322 295.139 108.322 300.403C108.322 305.667 136.001 309.934 170.146 309.934Z" fill="#263238"/>
<path d="M159.895 196.614C158.836 201.163 158.034 205.769 157.495 210.409C156.478 218.676 158.158 231.589 158.158 231.589C158.158 231.589 146.156 225.433 139.626 226.245C133.095 227.057 106.797 236.39 103.33 236.065C103.33 236.065 100.739 240.661 103.26 240.598C106.705 240.513 143.424 241.304 149.361 241.974C155.426 242.68 164.018 244.516 167.011 241.777C169.059 239.92 176.549 216.622 176.662 208.983C176.701 204.688 177.002 200.399 177.566 196.141" fill="white"/>
<path d="M159.895 196.614C158.836 201.163 158.034 205.769 157.495 210.409C156.478 218.676 158.158 231.589 158.158 231.589C158.158 231.589 146.156 225.433 139.626 226.245C133.095 227.057 106.797 236.39 103.33 236.065C103.33 236.065 100.739 240.661 103.26 240.598C106.705 240.513 143.424 241.304 149.361 241.974C155.426 242.68 164.018 244.516 167.011 241.777C169.059 239.92 176.549 216.622 176.662 208.983C176.701 204.688 177.002 200.399 177.566 196.141" stroke="#263238" stroke-width="0.706" stroke-linecap="round" stroke-linejoin="round"/>
<path d="M157.487 210.388C156.478 218.655 158.193 231.568 158.193 231.568C158.193 231.568 146.191 225.412 139.661 226.224C137.35 226.622 135.065 227.162 132.82 227.84C131.182 231.024 129.72 235.903 132.001 241.155C139.964 241.396 147.06 241.678 149.397 241.953C155.461 242.659 164.053 244.495 167.047 241.756C169.094 239.899 176.585 216.601 176.698 208.962C176.736 204.667 177.038 200.378 177.601 196.12L159.909 196.565C158.843 201.123 158.035 205.738 157.487 210.388Z" fill="#263238" stroke="#263238" stroke-width="0.706" stroke-linecap="round" stroke-linejoin="round"/>
<path d="M168.932 200.045L164.999 202.029C164.999 202.029 163.686 201.888 166.178 198.443" fill="white"/>
<path d="M168.932 200.045L164.999 202.029C164.999 202.029 163.686 201.888 166.178 198.443" stroke="#263238" stroke-width="0.706" stroke-linecap="round" stroke-linejoin="round"/>
<path d="M182.106 118.001C182.106 118.001 178.152 115.262 171.473 114.958C164.795 114.654 160.262 123.769 161.145 129.544C162.027 135.319 161.752 141.391 153.852 140.48C145.951 139.569 136.237 140.48 134.084 148.952C131.93 157.424 141.369 168.092 152.002 164.145C162.634 160.199 160.071 152.39 165.063 150.773C170.054 149.157 175.088 149.256 175.695 143.184C176.302 137.112 172.356 131.641 175.088 126.169C176.723 122.913 179.133 120.108 182.106 118.001Z" fill="#263238" stroke="#263238" stroke-width="0.706" stroke-linecap="round" stroke-linejoin="round"/>
<path d="M177.785 119.243C177.785 119.243 169.496 117.634 166.729 124.538C163.961 131.443 170.188 137.43 168.141 144.306C166.094 151.183 158.257 156.506 151.797 154.19C145.337 151.875 139.082 149.672 138.644 153.322C138.207 156.972 143.014 157.925 144.165 157.233C145.316 156.541 143.706 155.165 143.706 155.165" stroke="white" stroke-width="0.706" stroke-linecap="round" stroke-linejoin="round"/>
<path d="M151.246 146.213C150.284 145.96 149.301 145.795 148.309 145.719" stroke="white" stroke-width="0.706" stroke-linecap="round" stroke-linejoin="round"/>
<path d="M171.339 118.326C171.339 118.326 163.51 119.738 163.51 127.991C163.51 136.244 167.421 141.348 163.969 146.643C161.575 150.314 158.321 148.677 154.212 147.173" stroke="white" stroke-width="0.706" stroke-linecap="round" stroke-linejoin="round"/>
<path d="M186.631 126.19C186.631 126.19 186.906 130.631 185.925 133.25C184.944 135.87 180.559 140.056 180.814 142.287C181.068 144.518 187.464 149.107 189.505 148.338C191.545 147.568 193.246 135.976 193.246 135.976C193.246 135.976 189.66 127.73 186.631 126.19Z" fill="white" stroke="#263238" stroke-width="0.706" stroke-linecap="round" stroke-linejoin="round"/>
<path d="M190.211 134.26C191.524 136.717 192.646 138.757 195.569 139.294C199.572 140 201.048 134.846 201.584 129.622C201.717 129.679 201.857 129.717 202.001 129.735C202.501 129.809 203.012 129.768 203.494 129.616C203.976 129.463 204.417 129.201 204.782 128.852C205.107 128.52 204.613 127.885 203.963 127.2C202.057 125.181 201.895 123.621 201.916 120.846C201.979 119.605 201.875 118.36 201.605 117.147C201.533 116.883 201.446 116.624 201.344 116.37C198.428 109.239 183.835 108.978 183.045 117.782C182.818 120.896 183.183 124.024 184.118 127.002" fill="white"/>
<mask id="mask1_619_4167" style="mask-type:luminance" maskUnits="userSpaceOnUse" x="182" y="111" width="23" height="29">
<path d="M190.211 134.26C191.524 136.717 192.646 138.757 195.569 139.294C199.572 140 201.048 134.846 201.584 129.622C201.717 129.679 201.857 129.717 202.001 129.735C202.501 129.809 203.012 129.768 203.494 129.616C203.976 129.463 204.417 129.201 204.782 128.852C205.107 128.52 204.613 127.885 203.963 127.2C202.057 125.181 201.895 123.621 201.916 120.846C201.979 119.605 201.875 118.36 201.605 117.147C201.533 116.883 201.446 116.624 201.344 116.37C198.428 109.239 183.835 108.978 183.045 117.782C182.818 120.896 183.183 124.024 184.118 127.002" fill="white"/>
</mask>
<g mask="url(#mask1_619_4167)">
<path d="M201.916 120.867C201.979 119.626 201.875 118.381 201.605 117.168C201.533 116.904 201.446 116.645 201.344 116.391C198.428 109.261 183.835 109 183.045 117.803C182.817 120.903 183.179 124.017 184.111 126.981C189.927 125.06 195.899 123.643 201.958 122.745C201.916 122.173 201.916 121.559 201.916 120.867Z" fill="#1FC29D"/>
<path opacity="0.5" d="M201.916 120.867C201.979 119.626 201.875 118.381 201.605 117.168C201.533 116.904 201.446 116.645 201.344 116.391C198.428 109.261 183.835 109 183.045 117.803C182.817 120.903 183.179 124.017 184.111 126.981C189.927 125.06 195.899 123.643 201.958 122.745C201.916 122.173 201.916 121.559 201.916 120.867Z" fill="white"/>
</g>
<path d="M190.211 134.26C191.524 136.717 192.646 138.757 195.569 139.294C199.572 140 201.048 134.846 201.584 129.622C201.717 129.679 201.857 129.717 202.001 129.735C202.501 129.809 203.012 129.768 203.494 129.616C203.976 129.463 204.417 129.201 204.782 128.852C205.107 128.52 204.613 127.885 203.963 127.2C202.057 125.181 201.895 123.621 201.916 120.846C201.979 119.605 201.875 118.36 201.605 117.147C201.533 116.883 201.446 116.624 201.344 116.37C198.428 109.239 183.835 108.978 183.045 117.782C182.818 120.896 183.183 124.024 184.118 127.002" stroke="#263238" stroke-width="0.706" stroke-linecap="round" stroke-linejoin="round"/>
<path d="M199.897 124.101C199.897 124.637 199.749 125.082 199.494 125.096C199.24 125.11 199.014 124.687 198.979 124.15C198.944 123.614 199.127 123.169 199.381 123.155C199.636 123.141 199.869 123.55 199.897 124.101Z" fill="#263238"/>
<path d="M199.798 131.747C199.798 131.747 197.631 131.888 197.193 130.299" stroke="#263238" stroke-width="0.706" stroke-linecap="round" stroke-linejoin="round"/>
<path d="M200.504 114.965C196.36 109.275 182.939 113.433 182.204 121.58C181.837 125.696 181.682 131.224 185.636 131.867C186.857 128.033 190.804 127.927 190.676 125.957C190.5 123.035 196.324 123.133 195.548 118.714C194.934 114.88 197.977 117.196 200.504 114.965Z" fill="#263238" stroke="#263238" stroke-width="0.706" stroke-linecap="round" stroke-linejoin="round"/>
<path d="M182.346 124.849L202.678 117.994C202.678 117.994 200.024 110.934 196.579 109.126C193.133 107.319 184.944 109.126 182.148 112.713C179.352 116.299 181.025 118.897 182.346 124.849Z" fill="#1FC29D"/>
<mask id="mask2_619_4167" style="mask-type:luminance" maskUnits="userSpaceOnUse" x="180" y="108" width="23" height="17">
<path d="M182.346 124.849L202.678 117.994C202.678 117.994 200.024 110.934 196.579 109.126C193.133 107.319 184.944 109.126 182.148 112.713C179.352 116.299 181.025 118.897 182.346 124.849Z" fill="white"/>
</mask>
<g mask="url(#mask2_619_4167)">
<path opacity="0.2" d="M185.847 114.746C186.073 111.372 189.596 109.162 190.563 108.618C187.266 109.134 183.786 110.616 182.148 112.713C179.324 116.299 181.025 118.898 182.346 124.849L188.615 122.731C187.45 120.444 185.678 117.196 185.847 114.746Z" fill="#3F3F3F"/>
</g>
<path d="M182.346 124.849L202.678 117.994C202.678 117.994 200.024 110.934 196.579 109.126C193.133 107.319 184.944 109.126 182.148 112.713C179.352 116.299 181.025 118.897 182.346 124.849Z" stroke="#263238" stroke-width="0.706" stroke-linecap="round" stroke-linejoin="round"/>
<path d="M195.887 120.444C195.887 120.444 204.641 120.14 208.955 120.585C213.268 121.03 210.593 118.82 202.678 117.994C202.678 117.994 197.398 119.872 195.887 120.444Z" fill="white" stroke="#263238" stroke-width="0.706" stroke-linecap="round" stroke-linejoin="round"/>
<path d="M183.066 137.19C183.066 137.19 191.27 143.191 193.035 148.606C195.237 155.377 194.312 160.841 192.201 166.962C190.09 173.083 187.33 173.365 185.678 179.875C183.857 187.062 183.496 201.104 179.959 207.508C173.394 219.404 155.045 208.785 154.734 197.377C154.395 185.043 165.811 177.679 167.131 171.48C168.543 164.759 166.983 155.454 170.09 149.157C173.196 142.859 179.133 136.964 183.066 137.19Z" fill="#263238" stroke="#263238" stroke-width="0.706" stroke-linecap="round" stroke-linejoin="round"/>
<path d="M180.651 143.064C178.554 143.641 176.681 144.84 175.279 146.502C171.854 150.583 167.71 166.644 166.87 169.094C165.635 172.723 163.481 185.784 164.35 186.038C165.218 186.292 170.626 186.123 179.981 187.019C189.335 187.916 206.844 182.995 206.844 182.995C206.844 182.995 209.731 184.937 212.245 184.174C212.57 184.075 212.859 183.977 213.127 183.885C213.903 183.613 214.56 183.078 214.984 182.374C215.156 182.108 215.287 181.818 215.372 181.513C215.515 181.055 215.534 180.568 215.429 180.101C215.414 179.081 215.172 178.078 214.723 177.164C214.123 176.14 213.741 176.705 212.908 176.26C211.863 175.801 210.698 175.687 209.583 175.935C208.877 176.225 206.399 179.613 206.399 179.613C206.399 179.613 196.12 180.807 187.09 177.912C178.936 175.307 176.994 175.321 176.994 175.321C176.994 175.321 184.859 157.254 187.584 152.199" fill="#1FC29D"/>
<path d="M180.651 143.064C178.554 143.641 176.681 144.84 175.279 146.502C171.854 150.583 167.71 166.644 166.87 169.094C165.635 172.723 163.481 185.784 164.35 186.038C165.218 186.292 170.626 186.123 179.981 187.019C189.335 187.916 206.844 182.995 206.844 182.995C206.844 182.995 209.731 184.937 212.245 184.174C212.57 184.075 212.859 183.977 213.127 183.885C213.903 183.613 214.56 183.078 214.984 182.374C215.156 182.108 215.287 181.818 215.372 181.513C215.515 181.055 215.534 180.568 215.429 180.101C215.414 179.081 215.172 178.078 214.723 177.164C214.123 176.14 213.741 176.705 212.908 176.26C211.863 175.801 210.698 175.687 209.583 175.935C208.877 176.225 206.399 179.613 206.399 179.613C206.399 179.613 196.12 180.807 187.09 177.912C178.936 175.307 176.994 175.321 176.994 175.321C176.994 175.321 184.859 157.254 187.584 152.199" stroke="#263238" stroke-width="0.706" stroke-linecap="round" stroke-linejoin="round"/>
<path d="M212.245 184.224L212.887 184.012C213.379 183.859 213.834 183.609 214.227 183.276C214.62 182.944 214.942 182.536 215.175 182.077C215.263 181.915 215.329 181.742 215.372 181.562C215.515 181.104 215.534 180.617 215.429 180.15C215.414 179.131 215.173 178.128 214.723 177.213C214.123 176.189 213.742 176.754 212.908 176.309C211.863 175.85 210.698 175.737 209.583 175.985C208.877 176.274 206.399 179.663 206.399 179.663C204.029 179.877 201.647 179.938 199.269 179.846L199.36 184.88C203.709 183.927 206.872 183.038 206.872 183.038C206.872 183.038 209.731 184.972 212.245 184.224Z" fill="white" stroke="#263238" stroke-width="0.706" stroke-linecap="round" stroke-linejoin="round"/>
<path d="M212.88 176.316C212.88 176.316 213.749 178.717 213.212 179.981C212.675 181.244 210.868 178.18 210.868 178.18" stroke="#263238" stroke-width="0.706" stroke-linecap="round" stroke-linejoin="round"/>
<path d="M212.132 182.148L211.772 179.804C211.772 179.804 208.891 182.868 207.628 181.605" stroke="#263238" stroke-width="0.706" stroke-linecap="round" stroke-linejoin="round"/>
<path d="M196.353 159.556C196.007 157.961 195.555 156.379 195.068 154.805C194.418 152.736 193.698 150.682 193.035 148.641C192.877 148.176 192.686 147.723 192.463 147.286V146.241C192.463 145.111 193.783 143.043 193.783 143.043C192.802 141.951 191.732 140.943 190.585 140.028C188.142 137.96 183.814 135.143 183.814 135.143L181.781 137.359C177.926 138.228 172.871 143.579 170.09 149.227C166.983 155.525 168.572 164.83 167.131 171.551C166.383 175.081 162.387 178.957 159.132 183.913C166.705 188.238 175.102 190.922 183.779 191.792C184.386 187.344 184.901 183.024 185.678 179.945C186.515 176.741 188.133 173.794 190.387 171.367C193.642 167.816 197.532 164.971 196.353 159.556Z" fill="#1FC29D"/>
<mask id="mask3_619_4167" style="mask-type:luminance" maskUnits="userSpaceOnUse" x="159" y="135" width="38" height="57">
<path d="M196.353 159.556C196.007 157.961 195.555 156.379 195.068 154.805C194.418 152.736 193.698 150.682 193.035 148.641C192.877 148.176 192.686 147.723 192.463 147.286V146.241C192.463 145.111 193.783 143.043 193.783 143.043C192.802 141.951 191.732 140.943 190.585 140.028C188.142 137.96 183.814 135.143 183.814 135.143L181.781 137.359C177.926 138.228 172.871 143.579 170.09 149.227C166.983 155.525 168.572 164.83 167.131 171.551C166.383 175.081 162.387 178.957 159.132 183.913C166.705 188.238 175.102 190.922 183.779 191.792C184.386 187.344 184.901 183.024 185.678 179.945C186.515 176.741 188.133 173.794 190.387 171.367C193.642 167.816 197.532 164.971 196.353 159.556Z" fill="white"/>
</mask>
<g mask="url(#mask3_619_4167)">
<path opacity="0.2" d="M170.442 187.09C170.442 186.045 177.757 177.954 179.324 175.865C180.891 173.775 172.793 175.342 171.487 175.342C170.181 175.342 175.144 169.334 178.547 163.072C181.95 156.81 181.153 155.235 181.153 155.235L172.264 151.303C172.264 151.303 170.852 151.974 168.79 152.976C167.463 158.857 168.296 166.044 167.124 171.516C166.376 175.046 162.38 178.922 159.125 183.878C162.646 185.911 166.37 187.567 170.238 188.82C170.345 188.248 170.413 187.671 170.442 187.09Z" fill="#3F3F3F"/>
</g>
<path d="M196.353 159.556C196.007 157.961 195.555 156.379 195.068 154.805C194.418 152.736 193.698 150.682 193.035 148.641C192.877 148.176 192.686 147.723 192.463 147.286V146.241C192.463 145.111 193.783 143.043 193.783 143.043C192.802 141.951 191.732 140.943 190.585 140.028C188.142 137.96 183.814 135.143 183.814 135.143L181.781 137.359C177.926 138.228 172.871 143.579 170.09 149.227C166.983 155.525 168.572 164.83 167.131 171.551C166.383 175.081 162.387 178.957 159.132 183.913C166.705 188.238 175.102 190.922 183.779 191.792C184.386 187.344 184.901 183.024 185.678 179.945C186.515 176.741 188.133 173.794 190.387 171.367C193.642 167.816 197.532 164.971 196.353 159.556Z" stroke="#263238" stroke-width="0.706" stroke-linecap="round" stroke-linejoin="round"/>
<path d="M183.758 142.301C181.715 141.574 179.502 141.476 177.404 142.019C172.257 143.381 159.62 154.134 157.516 155.666C154.416 157.918 145.139 167.357 145.676 168.099C146.213 168.84 150.759 171.777 157.897 177.898C165.035 184.019 179.783 189.561 179.783 189.561C179.783 189.561 183.398 193.324 185.89 194.143C186.638 194.39 187.245 194.552 187.747 194.665C187.888 194.715 188.036 194.764 188.177 194.799C188.668 194.978 189.199 195.02 189.711 194.919C190.224 194.818 190.699 194.579 191.086 194.228C191.462 193.936 191.756 193.551 191.94 193.112C192.509 192.263 192.883 191.299 193.035 190.288C193.133 189.109 191.382 188.876 190.959 188.05C190.371 187.069 189.482 186.304 188.424 185.869C187.718 185.713 183.708 187.041 183.708 187.041C183.708 187.041 174.671 182.099 168.932 174.495C163.764 167.675 162.168 166.567 162.168 166.567C162.168 166.567 178.999 156.322 184.118 153.738" fill="#1FC29D"/>
<mask id="mask4_619_4167" style="mask-type:luminance" maskUnits="userSpaceOnUse" x="145" y="141" width="49" height="54">
<path d="M183.758 142.301C181.715 141.574 179.502 141.476 177.404 142.019C172.257 143.381 159.62 154.134 157.516 155.666C154.416 157.918 145.139 167.357 145.676 168.099C146.213 168.84 150.759 171.777 157.897 177.898C165.035 184.019 179.783 189.561 179.783 189.561C179.783 189.561 183.398 193.324 185.89 194.143C186.638 194.39 187.245 194.552 187.747 194.665C187.888 194.715 188.036 194.764 188.177 194.799C188.668 194.978 189.199 195.02 189.711 194.919C190.224 194.818 190.699 194.579 191.086 194.228C191.462 193.936 191.756 193.551 191.94 193.112C192.509 192.263 192.883 191.299 193.035 190.288C193.133 189.109 191.382 188.876 190.959 188.05C190.371 187.069 189.482 186.304 188.424 185.869C187.718 185.713 183.708 187.041 183.708 187.041C183.708 187.041 174.671 182.099 168.932 174.495C163.764 167.675 162.168 166.567 162.168 166.567C162.168 166.567 178.999 156.322 184.118 153.738" fill="white"/>
</mask>
<g mask="url(#mask4_619_4167)">
<path opacity="0.2" d="M190.288 193.868C184.541 192.3 177.757 187.076 172.794 183.941C167.83 180.807 154.254 169.32 152.425 168.798C150.597 168.275 152.948 167.492 155.821 165.402C158.695 163.312 152.164 165.402 150.597 165.402C149.03 165.402 173.316 149.736 176.719 145.824C179.282 142.866 175.886 143.184 174.071 143.516C168.12 146.883 159.245 154.402 157.502 155.666C154.402 157.918 145.125 167.357 145.662 168.099C146.198 168.84 150.745 171.777 157.883 177.898C165.02 184.019 179.769 189.561 179.769 189.561C179.769 189.561 183.384 193.324 185.876 194.143C186.624 194.39 187.231 194.553 187.732 194.665C187.874 194.715 188.022 194.764 188.163 194.8C188.654 194.978 189.184 195.02 189.697 194.919C190.21 194.818 190.685 194.579 191.072 194.228L191.185 194.129L190.288 193.868Z" fill="#3F3F3F"/>
</g>
<path d="M183.758 142.301C181.715 141.574 179.502 141.476 177.404 142.019C172.257 143.381 159.62 154.134 157.516 155.666C154.416 157.918 145.139 167.357 145.676 168.099C146.213 168.84 150.759 171.777 157.897 177.898C165.035 184.019 179.783 189.561 179.783 189.561C179.783 189.561 183.398 193.324 185.89 194.143C186.638 194.39 187.245 194.552 187.747 194.665C187.888 194.715 188.036 194.764 188.177 194.799C188.668 194.978 189.199 195.02 189.711 194.919C190.224 194.818 190.699 194.579 191.086 194.228C191.462 193.936 191.756 193.551 191.94 193.112C192.509 192.263 192.883 191.299 193.035 190.288C193.133 189.109 191.382 188.876 190.959 188.05C190.371 187.069 189.482 186.304 188.424 185.869C187.718 185.713 183.708 187.041 183.708 187.041C183.708 187.041 174.671 182.099 168.932 174.495C163.764 167.675 162.168 166.567 162.168 166.567C162.168 166.567 178.999 156.322 184.118 153.738" stroke="#263238" stroke-width="0.706" stroke-linecap="round" stroke-linejoin="round"/>
<path d="M190.966 188.05C190.378 187.069 189.489 186.304 188.431 185.869C187.725 185.713 183.715 187.041 183.715 187.041C182.258 186.212 180.844 185.309 179.479 184.337L176.225 188.128C178.343 189.039 179.755 189.54 179.755 189.54C179.755 189.54 183.369 193.303 185.862 194.122C186.61 194.369 187.217 194.531 187.718 194.644C187.859 194.694 188.008 194.743 188.149 194.778C188.64 194.957 189.17 194.998 189.683 194.898C190.196 194.797 190.671 194.558 191.058 194.206C191.434 193.914 191.728 193.53 191.912 193.091C192.481 192.242 192.854 191.278 193.006 190.267C193.14 189.109 191.389 188.89 190.966 188.05Z" fill="white" stroke="#263238" stroke-width="0.706" stroke-linecap="round" stroke-linejoin="round"/>
<path d="M189.773 127.447C189.773 127.447 187.57 123.437 185.833 124.849C184.097 126.261 186.165 128.937 188.474 129.706C190.782 130.476 189.829 129 189.829 129" fill="white"/>
<path d="M189.773 127.447C189.773 127.447 187.57 123.437 185.833 124.849C184.097 126.261 186.165 128.937 188.474 129.706C190.782 130.476 189.829 129 189.829 129" stroke="#263238" stroke-width="0.706" stroke-linecap="round" stroke-linejoin="round"/>
<path d="M164.611 207.599C167.83 210.985 171.236 214.189 174.813 217.194C181.167 222.581 192.738 227.502 192.738 227.502C192.738 227.502 186.433 242.208 186.666 248.752C186.899 255.297 193.846 282.358 193.211 285.775C193.211 285.775 197.038 288.676 197.722 286.255C198.838 282.344 200.928 250.552 201.761 244.495C202.58 238.557 204.754 227.869 204.747 225.108C204.747 219.813 190.514 204.684 184.195 200.398C180.63 198.004 177.213 195.394 173.965 192.583" fill="white"/>
<path d="M164.611 207.599C167.83 210.985 171.236 214.189 174.813 217.194C181.167 222.581 192.738 227.502 192.738 227.502C192.738 227.502 186.433 242.208 186.666 248.752C186.899 255.297 193.846 282.358 193.211 285.775C193.211 285.775 197.038 288.676 197.722 286.255C198.838 282.344 200.928 250.552 201.761 244.495C202.58 238.557 204.754 227.869 204.747 225.108C204.747 219.813 190.514 204.684 184.195 200.398C180.63 198.004 177.213 195.394 173.965 192.583" stroke="#263238" stroke-width="0.706" stroke-linecap="round" stroke-linejoin="round"/>
<path d="M184.195 200.391C180.63 197.997 177.213 195.387 173.965 192.576L164.611 207.599C167.83 210.985 171.236 214.189 174.813 217.194C181.167 222.581 192.738 227.502 192.738 227.502C192.738 227.502 186.433 242.207 186.666 248.752C186.93 251.696 187.381 254.62 188.015 257.507C192.13 258.361 196.36 258.509 200.525 257.944C201.026 251.844 201.471 246.606 201.761 244.495C202.58 238.557 204.754 227.869 204.747 225.108C204.74 219.813 190.514 204.684 184.195 200.391Z" fill="#263238" stroke="#263238" stroke-width="0.706" stroke-linecap="round" stroke-linejoin="round"/>
<path d="M163.128 209.4C166.319 211.983 171.318 215.754 174.813 217.166" stroke="white" stroke-width="0.706" stroke-linecap="round" stroke-linejoin="round"/>
<path d="M160.029 206.816C160.029 206.816 160.573 207.289 161.441 208.037" stroke="white" stroke-width="0.706" stroke-linecap="round" stroke-linejoin="round"/>
<path d="M170.174 191.474L181.068 197.659" stroke="white" stroke-width="0.706" stroke-linecap="round" stroke-linejoin="round"/>
<path d="M163.248 187.796C163.248 187.796 158.546 190.274 158.793 192.498C159.041 194.722 164.484 191.015 163.99 193.486C163.495 195.957 160.813 196.416 163.495 197.447C166.178 198.478 178.096 208.086 185.523 213.043C192.95 217.999 200.617 224.67 199.876 226.647C199.134 228.624 192.201 246.415 193.684 258.078" stroke="white" stroke-width="0.706" stroke-linecap="round" stroke-linejoin="round"/>
<path d="M131.316 236.51C131.316 236.51 149.135 239.228 156.555 239.969C163.976 240.711 164.724 239.228 163.488 237.745C162.253 236.263 164.724 238.24 165.218 236.009C165.712 233.778 166.708 219.926 166.955 216.46" stroke="white" stroke-width="0.706" stroke-linecap="round" stroke-linejoin="round"/>
<path d="M104.008 236.446C104.008 236.446 99.426 230.036 97.9222 230.798C96.4184 231.561 92.8461 234.06 90.9116 235.098C88.9772 236.136 85.5178 240.322 85.546 241.678C85.5742 243.033 89.2384 240.838 91.667 240.351C94.0957 239.864 103.26 240.64 103.26 240.64C103.26 240.64 102.765 237.117 104.008 236.446Z" fill="#1FC29D" stroke="#263238" stroke-width="0.706" stroke-linecap="round" stroke-linejoin="round"/>
<path d="M99.3836 231.257C98.7906 230.827 98.2752 230.608 97.9222 230.784C96.4255 231.533 92.8461 234.046 90.9116 235.084C88.9772 236.122 85.5178 240.308 85.546 241.664C85.546 242.165 86.0685 242.179 86.8239 241.974C88.2994 239.045 91.4835 237.52 94.491 234.914C96.0294 233.576 97.6647 232.354 99.3836 231.257Z" fill="white" stroke="#263238" stroke-width="0.706" stroke-linecap="round" stroke-linejoin="round"/>
<path d="M193.211 285.775C193.211 285.775 189.914 292.941 191.326 293.865C192.738 294.79 196.677 296.689 198.541 297.819C200.405 298.949 205.75 299.937 206.914 299.231C208.079 298.525 204.352 296.442 202.728 294.578C201.104 292.715 197.736 286.269 197.736 286.269C197.736 286.269 194.411 286.523 193.211 285.775Z" fill="#1FC29D" stroke="#263238" stroke-width="0.706" stroke-linecap="round" stroke-linejoin="round"/>
<path d="M206.9 299.217C207.402 298.913 206.985 298.349 206.194 297.657C205.138 297.78 204.071 297.802 203.01 297.72C200.963 297.515 193.952 293.781 191.008 292.171C190.888 292.99 190.938 293.632 191.291 293.865C192.703 294.797 196.642 296.689 198.506 297.819C200.37 298.949 205.735 299.916 206.9 299.217Z" fill="white" stroke="#263238" stroke-width="0.706" stroke-linecap="round" stroke-linejoin="round"/>
</svg>
