<svg width="353" height="348" viewBox="0 0 353 348" fill="none" xmlns="http://www.w3.org/2000/svg">
<path d="M294.889 36.5991C273.391 23.2274 247.622 21.7731 224.917 32.9067C205.58 42.36 190.535 58.4356 171.177 67.896C144.73 80.837 115.692 87.9111 88.956 100.309C62.2198 112.706 36.6273 132.135 27.0398 160.008C15.7438 192.929 19.7115 231.639 36.9874 261.735C65.072 310.654 120.775 328.029 174.403 327.393C287.723 326.059 346.095 188.813 327.605 90.1774C323.567 68.8068 313.725 48.3116 294.889 36.5991Z" fill="#1FC29D"/>
<path opacity="0.7" d="M294.889 36.5991C273.391 23.2274 247.622 21.7731 224.917 32.9067C205.58 42.36 190.535 58.4356 171.177 67.896C144.73 80.837 115.692 87.9111 88.956 100.309C62.2198 112.706 36.6273 132.135 27.0398 160.008C15.7438 192.929 19.7115 231.639 36.9874 261.735C65.072 310.654 120.775 328.029 174.403 327.393C287.723 326.059 346.095 188.813 327.605 90.1774C323.567 68.8068 313.725 48.3116 294.889 36.5991Z" fill="white"/>
<path d="M198.647 147.914C198.915 148.316 207.013 149.933 211.214 156.04C213.658 159.549 215.708 163.315 217.328 167.273C217.328 167.273 224.353 171.452 227.953 174.897C231.554 178.343 235.846 182.918 239.158 185.318C242.469 187.718 249.282 192.272 250.997 197.602C250.997 197.602 240.781 225.581 237.894 231.766C235.006 237.95 227.883 251.075 227.883 251.075L215.175 305.063H141.461L138.948 286.544C138.948 286.544 116.356 282.111 106.917 273.836C106.917 273.836 106.027 253.362 109.974 235.098C113.92 216.834 127.341 178.858 136.434 167.258C136.434 167.258 150.957 160.311 163.771 158.08C163.771 158.08 172.088 151.508 177.531 150.809C182.974 150.11 198.647 147.914 198.647 147.914Z" fill="white"/>
<path d="M139.943 294.889C146.488 296.139 152.192 297.219 158.857 297.141C165.522 297.064 172.328 295.567 177.778 291.747C178.831 290.871 180.024 290.179 181.308 289.7C184.202 288.888 187.069 290.801 189.942 291.691C193.585 292.821 197.581 292.284 201.154 290.928C204.726 289.573 207.938 287.462 211.122 285.358C210.652 291.853 210.499 298.36 210.663 304.879L215.203 305.063L226.831 253.899C226.831 253.899 206.943 276.999 197.249 283.897L178.653 279.11C178.653 279.11 176.902 280.564 173.217 281.299C173.217 281.299 171.53 287.787 162.041 287.801C152.553 287.815 138.948 286.544 138.948 286.544L139.943 294.889Z" fill="#1FC29D"/>
<path opacity="0.5" d="M139.943 294.889C146.488 296.139 152.192 297.219 158.857 297.141C165.522 297.064 172.328 295.567 177.778 291.747C178.831 290.871 180.024 290.179 181.308 289.7C184.202 288.888 187.069 290.801 189.942 291.691C193.585 292.821 197.581 292.284 201.154 290.928C204.726 289.573 207.938 287.462 211.122 285.358C210.652 291.853 210.499 298.36 210.663 304.879L215.203 305.063L226.831 253.899C226.831 253.899 206.943 276.999 197.249 283.897L178.653 279.11C178.653 279.11 176.902 280.564 173.217 281.299C173.217 281.299 171.53 287.787 162.041 287.801C152.553 287.815 138.948 286.544 138.948 286.544L139.943 294.889Z" fill="white"/>
<path d="M120.888 199.424C120.888 199.424 112.254 241.339 112.692 255.734C112.692 255.734 124.425 252.444 132.615 255.734C132.615 255.734 118.679 254.181 112.678 260.57C106.677 266.96 125.146 283.748 162.098 280.338C162.098 280.338 169.468 282.647 173.21 281.292C173.21 281.292 172.208 287.97 162.034 287.794C151.903 287.391 122.265 287.144 106.91 273.843C106.917 273.85 104.982 235.317 120.888 199.424Z" fill="#1FC29D"/>
<path opacity="0.6" d="M120.888 199.424C120.888 199.424 112.254 241.339 112.692 255.734C112.692 255.734 124.425 252.444 132.615 255.734C132.615 255.734 118.679 254.181 112.678 260.57C106.677 266.96 125.146 283.748 162.098 280.338C162.098 280.338 169.468 282.647 173.21 281.292C173.21 281.292 172.208 287.97 162.034 287.794C151.903 287.391 122.265 287.144 106.91 273.843C106.917 273.85 104.982 235.317 120.888 199.424Z" fill="white"/>
<path d="M138.546 207.458C138.546 207.458 141.094 226.019 145.21 229.902C149.326 233.785 168.508 232.514 176.105 236.701C176.105 236.701 183.256 224.31 196.19 216.558L178.653 244.17L163.496 240.591L144.991 237.767L143.438 241.339H140.656C140.656 241.339 140.346 221.529 138.546 207.458Z" fill="#1FC29D"/>
<path opacity="0.5" d="M138.546 207.458C138.546 207.458 141.094 226.019 145.21 229.902C149.326 233.785 168.508 232.514 176.105 236.701C176.105 236.701 183.256 224.31 196.19 216.558L178.653 244.17L163.496 240.591L144.991 237.767L143.438 241.339H140.656C140.656 241.339 140.346 221.529 138.546 207.458Z" fill="white"/>
<path d="M211.045 169.652C218.973 174.318 219.863 179.578 221.493 183.334C217.37 184.153 213.106 185.028 209.703 187.492C205.467 190.571 203.173 195.668 201.394 200.617C199.711 205.3 198.296 210.076 197.158 214.921C200.99 207.998 206.437 202.103 213.035 197.736C216.841 195.223 221.543 193.197 225.885 194.616C222.242 196.162 218.119 198.252 217.349 202.135C217.198 202.779 217.225 203.453 217.427 204.083C218.076 205.912 220.35 206.406 222.072 207.296C225.433 209.025 227.184 212.944 227.332 216.742C227.48 220.54 226.315 224.211 225.165 227.805C224.153 230.954 223.141 234.103 222.129 237.251C220.837 241.275 219.524 245.356 217.187 248.886C214.85 252.416 211.341 255.374 207.169 256.066C205.424 256.403 203.619 256.198 201.994 255.48C200.762 254.811 199.617 253.993 198.584 253.045C193.578 249.002 187.563 246.404 181.188 245.533C189.392 250.955 193.275 260.803 196.677 270.031C195.115 267.296 192.863 265.017 190.147 263.423C189.451 262.938 188.623 262.677 187.775 262.674C185.544 262.851 184.838 265.696 183.496 267.475C181.887 269.593 178.943 270.349 176.302 270.01C173.662 269.671 171.233 268.435 168.861 267.186L138.849 251.71L136.731 258.064C136.731 258.064 160.636 277.126 197.263 283.868C197.263 283.868 221.056 265.068 229.485 248.399C237.915 231.73 251.011 197.567 251.011 197.567C251.011 197.567 246.217 188.488 238 183.751C238 183.751 231.865 180.849 230.573 177.262C229.281 173.676 217.752 167.484 217.752 167.484C217.752 167.484 219.248 171.311 211.045 169.652Z" fill="#1FC29D"/>
<path opacity="0.6" d="M211.045 169.652C218.973 174.318 219.863 179.578 221.493 183.334C217.37 184.153 213.106 185.028 209.703 187.492C205.467 190.571 203.173 195.668 201.394 200.617C199.711 205.3 198.296 210.076 197.158 214.921C200.99 207.998 206.437 202.103 213.035 197.736C216.841 195.223 221.543 193.197 225.885 194.616C222.242 196.162 218.119 198.252 217.349 202.135C217.198 202.779 217.225 203.453 217.427 204.083C218.076 205.912 220.35 206.406 222.072 207.296C225.433 209.025 227.184 212.944 227.332 216.742C227.48 220.54 226.315 224.211 225.165 227.805C224.153 230.954 223.141 234.103 222.129 237.251C220.837 241.275 219.524 245.356 217.187 248.886C214.85 252.416 211.341 255.374 207.169 256.066C205.424 256.403 203.619 256.198 201.994 255.48C200.762 254.811 199.617 253.993 198.584 253.045C193.578 249.002 187.563 246.404 181.188 245.533C189.392 250.955 193.275 260.803 196.677 270.031C195.115 267.296 192.863 265.017 190.147 263.423C189.451 262.938 188.623 262.677 187.775 262.674C185.544 262.851 184.838 265.696 183.496 267.475C181.887 269.593 178.943 270.349 176.302 270.01C173.662 269.671 171.233 268.435 168.861 267.186L138.849 251.71L136.731 258.064C136.731 258.064 160.636 277.126 197.263 283.868C197.263 283.868 221.056 265.068 229.485 248.399C237.915 231.73 251.011 197.567 251.011 197.567C251.011 197.567 246.217 188.488 238 183.751C238 183.751 231.865 180.849 230.573 177.262C229.281 173.676 217.752 167.484 217.752 167.484C217.752 167.484 219.248 171.311 211.045 169.652Z" fill="white"/>
<path d="M208.524 104.664C208.524 104.664 210.127 85.9766 202.071 84.1905C194.016 82.4043 189.49 75.0125 189.49 75.0125L160.911 82.9903L156.478 100.174L159.302 108.872C159.302 108.872 159.895 116.942 160.008 120.931C160.121 124.92 160.008 127.991 163.029 132.834C166.051 137.677 168.861 142.485 175.392 146.671V157.678C175.392 157.678 171.353 169.461 173.584 176.691C173.584 176.691 174.919 178.103 178.604 175.985C182.289 173.867 198.054 163.333 203.554 152.334L205.262 124.369C205.262 124.369 209.802 125.075 211.758 120.938C214.631 116.892 214.518 112.176 213.403 108.336C212.287 104.495 207.486 106.98 207.486 106.98L208.524 104.664Z" fill="white"/>
<path d="M175.702 132.064C176.51 131.184 177.506 130.498 178.616 130.055C179.726 129.613 180.921 129.426 182.113 129.509C182.113 129.509 185.551 124.08 189.173 125.075C189.173 125.075 190.288 130.829 185.946 133.095C180.298 136.039 175.702 132.064 175.702 132.064Z" fill="white"/>
<path d="M165.084 80.6111C165.084 80.6111 158.243 89.5985 158.638 98.9671C159.034 108.336 160.396 114.979 160.001 122.209C159.605 129.438 167.23 141.546 175.046 146.424C180.884 150.074 188.205 149.453 193.889 145.718C200.243 141.482 203.737 133.872 205.015 126.565C205.142 125.859 205.241 125.153 205.312 124.39" stroke="#263238" stroke-width="0.706" stroke-linecap="round" stroke-linejoin="round"/>
<path d="M175.046 146.432C175.046 146.432 176.154 156.556 175.046 160.022C173.824 163.827 172.349 172.688 173.634 176.691C174.919 180.694 198.958 163.87 203.603 152.327C203.603 152.327 204.246 129.897 205.848 124.291" stroke="#263238" stroke-width="0.706" stroke-linecap="round" stroke-linejoin="round"/>
<path d="M174.382 131.817C174.382 131.817 185.318 134.91 189.794 123.621" stroke="#263238" stroke-width="0.706" stroke-linecap="round" stroke-linejoin="round"/>
<path d="M175.265 148.867C175.265 148.867 177.594 156.09 182.621 156.52C187.648 156.951 200.222 146.876 204.507 135.008V129.071C204.507 129.071 200.977 144.603 190.641 147.427C180.305 150.251 175.469 146.657 175.469 146.657L175.265 148.867Z" fill="#263238"/>
<path d="M189.166 125.075C184.308 124.736 182.106 129.509 182.106 129.509C180.909 129.363 179.694 129.52 178.574 129.967C177.453 130.413 176.464 131.135 175.695 132.064C176.892 133.138 178.363 133.858 179.945 134.145C181.527 134.431 183.157 134.273 184.654 133.688C190.175 131.768 189.166 125.075 189.166 125.075Z" stroke="#263238" stroke-width="0.706" stroke-linecap="round" stroke-linejoin="round"/>
<path d="M176.987 103.782C177.047 106.022 176.948 108.263 176.691 110.489C176.429 112.487 175.505 114.4 174.735 116.278C174.029 117.987 172.85 120.613 173.831 122.413C174.947 124.454 178.653 122.413 178.653 122.413" stroke="#263238" stroke-width="0.706" stroke-linecap="round" stroke-linejoin="round"/>
<path d="M180.934 121.99C182.183 122.159 183.955 121.99 184.308 119.822" stroke="#263238" stroke-width="0.706" stroke-linecap="round" stroke-linejoin="round"/>
<path d="M184.972 101.085C186.18 99.9328 187.786 99.2899 189.455 99.2899C191.125 99.2899 192.73 99.9328 193.938 101.085" stroke="#263238" stroke-width="1.412" stroke-linecap="round" stroke-linejoin="round"/>
<path d="M170.725 102.85C170.725 102.85 167.414 98.6141 163.079 102.85" stroke="#263238" stroke-width="1.412" stroke-linecap="round" stroke-linejoin="round"/>
<path d="M202.714 113.56C202.714 113.56 206.491 104.488 211.419 106.437C214.815 107.785 215.019 113.645 213.219 117.733C211.419 121.82 210.515 125.986 204.514 123.656" stroke="#263238" stroke-width="0.706" stroke-linecap="round" stroke-linejoin="round"/>
<path d="M203.384 112.169C203.384 112.169 199.756 110.884 199.085 104.989C198.414 99.0941 202.029 93.192 200.688 88.956C199.346 84.72 188.777 86.838 186.37 79.4532C186.37 79.4532 178.434 85.3695 163.072 84.0987C163.072 84.0987 159.831 89.6196 159.267 92.9943C158.51 98.2708 158.529 103.629 159.323 108.9C159.323 109.084 159.387 109.261 159.422 109.444C160.523 115.191 155.038 101.622 155.186 95.8253C155.334 90.0291 151.839 82.6655 156.393 77.1799C160.947 71.6943 177.644 68.482 180.934 65.9051C184.224 63.3282 190.62 70.1905 198.012 72.718C205.404 75.2455 211.532 78.2601 210.6 88.7442C209.668 99.2283 210.649 100.633 210.692 106.154C210.692 106.168 207.275 104.883 203.384 112.169Z" fill="#263238"/>
<path d="M189.469 108.724C189.469 110.136 188.926 111.308 188.248 111.308C187.57 111.308 187.034 110.15 187.034 108.724C187.034 107.298 187.577 106.147 188.248 106.147C188.919 106.147 189.469 107.312 189.469 108.724Z" fill="#263238"/>
<path d="M170.725 108.724C170.725 110.136 170.181 111.308 169.511 111.308C168.84 111.308 168.296 110.15 168.296 108.724C168.296 107.298 168.84 106.147 169.511 106.147C170.181 106.147 170.725 107.312 170.725 108.724Z" fill="#263238"/>
<path d="M184.972 112.169C184.972 112.169 187.492 114.845 190.684 115.226" stroke="#263238" stroke-width="0.706" stroke-linecap="round" stroke-linejoin="round"/>
<path d="M167.802 115.226C167.802 115.226 172.412 114.902 173.45 112.169" stroke="#263238" stroke-width="0.706" stroke-linecap="round" stroke-linejoin="round"/>
<path d="M178.519 178.406C181.95 176.225 186.49 177.044 190.246 178.59C192.307 179.444 194.27 180.517 196.325 181.414C197.34 181.863 198.388 182.236 199.459 182.529C202.036 183.2 201.111 180.002 200.963 178.569C200.751 176.514 200.603 174.453 200.356 172.412C200.254 171.99 200.304 171.545 200.497 171.156C200.75 170.841 201.105 170.624 201.5 170.541C206.025 169.129 210.903 169.751 215.62 169.835C216.048 169.886 216.481 169.805 216.862 169.602C217.568 169.143 217.49 168.106 217.3 167.287C215.669 160.311 209.915 153.371 203.66 149.884" stroke="#263238" stroke-width="0.706" stroke-linecap="round" stroke-linejoin="round"/>
<path d="M175.441 151.013C172.328 152.312 169.129 153.661 166.447 155.652C165.473 156.362 164.577 157.171 163.771 158.066C163.122 158.684 162.714 159.512 162.62 160.403C162.637 160.818 162.747 161.223 162.942 161.589C163.136 161.956 163.409 162.274 163.743 162.521C164.216 162.911 164.738 163.239 165.296 163.496C166.595 164.11 168.12 164.71 168.671 166.016C168.804 166.29 168.853 166.597 168.812 166.898C168.742 167.163 168.606 167.406 168.416 167.604C167.343 168.911 165.451 169.92 165.592 171.607C165.684 172.914 167.004 173.725 168.176 174.304C169.348 174.883 170.718 175.483 171.12 176.733" stroke="#263238" stroke-width="0.706" stroke-linecap="round" stroke-linejoin="round"/>
<path d="M157.007 84.8118C157.466 81.9878 160.417 80.1663 163.255 79.7074C166.094 79.2485 169.009 79.7074 171.869 79.4603C174.26 79.224 176.573 78.4771 178.651 77.2701C180.728 76.0631 182.523 74.4241 183.913 72.4639" stroke="white" stroke-width="0.706" stroke-linecap="round" stroke-linejoin="round"/>
<path d="M160.22 76.8763C165.345 73.8476 172.546 76.9963 177.545 73.7628C178.959 72.733 180.191 71.4729 181.188 70.0352" stroke="white" stroke-width="0.706" stroke-linecap="round" stroke-linejoin="round"/>
<path d="M225.602 192.738C207.246 196.402 200.398 209.908 200.398 209.908L178.653 244.156" stroke="#263238" stroke-width="0.706" stroke-linecap="round" stroke-linejoin="round"/>
<path d="M210.084 189.039C211.607 187.628 213.333 186.452 215.203 185.551" stroke="#263238" stroke-width="0.706" stroke-linecap="round" stroke-linejoin="round"/>
<path d="M197.249 214.892C197.249 214.892 199.565 202.523 206.216 193.409" stroke="#263238" stroke-width="0.706" stroke-linecap="round" stroke-linejoin="round"/>
<path d="M140.656 241.283C140.656 241.283 139.703 203.391 136.42 197.602" stroke="#263238" stroke-width="0.706" stroke-linecap="round" stroke-linejoin="round"/>
<path d="M217.328 167.273C217.328 167.273 227.918 173.627 232.62 179.599C237.322 185.572 248.434 189.54 250.976 197.602C250.976 197.602 236.341 243.718 221.006 260.387C205.672 277.056 197.228 283.897 197.228 283.897C197.228 283.897 160.34 277.486 136.413 257.393L144.97 237.731C144.97 237.731 169.094 240.781 178.632 244.17C188.17 247.559 197.228 268.082 197.228 268.082" stroke="#263238" stroke-width="0.706" stroke-linecap="round" stroke-linejoin="round"/>
<path d="M178.653 244.17C178.653 244.17 195.541 247.453 201.026 255.141" stroke="#263238" stroke-width="0.706" stroke-linecap="round" stroke-linejoin="round"/>
<path d="M227.247 252.077L215.203 305.063H141.461L138.948 286.544" stroke="#263238" stroke-width="0.706" stroke-linecap="round" stroke-linejoin="round"/>
<path d="M173.217 281.299C169.144 289.644 163.771 287.801 163.771 287.801C122.223 289.375 106.917 273.85 106.917 273.85C106.917 273.85 104.799 252.014 112.967 222.545C121.136 193.077 136.435 167.273 136.435 167.273C143.219 162.761 158.356 159.238 162.627 158.306L163.771 158.066" stroke="#263238" stroke-width="0.706" stroke-linecap="round" stroke-linejoin="round"/>
<path d="M163.792 287.801C163.792 287.801 161.596 287.441 162.154 272.883" stroke="#263238" stroke-width="0.706" stroke-linecap="round" stroke-linejoin="round"/>
<path d="M137.557 258.326C137.557 258.326 127.179 254.668 114.323 263.564" stroke="#263238" stroke-width="0.706" stroke-linecap="round" stroke-linejoin="round"/>
<path d="M116.652 255.141C116.652 255.141 130.25 251.096 136.42 257.577" stroke="#263238" stroke-width="0.706" stroke-linecap="round" stroke-linejoin="round"/>
<path d="M134.952 257.21L136.717 258.092L143.438 241.304C143.438 241.304 136.477 240.167 125.449 253.899C128.893 253.939 132.229 255.101 134.952 257.21Z" fill="white" stroke="#263238" stroke-width="0.706" stroke-miterlimit="10"/>
<path d="M162.133 272.883V280.346C162.133 280.346 171.643 283.17 178.682 279.11L162.133 272.883Z" fill="white" stroke="#263238" stroke-width="0.706" stroke-miterlimit="10"/>
<path d="M213.678 169.758C213.685 169.896 213.671 170.034 213.636 170.167C213.339 171.332 206.088 198.704 182.882 210.882C182.68 210.99 182.455 211.046 182.226 211.045C181.91 211.044 181.604 210.939 181.355 210.744C181.107 210.549 180.931 210.277 180.856 209.971C180.78 209.664 180.809 209.342 180.939 209.054C181.068 208.766 181.29 208.53 181.569 208.383C202.749 197.278 210.211 171.967 210.861 169.638L213.678 169.758Z" fill="#263238"/>
<path d="M163.743 162.5C160.074 170.879 158.095 179.9 157.918 189.046C157.918 189.787 157.918 190.542 157.918 191.312C157.918 191.503 157.918 191.693 157.918 191.884C157.707 191.891 157.498 191.912 157.29 191.947C156.526 192.068 155.785 192.306 155.094 192.653C155.094 191.615 155.094 190.606 155.094 189.61C155.398 173.768 160.128 162.987 162.648 158.328L163.792 158.088C163.143 158.705 162.735 159.533 162.641 160.424C162.662 160.83 162.772 161.226 162.962 161.584C163.152 161.943 163.419 162.255 163.743 162.5Z" fill="#263238"/>
<path d="M191.545 204.514C193.197 206.809 191.841 210.621 188.509 213.028C185.177 215.436 181.138 215.521 179.479 213.226C177.82 210.932 179.176 207.119 182.508 204.712C185.84 202.304 189.914 202.22 191.545 204.514Z" fill="white" stroke="#263238" stroke-width="0.706" stroke-linecap="round" stroke-linejoin="round"/>
<path d="M187.436 203.152C188.608 204.775 187.648 207.472 185.318 209.174C182.988 210.875 180.101 210.939 178.964 209.315C177.827 207.691 178.752 204.994 181.082 203.293C183.412 201.591 186.264 201.535 187.436 203.152Z" fill="white" stroke="#263238" stroke-width="0.706" stroke-linecap="round" stroke-linejoin="round"/>
<path d="M168.776 231.808C168.476 232.008 168.11 232.085 167.754 232.024C167.398 231.962 167.079 231.766 166.863 231.477C166.647 231.188 166.55 230.827 166.592 230.468C166.634 230.109 166.812 229.78 167.089 229.549C167.209 229.45 171.946 225.419 169.871 211.842C169.694 210.692 169.468 209.463 169.165 208.171C168.268 204.055 166.884 198.845 164.053 195.018C163.38 194.009 162.457 193.19 161.375 192.641C160.293 192.092 159.088 191.831 157.876 191.884C157.665 191.891 157.455 191.912 157.247 191.947C156.483 192.068 155.743 192.306 155.052 192.653C152.943 193.743 151.342 195.612 150.59 197.864L150.336 198.57C148.735 202.899 147.426 207.331 146.417 211.835C145.288 217.377 144.907 223.188 146.912 227.247C147.449 228.361 148.214 229.35 149.158 230.149C150.102 230.948 151.203 231.54 152.39 231.886C152.709 231.99 152.98 232.205 153.155 232.492C153.329 232.778 153.396 233.117 153.344 233.449C153.291 233.78 153.122 234.082 152.867 234.3C152.612 234.518 152.288 234.638 151.952 234.639C151.804 234.639 151.656 234.615 151.515 234.569C149.971 234.105 148.54 233.326 147.312 232.281C146.085 231.236 145.088 229.947 144.384 228.497C142.125 223.929 142.421 217.709 143.565 211.835C144.579 207.005 145.953 202.257 147.674 197.631L147.928 196.925C148.483 195.244 149.413 193.712 150.647 192.444C151.881 191.175 153.387 190.204 155.052 189.603C155.628 189.404 156.221 189.257 156.824 189.166C157.184 189.116 157.53 189.081 157.897 189.06C159.549 189.014 161.187 189.384 162.66 190.135C164.132 190.886 165.393 191.995 166.327 193.359C169.475 197.595 170.972 203.194 171.925 207.585C172.257 209.096 172.511 210.515 172.702 211.856C174.933 227.078 169.052 231.61 168.776 231.808Z" fill="#263238" stroke="#263238" stroke-width="0.706" stroke-miterlimit="10"/>
<path d="M150.964 234.392C150.964 234.392 156.083 236.51 157.382 234.392C158.681 232.274 157.629 231.279 155.857 231.109C154.09 231.019 152.321 231.019 150.555 231.109L150.964 234.392Z" fill="#263238" stroke="#263238" stroke-width="0.706" stroke-miterlimit="10"/>
<path d="M153.315 233.686C153.223 233.969 153.043 234.216 152.802 234.391C152.561 234.566 152.271 234.66 151.974 234.66C151.825 234.66 151.677 234.636 151.536 234.59C149.992 234.126 148.561 233.347 147.333 232.302C146.106 231.257 145.109 229.968 144.405 228.518C142.146 223.95 142.443 217.73 143.586 211.856H146.41C145.281 217.399 144.899 223.209 146.904 227.268C147.442 228.382 148.207 229.371 149.151 230.17C150.095 230.969 151.196 231.561 152.383 231.907C152.562 231.962 152.728 232.051 152.871 232.17C153.015 232.29 153.134 232.436 153.22 232.602C153.307 232.767 153.36 232.948 153.376 233.134C153.393 233.321 153.372 233.508 153.315 233.686Z" fill="white" stroke="#263238" stroke-width="0.706" stroke-linecap="round" stroke-linejoin="round"/>
<path d="M164.06 230.276C163.848 230.529 163.69 230.823 163.599 231.141C163.508 231.458 163.485 231.792 163.531 232.119C163.672 232.602 163.978 233.021 164.396 233.302C164.814 233.583 165.317 233.709 165.818 233.658C166.821 233.524 167.738 233.021 168.388 232.246C169.094 231.455 171.544 226.28 169.278 227.17C167.633 227.791 165.162 228.843 164.06 230.276Z" fill="#263238" stroke="#263238" stroke-width="0.706" stroke-miterlimit="10"/>
<path d="M168.776 231.808C168.476 232.008 168.11 232.085 167.754 232.024C167.398 231.962 167.079 231.767 166.863 231.477C166.647 231.188 166.55 230.827 166.592 230.468C166.634 230.109 166.812 229.78 167.089 229.549C167.209 229.45 171.946 225.419 169.871 211.842H172.695C174.933 227.078 169.052 231.61 168.776 231.808Z" fill="white" stroke="#263238" stroke-width="0.706" stroke-linecap="round" stroke-linejoin="round"/>
<path opacity="0.2" d="M181.442 107.023C181.442 107.023 190.331 102.405 198.499 107.023C198.499 107.023 198.633 113.835 195.548 116.638C194.454 117.634 189.441 117.803 187.542 117.634C179.832 116.935 181.442 107.023 181.442 107.023Z" fill="white"/>
<path opacity="0.2" d="M175.865 107.023C175.865 107.023 166.976 102.405 158.815 107.023C158.815 107.023 158.681 113.835 161.759 116.638C162.853 117.634 167.873 117.803 169.765 117.634C177.474 116.935 175.865 107.023 175.865 107.023Z" fill="white"/>
<path d="M181.442 107.023C181.442 107.023 190.331 102.405 198.499 107.023C198.499 107.023 198.633 113.835 195.548 116.638C194.454 117.634 189.441 117.803 187.542 117.634C179.832 116.935 181.442 107.023 181.442 107.023Z" stroke="#263238" stroke-width="0.706" stroke-miterlimit="10"/>
<path d="M175.865 107.023C175.865 107.023 166.976 102.405 158.815 107.023C158.815 107.023 158.681 113.835 161.759 116.638C162.853 117.634 167.873 117.803 169.765 117.634C177.474 116.935 175.865 107.023 175.865 107.023Z" stroke="#263238" stroke-width="0.706" stroke-miterlimit="10"/>
<path d="M175.865 107.023C175.865 107.023 177.856 105.561 181.442 107.023" stroke="#263238" stroke-width="0.706" stroke-miterlimit="10"/>
<path d="M198.499 107.022L202.213 108.745" stroke="#263238" stroke-width="0.706" stroke-miterlimit="10"/>
<path d="M56.3529 323.856L82.4819 299.175H289.862L305.564 323.856H56.3529Z" fill="white" stroke="#263238" stroke-width="0.706" stroke-linecap="round" stroke-linejoin="round"/>
<path d="M305.564 323.856H56.3528V330.5H305.564V323.856Z" fill="#263238" stroke="#263238" stroke-width="0.706" stroke-linecap="round" stroke-linejoin="round"/>
<path d="M82.482 317.756V312.638H123.43V317.756H115.53H82.482Z" fill="white" stroke="#263238" stroke-width="0.706" stroke-miterlimit="10"/>
<path d="M82.4819 312.638L106.669 296.414L138.948 297.177L123.43 312.638H82.4819Z" fill="white" stroke="#263238" stroke-width="0.706" stroke-linecap="round" stroke-linejoin="round"/>
<path d="M123.43 317.756L138.948 302.21V297.177L123.43 312.638V317.756Z" fill="white" stroke="#263238" stroke-width="0.706" stroke-linecap="round" stroke-linejoin="round"/>
<path d="M122.322 311.346C122.322 311.346 119.053 311.995 119.053 314.827C119.053 317.658 121.877 318.491 121.877 318.491" stroke="#263238" stroke-width="1.412" stroke-linecap="round" stroke-linejoin="round"/>
<path d="M119.053 311.346C119.053 311.346 115.784 311.995 115.784 314.827C115.784 317.658 118.608 318.491 118.608 318.491" stroke="#263238" stroke-width="1.412" stroke-linecap="round" stroke-linejoin="round"/>
<path d="M115.784 311.346C115.784 311.346 112.515 311.995 112.515 314.827C112.515 317.658 115.339 318.491 115.339 318.491" stroke="#263238" stroke-width="1.412" stroke-linecap="round" stroke-linejoin="round"/>
<path d="M112.515 311.346C112.515 311.346 109.246 311.995 109.246 314.827C109.246 317.658 112.07 318.491 112.07 318.491" stroke="#263238" stroke-width="1.412" stroke-linecap="round" stroke-linejoin="round"/>
<path d="M109.246 311.346C109.246 311.346 105.978 311.995 105.978 314.827C105.978 317.658 108.802 318.491 108.802 318.491" stroke="#263238" stroke-width="1.412" stroke-linecap="round" stroke-linejoin="round"/>
<path d="M105.978 311.346C105.978 311.346 102.709 311.995 102.709 314.827C102.709 317.658 105.533 318.491 105.533 318.491" stroke="#263238" stroke-width="1.412" stroke-linecap="round" stroke-linejoin="round"/>
<path d="M102.709 311.346C102.709 311.346 99.4401 311.995 99.4401 314.827C99.4401 317.658 102.264 318.491 102.264 318.491" stroke="#263238" stroke-width="1.412" stroke-linecap="round" stroke-linejoin="round"/>
<path d="M99.4401 311.346C99.4401 311.346 96.1713 311.995 96.1713 314.827C96.1713 317.658 98.9953 318.491 98.9953 318.491" stroke="#263238" stroke-width="1.412" stroke-linecap="round" stroke-linejoin="round"/>
<path d="M95.7689 311.346C95.7689 311.346 92.5001 311.995 92.5001 314.827C92.5001 317.658 95.3241 318.491 95.3241 318.491" stroke="#263238" stroke-width="1.412" stroke-linecap="round" stroke-linejoin="round"/>
<path d="M92.0906 311.346C92.0906 311.346 88.8218 311.995 88.8218 314.827C88.8218 317.658 91.6458 318.491 91.6458 318.491" stroke="#263238" stroke-width="1.412" stroke-linecap="round" stroke-linejoin="round"/>
<path d="M88.0028 311.346C88.0028 311.346 84.734 311.995 84.734 314.827C84.734 317.658 87.558 318.491 87.558 318.491" stroke="#263238" stroke-width="1.412" stroke-linecap="round" stroke-linejoin="round"/>
<path d="M108.724 300.389C106.469 301.633 104.682 303.579 103.634 305.931C106.606 304.992 108.957 302.874 111.209 300.756L108.766 306.813C109.891 306.722 110.978 306.367 111.94 305.777C112.901 305.187 113.71 304.379 114.301 303.418C114.108 303.501 113.934 303.625 113.792 303.78C113.649 303.935 113.541 304.119 113.474 304.319C113.408 304.519 113.384 304.73 113.405 304.94C113.426 305.15 113.491 305.353 113.595 305.536C115.643 305.239 116.949 303.262 117.98 301.469C118.169 302.467 118.242 303.483 118.198 304.498C119.911 304.743 121.657 304.521 123.253 303.855" stroke="#263238" stroke-width="0.5295" stroke-linecap="round" stroke-linejoin="round"/>
<path d="M288.479 274.45H217.307V313.528H288.479V274.45Z" fill="white" stroke="#263238" stroke-width="0.706" stroke-linecap="round" stroke-linejoin="round"/>
<path d="M217.031 313.521L205.587 302.641V263.564L217.031 274.45V313.521Z" fill="white" stroke="#263238" stroke-width="0.706" stroke-linecap="round" stroke-linejoin="round"/>
<path d="M288.479 274.45L277.034 263.564H205.87L217.307 274.45H288.479Z" fill="white" stroke="#263238" stroke-width="0.706" stroke-linecap="round" stroke-linejoin="round"/>
<path d="M262.307 289.107H256.017V282.527H247.149V289.107H240.287V297.974H247.149V304.547H256.017V297.974H262.307V289.107Z" fill="#1FC29D" stroke="#263238" stroke-width="0.706" stroke-miterlimit="10"/>
<path d="M252.275 274.45L240.831 263.564" stroke="#263238" stroke-width="0.706" stroke-linecap="round" stroke-linejoin="round"/>
</svg>
