<svg width="353" height="353" viewBox="0 0 353 353" fill="none" xmlns="http://www.w3.org/2000/svg">
<path d="M302.217 171.939C299.64 151.197 293.414 131.344 285.979 117.316C268.174 83.5974 219.086 63.2929 182.197 71.546C150.787 78.606 135.891 110.454 107.608 122.922C81.5994 134.387 58.1885 143.438 46.0453 170.224C20.4739 226.915 84.5929 283.275 139.138 275.269C156.351 272.742 171.692 264.679 189.392 266.946C225.306 271.577 237.301 278.171 268.901 262.632C300.05 247.312 306.729 208.27 302.217 171.939Z" fill="#1FC29D"/>
<path opacity="0.8" d="M302.217 171.939C299.64 151.197 293.414 131.344 285.979 117.316C268.174 83.5974 219.086 63.2929 182.197 71.546C150.787 78.606 135.891 110.454 107.608 122.922C81.5994 134.387 58.1885 143.438 46.0453 170.224C20.4739 226.915 84.5929 283.275 139.138 275.269C156.351 272.742 171.692 264.679 189.392 266.946C225.306 271.577 237.301 278.171 268.901 262.632C300.05 247.312 306.729 208.27 302.217 171.939Z" fill="white"/>
<path d="M287.339 308.127H53.4186L100.205 285.519H240.553L287.339 308.127Z" fill="#263238" stroke="#263238" stroke-width="1.05398" stroke-linecap="round" stroke-linejoin="round"/>
<path d="M166.174 148.512C166.174 148.512 167.122 162.857 165.794 165.313C164.466 167.768 156.171 169.655 151.26 170.414C146.348 171.173 139.371 171.542 137.484 174.946C135.598 178.35 135.966 186.087 138.422 191.936C140.878 197.786 152.398 228.183 152.398 228.183L137.642 263.67C137.642 263.67 158.227 288.597 170.874 292.18C183.522 295.764 200.512 283.306 204.286 278.205C206.586 274.987 207.957 271.198 208.249 267.254L193.735 226.296C193.735 226.296 206.92 194.908 207.869 188.49C208.818 182.071 209.408 174.619 204.707 172.543C200.006 170.467 189.951 169.086 186.958 167.579C183.965 166.071 182.805 165.313 182.616 161.35C182.426 157.387 182.805 148.702 182.805 148.702C182.805 148.702 170.895 151.158 166.174 148.512Z" fill="white"/>
<mask id="mask0_619_4638" style="mask-type:luminance" maskUnits="userSpaceOnUse" x="136" y="148" width="73" height="145">
<path d="M166.174 148.512C166.174 148.512 167.122 162.857 165.794 165.313C164.466 167.768 156.171 169.655 151.26 170.414C146.348 171.173 139.371 171.542 137.484 174.946C135.598 178.35 135.966 186.087 138.422 191.936C140.878 197.786 152.398 228.183 152.398 228.183L137.642 263.67C137.642 263.67 158.227 288.597 170.874 292.18C183.522 295.764 200.512 283.306 204.286 278.205C206.586 274.987 207.957 271.198 208.249 267.254L193.735 226.296C193.735 226.296 206.92 194.908 207.869 188.49C208.818 182.071 209.408 174.619 204.707 172.543C200.006 170.467 189.951 169.086 186.958 167.579C183.965 166.071 182.805 165.313 182.616 161.35C182.426 157.387 182.805 148.702 182.805 148.702C182.805 148.702 170.895 151.158 166.174 148.512Z" fill="white"/>
</mask>
<g mask="url(#mask0_619_4638)">
<path d="M182.594 161.35C182.405 157.387 182.784 148.702 182.784 148.702C182.784 148.702 170.895 151.158 166.173 148.512C166.173 148.512 166.932 160.106 166.173 164.227C168.243 165.54 170.587 166.359 173.024 166.619C176.576 167.083 180.402 165.903 183.322 164.701C182.852 163.646 182.605 162.505 182.594 161.35Z" fill="#1FC29D"/>
<path opacity="0.5" d="M182.594 161.35C182.405 157.387 182.784 148.702 182.784 148.702C182.784 148.702 170.895 151.158 166.173 148.512C166.173 148.512 166.932 160.106 166.173 164.227C168.243 165.54 170.587 166.359 173.024 166.619C176.576 167.083 180.402 165.903 183.322 164.701C182.852 163.646 182.605 162.505 182.594 161.35Z" fill="white"/>
<path d="M191.859 176.369L180.655 178.087C177.494 178.582 177.188 181.027 177.188 181.027" stroke="#263238" stroke-width="1.05398" stroke-linecap="round" stroke-linejoin="round"/>
<path d="M171.581 180.3C171.581 180.3 171.317 178.825 168.914 177.844C166.511 176.864 155.033 176.622 152.63 176.126" stroke="#263238" stroke-width="1.05398" stroke-linecap="round" stroke-linejoin="round"/>
</g>
<path d="M166.174 148.512C166.174 148.512 167.122 162.857 165.794 165.313C164.466 167.768 156.171 169.655 151.26 170.414C146.348 171.173 139.371 171.542 137.484 174.946C135.598 178.35 135.966 186.087 138.422 191.936C140.878 197.786 152.398 228.183 152.398 228.183L137.642 263.67C137.642 263.67 158.227 288.597 170.874 292.18C183.522 295.764 200.512 283.306 204.286 278.205C206.586 274.987 207.957 271.198 208.249 267.254L193.735 226.296C193.735 226.296 206.92 194.908 207.869 188.49C208.818 182.071 209.408 174.619 204.707 172.543C200.006 170.467 189.951 169.086 186.958 167.579C183.965 166.071 182.805 165.313 182.616 161.35C182.426 157.387 182.805 148.702 182.805 148.702C182.805 148.702 170.895 151.158 166.174 148.512Z" stroke="#263238" stroke-width="1.05398" stroke-linecap="round" stroke-linejoin="round"/>
<path d="M201.503 207.092C197.962 203.108 193.493 196.289 193.577 188.205C193.518 182.02 193.814 175.837 194.462 169.687C193.219 169.402 192.017 169.128 190.932 168.854C189.878 175.294 186.463 188.88 175.364 189.048C163.77 189.27 160.893 174.524 160.176 168.401C159.544 168.601 158.88 168.791 158.216 168.97C157.552 169.149 156.877 169.307 156.203 169.465C162.263 182.271 149.721 202.697 145.252 209.306C145.452 209.854 145.663 210.36 145.874 210.939C145.927 211.066 145.969 211.203 146.021 211.329C146.211 211.814 146.39 212.289 146.569 212.763L146.622 212.889C147.265 214.597 147.908 216.262 148.509 217.833C148.688 218.307 148.867 218.771 149.046 219.213L149.12 219.435L150.174 222.08C150.174 222.228 150.279 222.375 150.343 222.523L151.839 226.465L152.166 227.339L152.409 227.972L152.482 228.151L137.727 263.639C137.727 263.639 158.311 288.565 170.959 292.149C183.606 295.732 200.597 283.274 204.37 278.173C206.671 274.955 208.042 271.167 208.333 267.222L193.735 226.296C193.735 226.296 197.751 216.736 201.503 207.092Z" fill="#1FC29D"/>
<mask id="mask1_619_4638" style="mask-type:luminance" maskUnits="userSpaceOnUse" x="137" y="168" width="72" height="125">
<path d="M201.503 207.092C197.962 203.108 193.493 196.289 193.577 188.205C193.518 182.02 193.814 175.837 194.462 169.687C193.219 169.402 192.017 169.128 190.932 168.854C189.878 175.294 186.463 188.88 175.364 189.048C163.77 189.27 160.893 174.524 160.176 168.401C159.544 168.601 158.88 168.791 158.216 168.97C157.552 169.149 156.877 169.307 156.203 169.465C162.263 182.271 149.721 202.697 145.252 209.306C145.452 209.854 145.663 210.36 145.874 210.939C145.927 211.066 145.969 211.203 146.021 211.329C146.211 211.814 146.39 212.289 146.569 212.763L146.622 212.889C147.265 214.597 147.908 216.262 148.509 217.833C148.688 218.307 148.867 218.771 149.046 219.213L149.12 219.435L150.174 222.08C150.174 222.228 150.279 222.375 150.343 222.523L151.839 226.465L152.166 227.339L152.409 227.972L152.482 228.151L137.727 263.639C137.727 263.639 158.311 288.565 170.959 292.149C183.606 295.732 200.597 283.274 204.37 278.173C206.671 274.955 208.042 271.167 208.333 267.222L193.735 226.296C193.735 226.296 197.751 216.736 201.503 207.092Z" fill="white"/>
</mask>
<g mask="url(#mask1_619_4638)">
<path opacity="0.15" d="M193.735 226.296C193.735 226.296 197.751 216.736 201.503 207.093C200.64 206.115 199.828 205.095 199.068 204.036C198.193 204.766 197.448 205.639 196.865 206.618C196.865 206.618 194.568 213.258 190.542 216.831C186.515 220.404 179.57 218.613 175.227 218.107C170.885 217.601 165.025 221.68 160.946 214.028C156.951 206.555 153.452 201.528 149.499 202.434C147.971 205.122 146.538 207.356 145.484 208.937C145.484 209.137 145.399 209.348 145.368 209.559C145.537 210.002 145.705 210.455 145.884 210.908C145.937 211.034 145.979 211.171 146.032 211.298C146.222 211.783 146.401 212.257 146.58 212.731L146.633 212.858C147.276 214.565 147.918 216.231 148.519 217.801C148.698 218.275 148.878 218.739 149.057 219.182L149.131 219.403L150.185 222.049C150.185 222.196 150.29 222.344 150.353 222.491L151.85 226.433C151.976 226.781 152.092 227.066 152.177 227.308L152.419 227.94L152.493 228.12L144.735 246.596C144.735 247.06 145.01 247.144 145.568 246.68C148.372 244.393 154.748 240.051 159.86 243.624C164.972 247.197 168.787 254.079 177.462 250.253C186.136 246.427 186.947 238.006 192.776 239.028C195.016 239.493 197.157 240.349 199.1 241.558L193.735 226.296Z" fill="#3F3F3F"/>
</g>
<path d="M201.503 207.092C197.962 203.108 193.493 196.289 193.577 188.205C193.518 182.02 193.814 175.837 194.462 169.687C193.219 169.402 192.017 169.128 190.932 168.854C189.878 175.294 186.463 188.88 175.364 189.048C163.77 189.27 160.893 174.524 160.176 168.401C159.544 168.601 158.88 168.791 158.216 168.97C157.552 169.149 156.877 169.307 156.203 169.465C162.263 182.271 149.721 202.697 145.252 209.306C145.452 209.854 145.663 210.36 145.874 210.939C145.927 211.066 145.969 211.203 146.021 211.329C146.211 211.814 146.39 212.289 146.569 212.763L146.622 212.889C147.265 214.597 147.908 216.262 148.509 217.833C148.688 218.307 148.867 218.771 149.046 219.213L149.12 219.435L150.174 222.08C150.174 222.228 150.279 222.375 150.343 222.523L151.839 226.465L152.166 227.339L152.409 227.972L152.482 228.151L137.727 263.639C137.727 263.639 158.311 288.565 170.959 292.149C183.606 295.732 200.597 283.274 204.37 278.173C206.671 274.955 208.042 271.167 208.333 267.222L193.735 226.296C193.735 226.296 197.751 216.736 201.503 207.092Z" stroke="#263238" stroke-width="1.05398" stroke-linecap="round" stroke-linejoin="round"/>
<path d="M196.655 138.552C196.61 138.542 196.563 138.542 196.518 138.552C198.467 131.174 196.454 121.688 192.987 115.649C188.455 107.723 183.353 103.381 179.39 103.381C175.427 103.381 174.121 107.723 174.121 107.723C174.121 107.723 172.013 103.191 165.815 103.001C159.618 102.811 149.774 126.41 150.901 136.423C152.029 146.436 161.283 151.526 171.106 152.654C180.929 153.782 187.527 151.716 193.566 144.539C194.32 143.636 194.954 142.641 195.453 141.577C194.462 145.213 192.154 151.611 187.843 153.887C187.782 153.92 187.728 153.965 187.685 154.019C187.641 154.073 187.609 154.135 187.589 154.202C187.569 154.269 187.563 154.338 187.571 154.407C187.578 154.476 187.599 154.543 187.633 154.604C187.677 154.688 187.744 154.758 187.826 154.806C187.908 154.855 188.001 154.88 188.096 154.878C188.18 154.882 188.264 154.864 188.339 154.825C194.916 151.337 197.024 139.648 197.108 139.153C197.118 139.083 197.115 139.013 197.097 138.945C197.08 138.877 197.05 138.813 197.007 138.757C196.965 138.701 196.912 138.654 196.852 138.619C196.791 138.584 196.724 138.561 196.655 138.552Z" fill="#263238"/>
<path d="M169.704 108.956C169.704 108.956 165.847 105.099 162.695 110.706C159.544 116.313 150.048 132.839 153.578 138.773" stroke="white" stroke-width="1.05398" stroke-linecap="round" stroke-linejoin="round"/>
<path d="M176.018 110.706C176.018 110.706 177.072 107.207 182.342 107.902C187.612 108.598 195.516 122.848 196.043 130.7" stroke="white" stroke-width="1.05398" stroke-linecap="round" stroke-linejoin="round"/>
<path d="M161.072 136.054C161.072 136.054 159.755 132.892 158.627 136.244C157.499 139.595 159.945 142.663 161.072 143.622C162.2 144.581 162.97 142.873 162.59 141.735C162.211 140.597 161.072 136.054 161.072 136.054Z" fill="white" stroke="#263238" stroke-width="1.05398" stroke-linecap="round" stroke-linejoin="round"/>
<path d="M187.696 136.054C187.696 136.054 189.013 132.892 190.141 136.244C191.269 139.595 188.824 142.663 187.696 143.622C186.568 144.581 185.799 142.873 186.178 141.735C186.558 140.597 187.696 136.054 187.696 136.054Z" fill="white" stroke="#263238" stroke-width="1.05398" stroke-linecap="round" stroke-linejoin="round"/>
<path d="M172.592 109.43C172.592 109.43 168.819 110.758 165.046 117.926C161.182 125.081 159.962 133.369 161.599 141.335C163.296 149.461 169.346 154.172 175.196 154.551C181.045 154.931 186.895 147.174 188.033 140.966C189.171 134.758 186.147 120.571 182.552 114.721C181.508 113.038 180.035 111.662 178.286 110.733C176.536 109.803 174.572 109.354 172.592 109.43Z" fill="white"/>
<mask id="mask2_619_4638" style="mask-type:luminance" maskUnits="userSpaceOnUse" x="160" y="109" width="29" height="46">
<path d="M172.592 109.43C172.592 109.43 168.819 110.758 165.046 117.926C161.182 125.081 159.962 133.369 161.599 141.335C163.296 149.461 169.346 154.172 175.196 154.551C181.045 154.931 186.895 147.174 188.033 140.966C189.171 134.758 186.147 120.571 182.552 114.721C181.508 113.038 180.035 111.662 178.286 110.733C176.536 109.803 174.572 109.354 172.592 109.43Z" fill="white"/>
</mask>
<g mask="url(#mask2_619_4638)">
<path d="M186.684 129.309C186.684 138.341 186.094 148.28 178.252 150.873C170.411 153.466 166.016 145.34 163.971 138.341C162.232 132.365 163.476 123.375 164.034 120.086C160.986 126.731 160.134 134.173 161.6 141.334C163.296 149.461 169.346 154.172 175.196 154.551C181.045 154.931 186.895 147.174 188.033 140.966C188.676 137.424 187.981 131.343 186.6 125.672C186.663 126.79 186.684 127.991 186.684 129.309Z" fill="#1FC29D"/>
<path opacity="0.5" d="M186.684 129.309C186.684 138.341 186.094 148.28 178.252 150.873C170.411 153.466 166.016 145.34 163.971 138.341C162.232 132.365 163.476 123.375 164.034 120.086C160.986 126.731 160.134 134.173 161.6 141.334C163.296 149.461 169.346 154.172 175.196 154.551C181.045 154.931 186.895 147.174 188.033 140.966C188.676 137.424 187.981 131.343 186.6 125.672C186.663 126.79 186.684 127.991 186.684 129.309Z" fill="white"/>
<path d="M172.592 109.431C172.592 109.431 172.108 116.482 176.808 119.686C181.509 122.89 185.24 122.015 185.24 122.015C185.24 122.015 174.827 109.388 172.592 109.431Z" fill="#1FC29D"/>
<path opacity="0.5" d="M172.592 109.431C172.592 109.431 172.108 116.482 176.808 119.686C181.509 122.89 185.24 122.015 185.24 122.015C185.24 122.015 174.827 109.388 172.592 109.431Z" fill="white"/>
</g>
<path d="M172.592 109.43C172.592 109.43 168.819 110.758 165.046 117.926C161.182 125.081 159.962 133.369 161.599 141.335C163.296 149.461 169.346 154.172 175.196 154.551C181.045 154.931 186.895 147.174 188.033 140.966C189.171 134.758 186.147 120.571 182.552 114.721C181.508 113.038 180.035 111.662 178.286 110.733C176.536 109.803 174.572 109.354 172.592 109.43Z" stroke="#263238" stroke-width="1.05398" stroke-linecap="round" stroke-linejoin="round"/>
<path d="M175.807 128.318C175.586 129.057 175.586 129.845 175.807 130.584C176.176 131.712 178.821 131.901 178.073 133.409C177.585 134.338 176.857 135.121 175.965 135.675" stroke="#263238" stroke-width="1.05398" stroke-linecap="round" stroke-linejoin="round"/>
<path d="M173.91 140.586H176.555" stroke="#263238" stroke-width="1.05398" stroke-linecap="round" stroke-linejoin="round"/>
<path d="M178.463 129.446C178.463 129.446 180.919 127.938 182.995 129.446" stroke="#263238" stroke-width="1.05398" stroke-linecap="round" stroke-linejoin="round"/>
<path d="M166.173 129.446C166.173 129.446 168.629 127.938 170.706 129.446" stroke="#263238" stroke-width="1.05398" stroke-linecap="round" stroke-linejoin="round"/>
<path d="M164.477 124.914C165.334 124.08 166.414 123.512 167.586 123.278C168.759 123.044 169.974 123.155 171.085 123.596" stroke="#263238" stroke-width="1.05398" stroke-linecap="round" stroke-linejoin="round"/>
<path d="M177.125 123.786C177.125 123.786 179.96 121.52 183.543 124.165" stroke="#263238" stroke-width="1.05398" stroke-linecap="round" stroke-linejoin="round"/>
<path d="M172.592 109.431C175.23 112.628 178.067 115.656 181.088 118.495C182.323 119.653 183.779 120.551 185.369 121.136C186.959 121.721 188.65 121.98 190.341 121.899C190.341 121.899 187.18 114.911 181.657 111.138C176.134 107.365 172.592 109.431 172.592 109.431Z" fill="#263238" stroke="#263238" stroke-width="1.05398" stroke-linecap="round" stroke-linejoin="round"/>
<path d="M145.937 171.953C145.937 171.953 138.096 170.835 134.733 177.56C131.371 184.284 127.724 217.906 127.724 217.906C127.724 217.906 123.508 220.71 118.766 223.513C114.023 226.317 104.748 232.198 99.9941 233.885C95.2407 235.571 91.0247 236.962 91.0247 236.962C89.9314 235.082 88.9937 233.115 88.2211 231.081C87.9366 229.679 84.8589 229.121 83.4571 227.719C82.0553 226.317 80.0949 224.072 80.0949 226.317C80.0949 228.562 79.8104 229.953 82.0553 230.796C84.3003 231.64 85.9762 234.717 85.9762 234.717C85.9762 234.717 73.6551 234.58 74.4878 235.698C76.1564 237.915 78.253 239.775 80.6536 241.168C85.0643 243.489 89.9615 244.735 94.9455 244.804C99.9941 244.804 131.93 234.443 134.449 231.64C136.968 228.836 145.105 199.135 145.105 199.135" fill="white"/>
<mask id="mask3_619_4638" style="mask-type:luminance" maskUnits="userSpaceOnUse" x="74" y="171" width="72" height="74">
<path d="M145.937 171.953C145.937 171.953 138.096 170.835 134.733 177.56C131.371 184.284 127.724 217.906 127.724 217.906C127.724 217.906 123.508 220.71 118.766 223.513C114.023 226.317 104.748 232.198 99.9941 233.885C95.2407 235.571 91.0247 236.962 91.0247 236.962C89.9314 235.082 88.9937 233.115 88.2211 231.081C87.9366 229.679 84.8589 229.121 83.4571 227.719C82.0553 226.317 80.0949 224.072 80.0949 226.317C80.0949 228.562 79.8104 229.953 82.0553 230.796C84.3003 231.64 85.9762 234.717 85.9762 234.717C85.9762 234.717 73.6551 234.58 74.4878 235.698C76.1564 237.915 78.253 239.775 80.6536 241.168C85.0643 243.489 89.9615 244.735 94.9455 244.804C99.9941 244.804 131.93 234.443 134.449 231.64C136.968 228.836 145.105 199.135 145.105 199.135" fill="white"/>
</mask>
<g mask="url(#mask3_619_4638)">
<path d="M88.6217 244.066C90.6982 244.532 92.8177 244.779 94.9456 244.804C99.9942 244.804 131.93 234.443 134.449 231.64C136.968 228.836 145.105 199.135 145.105 199.135L145.221 195.246L142.659 191.978C142.659 191.978 133.047 223.166 131.297 226.085C129.548 229.005 109.427 236.867 99.815 240.367C95.6202 241.895 91.7099 243.139 88.6217 244.066Z" fill="#1FC29D"/>
<path opacity="0.5" d="M88.6217 244.066C90.6982 244.532 92.8177 244.779 94.9456 244.804C99.9942 244.804 131.93 234.443 134.449 231.64C136.968 228.836 145.105 199.135 145.105 199.135L145.221 195.246L142.659 191.978C142.659 191.978 133.047 223.166 131.297 226.085C129.548 229.005 109.427 236.867 99.815 240.367C95.6202 241.895 91.7099 243.139 88.6217 244.066Z" fill="white"/>
</g>
<path d="M145.937 171.953C145.937 171.953 138.096 170.835 134.733 177.56C131.371 184.284 127.724 217.906 127.724 217.906C127.724 217.906 123.508 220.71 118.766 223.513C114.023 226.317 104.748 232.198 99.9941 233.885C95.2407 235.571 91.0247 236.962 91.0247 236.962C89.9314 235.082 88.9937 233.115 88.2211 231.081C87.9366 229.679 84.8589 229.121 83.4571 227.719C82.0554 226.317 80.0949 224.072 80.0949 226.317C80.0949 228.562 79.8104 229.953 82.0553 230.796C84.3003 231.64 85.9762 234.717 85.9762 234.717C85.9762 234.717 73.6551 234.58 74.4878 235.698C76.1564 237.915 78.253 239.775 80.6536 241.168C85.0643 243.489 89.9615 244.735 94.9455 244.804C99.9941 244.804 131.93 234.443 134.449 231.64C136.968 228.836 145.105 199.135 145.105 199.135" stroke="#263238" stroke-width="1.05398" stroke-linecap="round" stroke-linejoin="round"/>
<path d="M76.5535 237.732C75.5411 237.264 74.6258 236.609 73.8553 235.803C73.0754 234.749 72.4324 231.165 73.0754 229.753C73.7183 228.341 79.8946 225.632 79.8946 225.632C80.1859 226.456 80.2762 227.338 80.1581 228.204C79.8946 229.363 75.9422 231.039 75.9422 231.039L77.3545 236.182" fill="white"/>
<path d="M76.5535 237.732C75.5411 237.264 74.6258 236.609 73.8553 235.803C73.0754 234.749 72.4324 231.165 73.0754 229.753C73.7183 228.341 79.8946 225.632 79.8946 225.632C80.1859 226.456 80.2762 227.338 80.1581 228.204C79.8946 229.363 75.9422 231.039 75.9422 231.039L77.3545 236.182" stroke="#263238" stroke-width="1.05398" stroke-linecap="round" stroke-linejoin="round"/>
<path d="M80.1582 237.605C79.5111 237.259 78.9749 236.737 78.6114 236.099C78.2478 235.461 78.0715 234.734 78.1029 234.001C78.2294 232.451 77.9659 229.11 76.9435 228.467C75.9212 227.824 75.0148 233.874 75.0148 235.413C75.0148 236.952 77.5865 239.144 77.5865 239.144C78.3138 239.531 79.0177 239.96 79.6944 240.43" fill="white"/>
<path d="M80.1582 237.605C79.5111 237.259 78.9749 236.737 78.6114 236.099C78.2478 235.461 78.0715 234.734 78.1029 234.001C78.2294 232.451 77.9659 229.11 76.9435 228.467C75.9212 227.824 75.0148 233.874 75.0148 235.413C75.0148 236.952 77.5865 239.144 77.5865 239.144C78.3138 239.531 79.0177 239.96 79.6944 240.43" stroke="#263238" stroke-width="1.05398" stroke-linecap="round" stroke-linejoin="round"/>
<path d="M83.2463 240.43C82.5976 240.085 82.06 239.564 81.6962 238.925C81.3323 238.287 81.1572 237.559 81.1911 236.825C81.3176 235.286 81.0541 231.935 80.0317 231.292C79.0093 230.649 78.1029 236.699 78.1029 238.248C78.1029 239.797 80.0317 241.21 80.0317 241.21C79.5679 241.21 80.896 241.958 83.4993 242.749" fill="white"/>
<path d="M83.2463 240.43C82.5976 240.085 82.06 239.564 81.6962 238.925C81.3323 238.287 81.1572 237.559 81.1911 236.825C81.3176 235.286 81.0541 231.935 80.0317 231.292C79.0093 230.649 78.1029 236.699 78.1029 238.248C78.1029 239.797 80.0317 241.21 80.0317 241.21C79.5679 241.21 80.896 241.958 83.4993 242.749" stroke="#263238" stroke-width="1.05398" stroke-linecap="round" stroke-linejoin="round"/>
<path d="M86.6296 240.757C86.0105 240.576 85.4544 240.225 85.0241 239.745C84.5939 239.264 84.3066 238.673 84.1949 238.037C84.0263 236.688 83.1409 233.821 82.1818 233.505C81.2227 233.189 81.5178 238.501 81.8024 239.829C82.0869 241.157 84.7008 242.559 84.7008 242.559C85.3826 242.76 86.0514 243.003 86.7034 243.286" fill="white"/>
<path d="M86.6296 240.757C86.0105 240.576 85.4544 240.225 85.0241 239.745C84.5939 239.264 84.3066 238.673 84.1949 238.037C84.0263 236.688 83.1409 233.821 82.1818 233.505C81.2227 233.189 81.5178 238.501 81.8024 239.829C82.0869 241.157 84.7008 242.559 84.7008 242.559C85.3826 242.76 86.0514 243.003 86.7034 243.286" stroke="#263238" stroke-width="1.05398" stroke-linecap="round" stroke-linejoin="round"/>
<path d="M198.847 171.953C198.847 171.953 206.689 170.835 210.051 177.56C213.413 184.284 217.06 217.906 217.06 217.906C217.06 217.906 221.276 220.71 226.019 223.513C230.762 226.317 240.026 232.198 244.79 233.885C249.554 235.571 253.76 236.962 253.76 236.962C254.855 235.068 255.793 233.087 256.563 231.039C256.848 229.637 259.925 229.078 261.327 227.677C262.729 226.275 264.689 224.03 264.689 226.275C264.689 228.52 264.974 229.911 262.729 230.754C260.484 231.598 258.808 234.675 258.808 234.675C258.808 234.675 271.129 234.538 270.296 235.655C268.628 237.873 266.531 239.733 264.131 241.126C259.72 243.447 254.823 244.693 249.839 244.762C244.79 244.762 212.854 234.401 210.335 231.598C207.816 228.794 199.68 199.093 199.68 199.093" fill="white"/>
<mask id="mask4_619_4638" style="mask-type:luminance" maskUnits="userSpaceOnUse" x="198" y="171" width="73" height="74">
<path d="M198.847 171.953C198.847 171.953 206.689 170.835 210.051 177.56C213.413 184.284 217.06 217.906 217.06 217.906C217.06 217.906 221.276 220.71 226.019 223.513C230.762 226.317 240.026 232.198 244.79 233.885C249.554 235.571 253.76 236.962 253.76 236.962C254.855 235.068 255.793 233.087 256.563 231.039C256.848 229.637 259.925 229.078 261.327 227.677C262.729 226.275 264.689 224.03 264.689 226.275C264.689 228.52 264.974 229.911 262.729 230.754C260.484 231.598 258.808 234.675 258.808 234.675C258.808 234.675 271.129 234.538 270.296 235.655C268.628 237.873 266.531 239.733 264.131 241.126C259.72 243.447 254.823 244.693 249.839 244.762C244.79 244.762 212.854 234.401 210.335 231.598C207.816 228.794 199.68 199.093 199.68 199.093" fill="white"/>
</mask>
<g mask="url(#mask4_619_4638)">
<path d="M210.335 231.64C212.854 234.443 244.79 244.804 249.839 244.804C251.122 244.796 252.404 244.701 253.675 244.519C250.356 243.847 247.139 242.745 244.105 241.241C236.822 237.458 215.827 229.289 213.54 225.79C211.252 222.291 206.257 199.272 203.337 197.522C200.417 195.773 202.462 208.304 202.462 208.304V208.789C205.023 217.727 208.765 229.89 210.335 231.64Z" fill="#1FC29D"/>
<path opacity="0.5" d="M210.335 231.64C212.854 234.443 244.79 244.804 249.839 244.804C251.122 244.796 252.404 244.701 253.675 244.519C250.356 243.847 247.139 242.745 244.105 241.241C236.822 237.458 215.827 229.289 213.54 225.79C211.252 222.291 206.257 199.272 203.337 197.522C200.417 195.773 202.462 208.304 202.462 208.304V208.789C205.023 217.727 208.765 229.89 210.335 231.64Z" fill="white"/>
</g>
<path d="M198.847 171.953C198.847 171.953 206.689 170.835 210.051 177.56C213.413 184.284 217.06 217.906 217.06 217.906C217.06 217.906 221.276 220.71 226.019 223.513C230.762 226.317 240.026 232.198 244.79 233.885C249.554 235.571 253.76 236.962 253.76 236.962C254.855 235.068 255.793 233.087 256.563 231.039C256.848 229.637 259.925 229.078 261.327 227.677C262.729 226.275 264.689 224.03 264.689 226.275C264.689 228.52 264.974 229.911 262.729 230.754C260.484 231.598 258.808 234.675 258.808 234.675C258.808 234.675 271.129 234.538 270.296 235.655C268.628 237.873 266.531 239.733 264.131 241.126C259.72 243.447 254.823 244.693 249.839 244.762C244.79 244.762 212.854 234.401 210.335 231.598C207.816 228.794 199.68 199.093 199.68 199.093" stroke="#263238" stroke-width="1.05398" stroke-linecap="round" stroke-linejoin="round"/>
<path d="M268.231 237.732C269.243 237.264 270.158 236.609 270.929 235.803C271.709 234.749 272.352 231.165 271.709 229.753C271.066 228.341 264.89 225.632 264.89 225.632C264.598 226.456 264.508 227.338 264.626 228.204C264.89 229.363 268.842 231.039 268.842 231.039L267.43 236.182" fill="white"/>
<path d="M268.231 237.732C269.243 237.264 270.158 236.609 270.929 235.803C271.709 234.749 272.352 231.165 271.709 229.753C271.066 228.341 264.89 225.632 264.89 225.632C264.598 226.456 264.508 227.338 264.626 228.204C264.89 229.363 268.842 231.039 268.842 231.039L267.43 236.182" stroke="#263238" stroke-width="1.05398" stroke-linecap="round" stroke-linejoin="round"/>
<path d="M264.626 237.605C265.273 237.259 265.809 236.737 266.173 236.099C266.536 235.461 266.713 234.734 266.681 234.001C266.555 232.451 266.818 229.11 267.841 228.467C268.863 227.824 269.769 233.874 269.769 235.413C269.769 236.952 267.198 239.144 267.198 239.144C266.488 239.533 265.802 239.962 265.142 240.43" fill="white"/>
<path d="M264.626 237.605C265.273 237.259 265.809 236.737 266.173 236.099C266.536 235.461 266.713 234.734 266.681 234.001C266.555 232.451 266.818 229.11 267.841 228.467C268.863 227.824 269.769 233.874 269.769 235.413C269.769 236.952 267.198 239.144 267.198 239.144C266.488 239.533 265.802 239.962 265.142 240.43" stroke="#263238" stroke-width="1.05398" stroke-linecap="round" stroke-linejoin="round"/>
<path d="M261.538 240.43C262.187 240.085 262.724 239.564 263.088 238.925C263.452 238.287 263.627 237.559 263.593 236.825C263.467 235.286 263.73 231.935 264.753 231.292C265.775 230.649 266.681 236.699 266.681 238.248C266.681 239.797 264.753 241.21 264.753 241.21C265.216 241.21 263.888 241.958 261.285 242.749" fill="white"/>
<path d="M261.538 240.43C262.187 240.085 262.724 239.564 263.088 238.925C263.452 238.287 263.627 237.559 263.593 236.825C263.467 235.286 263.73 231.935 264.753 231.292C265.775 230.649 266.681 236.699 266.681 238.248C266.681 239.797 264.753 241.21 264.753 241.21C265.216 241.21 263.888 241.958 261.285 242.749" stroke="#263238" stroke-width="1.05398" stroke-linecap="round" stroke-linejoin="round"/>
<path d="M258.155 240.757C258.774 240.576 259.33 240.225 259.76 239.745C260.19 239.264 260.478 238.673 260.589 238.037C260.758 236.688 261.643 233.821 262.602 233.505C263.561 233.189 263.266 238.501 262.982 239.829C262.697 241.157 260.083 242.559 260.083 242.559C259.402 242.76 258.733 243.003 258.081 243.286" fill="white"/>
<path d="M258.155 240.757C258.774 240.576 259.33 240.225 259.76 239.745C260.19 239.264 260.478 238.673 260.589 238.037C260.758 236.688 261.643 233.821 262.602 233.505C263.561 233.189 263.266 238.501 262.982 239.829C262.697 241.157 260.083 242.559 260.083 242.559C259.402 242.76 258.733 243.003 258.081 243.286" stroke="#263238" stroke-width="1.05398" stroke-linecap="round" stroke-linejoin="round"/>
<path d="M204.307 278.205C206.607 274.987 207.978 271.199 208.27 267.254L205.108 258.305C179.243 262.838 150.111 259.359 140.087 257.863L137.663 263.712C137.663 263.712 158.248 288.639 170.895 292.223C183.543 295.806 200.533 283.306 204.307 278.205Z" fill="white"/>
<mask id="mask5_619_4638" style="mask-type:luminance" maskUnits="userSpaceOnUse" x="137" y="257" width="72" height="36">
<path d="M204.307 278.205C206.607 274.987 207.978 271.199 208.27 267.254L205.108 258.305C179.243 262.838 150.111 259.359 140.087 257.863L137.663 263.712C137.663 263.712 158.248 288.639 170.895 292.223C183.543 295.806 200.533 283.306 204.307 278.205Z" fill="white"/>
</mask>
<g mask="url(#mask5_619_4638)">
<path opacity="0.3" d="M204.307 278.205C206.607 274.987 207.978 271.199 208.27 267.254L205.108 258.305C179.243 262.838 150.111 259.359 140.087 257.863L137.663 263.712C137.663 263.712 158.248 288.639 170.895 292.223C183.543 295.806 200.533 283.306 204.307 278.205Z" fill="#3F3F3F"/>
</g>
<path d="M204.307 278.205C206.607 274.987 207.978 271.199 208.27 267.254L205.108 258.305C179.243 262.838 150.111 259.359 140.087 257.863L137.663 263.712C137.663 263.712 158.248 288.639 170.895 292.223C183.543 295.806 200.533 283.306 204.307 278.205Z" stroke="#263238" stroke-width="1.05398" stroke-linecap="round" stroke-linejoin="round"/>
<path d="M187.654 277.277C187.654 277.277 209.735 258.506 228 251.286C228 251.286 246.487 242.369 250.302 249.378C254.118 256.387 236.074 277.414 230.34 280.998C224.606 284.581 211.01 291.411 201.672 293.319C192.333 295.226 181.646 295.732 175.965 292.676" fill="white"/>
<mask id="mask6_619_4638" style="mask-type:luminance" maskUnits="userSpaceOnUse" x="175" y="246" width="76" height="49">
<path d="M187.654 277.277C187.654 277.277 209.735 258.506 228 251.286C228 251.286 246.487 242.369 250.302 249.378C254.118 256.387 236.074 277.414 230.34 280.998C224.606 284.581 211.01 291.411 201.672 293.319C192.333 295.226 181.646 295.732 175.965 292.676" fill="white"/>
</mask>
<g mask="url(#mask6_619_4638)">
<path opacity="0.3" d="M187.011 277.193C187.011 277.193 209.735 258.506 228 251.286C228 251.286 246.487 242.369 250.302 249.378C254.118 256.387 236.074 277.414 230.34 280.998C224.606 284.581 211.01 291.411 201.672 293.319C192.333 295.226 181.646 295.732 175.965 292.676" fill="#3F3F3F"/>
<path opacity="0.3" d="M180.908 292.57C180.908 292.57 197.719 290.968 212.401 284.823C227.083 278.679 231.879 277.625 231.879 277.625C231.879 277.625 220.938 286.963 212.127 290.694C203.833 294.103 194.945 295.829 185.978 295.774C181.235 295.785 176.535 294.876 172.139 293.097L180.908 292.57Z" fill="#3F3F3F"/>
</g>
<path d="M187.654 277.277C187.654 277.277 209.735 258.506 228 251.286C228 251.286 246.487 242.369 250.302 249.378C254.118 256.387 236.074 277.414 230.34 280.998C224.606 284.581 211.01 291.411 201.672 293.319C192.333 295.226 181.646 295.732 175.965 292.676" stroke="#263238" stroke-width="1.05398" stroke-linecap="round" stroke-linejoin="round"/>
<path d="M170.284 289.651C170.284 289.651 190.394 282.537 202.41 270.279C214.425 258.021 237.707 243.803 245.56 245.268C253.412 246.733 255.362 249.926 252.421 258.969C249.48 268.013 236.727 280.049 224.722 283.98C212.717 287.912 190.152 292.065 181.077 293.783C172.002 295.5 167.586 297.703 156.561 297.703C145.537 297.703 133.753 296.976 130.57 290.599C127.387 284.223 132.531 284.465 143.808 286.679C152.567 288.192 161.408 289.185 170.284 289.651Z" fill="white"/>
<mask id="mask7_619_4638" style="mask-type:luminance" maskUnits="userSpaceOnUse" x="129" y="245" width="125" height="53">
<path d="M170.284 289.651C170.284 289.651 190.394 282.537 202.41 270.279C214.425 258.021 237.707 243.803 245.56 245.268C253.412 246.733 255.362 249.926 252.421 258.969C249.48 268.013 236.727 280.049 224.722 283.98C212.717 287.912 190.152 292.065 181.077 293.783C172.002 295.5 167.586 297.703 156.561 297.703C145.537 297.703 133.753 296.976 130.57 290.599C127.387 284.223 132.531 284.465 143.808 286.679C152.567 288.192 161.408 289.185 170.284 289.651Z" fill="white"/>
</mask>
<g mask="url(#mask7_619_4638)">
<path opacity="0.3" d="M170.284 289.651C170.284 289.651 190.394 282.537 202.41 270.279C214.425 258.021 237.707 243.803 245.56 245.268C253.412 246.733 255.362 249.926 252.421 258.969C249.48 268.013 236.727 280.049 224.722 283.98C212.717 287.912 190.152 292.065 181.077 293.783C172.002 295.5 167.586 297.703 156.561 297.703C145.537 297.703 133.753 296.976 130.57 290.599C127.387 284.223 132.531 284.465 143.808 286.679C152.567 288.192 161.408 289.185 170.284 289.651Z" fill="#3F3F3F"/>
<path opacity="0.3" d="M250.292 246.396C250.292 246.396 251.894 252.266 246.076 260.54C240.258 268.814 215.384 278.458 201.809 283.496C188.233 288.534 167.913 292.296 167.913 292.296L179.127 294.172C179.127 294.172 215.236 288.26 224.807 284.012C234.377 279.765 243.978 272.555 249.312 265.61C254.645 258.664 257.512 250.401 250.292 246.396Z" fill="#3F3F3F"/>
</g>
<path d="M170.284 289.651C170.284 289.651 190.394 282.537 202.41 270.279C214.425 258.021 237.707 243.803 245.56 245.268C253.412 246.733 255.362 249.926 252.421 258.969C249.48 268.013 236.727 280.049 224.722 283.98C212.717 287.912 190.152 292.065 181.077 293.783C172.002 295.5 167.586 297.703 156.561 297.703C145.537 297.703 133.753 296.976 130.57 290.599C127.387 284.223 132.531 284.465 143.808 286.679C152.567 288.192 161.408 289.185 170.284 289.651Z" stroke="#263238" stroke-width="1.05398" stroke-linecap="round" stroke-linejoin="round"/>
<path d="M170.21 289.64C161.376 289.192 152.577 288.213 143.861 286.71C132.583 284.497 127.429 284.254 130.623 290.631C133.816 297.008 145.579 297.735 156.614 297.735C161.823 297.774 167.015 297.147 172.065 295.869C170.856 294.017 170.212 291.852 170.21 289.64Z" fill="white"/>
<mask id="mask8_619_4638" style="mask-type:luminance" maskUnits="userSpaceOnUse" x="129" y="285" width="44" height="13">
<path d="M170.21 289.64C161.376 289.192 152.577 288.213 143.861 286.71C132.583 284.497 127.429 284.254 130.623 290.631C133.816 297.008 145.579 297.735 156.614 297.735C161.823 297.774 167.015 297.147 172.065 295.869C170.856 294.017 170.212 291.852 170.21 289.64Z" fill="white"/>
</mask>
<g mask="url(#mask8_619_4638)">
<path d="M170.21 289.64C161.376 289.192 152.577 288.213 143.861 286.71C132.583 284.497 127.429 284.254 130.623 290.631C133.816 297.008 145.579 297.735 156.614 297.735C161.823 297.774 167.015 297.147 172.065 295.869C170.856 294.017 170.212 291.852 170.21 289.64Z" fill="#1FC29D"/>
<path opacity="0.5" d="M170.21 289.64C161.376 289.192 152.577 288.213 143.861 286.71C132.583 284.497 127.429 284.254 130.623 290.631C133.816 297.008 145.579 297.735 156.614 297.735C161.823 297.774 167.015 297.147 172.065 295.869C170.856 294.017 170.212 291.852 170.21 289.64Z" fill="white"/>
</g>
<path d="M170.21 289.64C161.376 289.192 152.577 288.213 143.861 286.71C132.583 284.497 127.429 284.254 130.623 290.631C133.816 297.008 145.579 297.735 156.614 297.735C161.823 297.774 167.015 297.147 172.065 295.869C170.856 294.017 170.212 291.852 170.21 289.64Z" stroke="#263238" stroke-width="1.05398" stroke-linecap="round" stroke-linejoin="round"/>
<path d="M164.002 276.487C149.531 264.471 113.896 240.651 105.064 240.651C96.2313 240.651 92.8058 250.706 92.8058 250.706C92.8058 250.706 91.8256 254.385 99.1824 261.488C106.539 268.592 129.094 287.733 146.749 292.391C164.403 297.05 168.819 294.836 168.819 294.836" fill="white"/>
<mask id="mask9_619_4638" style="mask-type:luminance" maskUnits="userSpaceOnUse" x="92" y="240" width="77" height="56">
<path d="M164.002 276.487C149.531 264.471 113.896 240.651 105.064 240.651C96.2313 240.651 92.8058 250.706 92.8058 250.706C92.8058 250.706 91.8256 254.385 99.1824 261.488C106.539 268.592 129.094 287.733 146.749 292.391C164.403 297.05 168.819 294.836 168.819 294.836" fill="white"/>
</mask>
<g mask="url(#mask9_619_4638)">
<path opacity="0.3" d="M164.645 276.413C150.185 264.397 113.896 240.577 105.064 240.577C96.2313 240.577 92.8058 250.632 92.8058 250.632C92.8058 250.632 91.8256 254.311 99.1824 261.415C106.539 268.518 129.094 287.659 146.749 292.317C164.403 296.976 168.819 294.762 168.819 294.762" fill="#3F3F3F"/>
</g>
<path d="M164.002 276.487C149.531 264.471 113.896 240.651 105.064 240.651C96.2313 240.651 92.8058 250.706 92.8058 250.706C92.8058 250.706 91.8256 254.385 99.1824 261.488C106.539 268.592 129.094 287.733 146.749 292.391C164.403 297.05 168.819 294.836 168.819 294.836" stroke="#263238" stroke-width="1.05398" stroke-linecap="round" stroke-linejoin="round"/>
<path d="M112.789 250.759C112.789 250.759 131.287 259.033 137.663 263.67C144.04 268.308 158.522 281.799 166.363 285.973C174.205 290.146 181.319 293.076 186.716 293.076C192.112 293.076 218.093 289.651 222.266 291.854C226.44 294.057 220.064 299.232 214.425 301.171C208.786 303.11 187.949 298.715 180.571 298.23C173.193 297.746 148.456 294.31 131.297 288.418C114.138 282.526 94.7557 260.224 92.5529 256.061C90.3501 251.897 94.3974 247.365 94.3974 247.365" fill="white"/>
<mask id="mask10_619_4638" style="mask-type:luminance" maskUnits="userSpaceOnUse" x="91" y="247" width="133" height="55">
<path d="M112.789 250.759C112.789 250.759 131.287 259.033 137.663 263.67C144.04 268.308 158.522 281.799 166.363 285.973C174.205 290.146 181.319 293.076 186.716 293.076C192.112 293.076 218.093 289.651 222.266 291.854C226.44 294.057 220.064 299.232 214.425 301.171C208.786 303.11 187.949 298.715 180.571 298.23C173.193 297.746 148.456 294.31 131.297 288.418C114.138 282.526 94.7557 260.224 92.5529 256.061C90.3501 251.897 94.3974 247.365 94.3974 247.365" fill="white"/>
</mask>
<g mask="url(#mask10_619_4638)">
<path opacity="0.3" d="M113.401 250.664C113.401 250.664 131.318 259.033 137.642 263.67C143.966 268.308 158.501 281.799 166.342 285.972C174.184 290.146 181.298 293.076 186.695 293.076C192.091 293.076 218.072 289.651 222.245 291.854C226.419 294.057 220.043 299.232 214.404 301.171C208.765 303.11 187.949 298.715 180.571 298.23C173.193 297.745 148.456 294.309 131.297 288.418C114.139 282.526 94.7558 260.224 92.553 256.06C90.3501 251.897 95.7149 246.743 95.7149 246.743" fill="#3F3F3F"/>
<path opacity="0.3" d="M93.3645 247.998C93.3645 247.998 94.703 254.669 105.106 262.943C115.509 271.217 157.689 288.028 168.345 290.694C179.001 293.361 187.021 293.371 187.822 293.856C188.623 294.341 189.688 298.399 185.156 298.662C180.624 298.926 161.136 297.608 143.787 293.593C126.438 289.577 109.09 277.846 102.682 271.712C96.2735 265.578 90.9825 258.674 90.4344 254.406C90.2871 253.172 90.4826 251.921 90.9995 250.79C91.5164 249.66 92.3346 248.694 93.3645 247.998Z" fill="#3F3F3F"/>
</g>
<path d="M112.789 250.759C112.789 250.759 131.287 259.033 137.663 263.67C144.04 268.308 158.522 281.799 166.363 285.973C174.205 290.146 181.319 293.076 186.716 293.076C192.112 293.076 218.093 289.651 222.266 291.854C226.44 294.057 220.064 299.232 214.425 301.171C208.786 303.11 187.949 298.715 180.571 298.23C173.193 297.746 148.456 294.31 131.297 288.418C114.138 282.526 94.7557 260.224 92.5529 256.061C90.3501 251.897 94.3974 247.365 94.3974 247.365" stroke="#263238" stroke-width="1.05398" stroke-linecap="round" stroke-linejoin="round"/>
<path d="M222.267 291.854C218.051 289.651 192.112 293.076 186.716 293.076C185.862 293.07 185.01 293.003 184.165 292.876C184.167 294.833 183.627 296.751 182.605 298.42C191.195 299.39 209.229 302.973 214.425 301.171C220.064 299.211 226.43 294.057 222.267 291.854Z" fill="white"/>
<mask id="mask11_619_4638" style="mask-type:luminance" maskUnits="userSpaceOnUse" x="182" y="291" width="42" height="11">
<path d="M222.267 291.854C218.051 289.651 192.112 293.076 186.716 293.076C185.862 293.07 185.01 293.003 184.165 292.876C184.167 294.833 183.627 296.751 182.605 298.42C191.195 299.39 209.229 302.973 214.425 301.171C220.064 299.211 226.43 294.057 222.267 291.854Z" fill="white"/>
</mask>
<g mask="url(#mask11_619_4638)">
<path d="M222.267 291.854C218.051 289.651 192.112 293.076 186.716 293.076C185.862 293.07 185.01 293.003 184.165 292.876C184.167 294.833 183.627 296.751 182.605 298.42C191.195 299.39 209.229 302.973 214.425 301.171C220.064 299.211 226.43 294.057 222.267 291.854Z" fill="#1FC29D"/>
<path opacity="0.5" d="M222.267 291.854C218.051 289.651 192.112 293.076 186.716 293.076C185.862 293.07 185.01 293.003 184.165 292.876C184.167 294.833 183.627 296.751 182.605 298.42C191.195 299.39 209.229 302.973 214.425 301.171C220.064 299.211 226.43 294.057 222.267 291.854Z" fill="white"/>
</g>
<path d="M222.267 291.854C218.051 289.651 192.112 293.076 186.716 293.076C185.862 293.07 185.01 293.003 184.165 292.876C184.167 294.833 183.627 296.751 182.605 298.42C191.195 299.39 209.229 302.973 214.425 301.171C220.064 299.211 226.43 294.057 222.267 291.854Z" stroke="#263238" stroke-width="1.05398" stroke-linecap="round" stroke-linejoin="round"/>
<path d="M163.528 151.347C158.806 156.382 153.828 161.17 148.614 165.692C138.802 174.377 139.371 195.33 142.385 201.18C145.4 207.029 152.577 207.419 153.526 212.32C154.474 217.221 156.688 226.106 161.262 230.069C165.836 234.032 175.238 236.678 177.072 221.005C178.906 205.332 172.856 192.168 168.503 184.611C164.15 177.054 165.931 152.096 165.931 152.096L163.528 151.347Z" fill="#263238" stroke="#263238" stroke-width="1.05398" stroke-linecap="round" stroke-linejoin="round"/>
<path d="M151.355 172.364C146.306 179.678 142.522 188.785 148.309 195.941C154.274 203.319 167.607 213.859 167.28 221.901C166.954 229.943 160.619 227.171 158.511 220.489" stroke="white" stroke-width="1.05398" stroke-linecap="round" stroke-linejoin="round"/>
<path d="M164.097 152.454C163.412 157.039 160.619 161.223 157.584 164.607C156.635 165.66 155.613 166.83 154.559 168.116" stroke="white" stroke-width="1.05398" stroke-linecap="round" stroke-linejoin="round"/>
<path d="M173.267 211.719C173.816 213.068 174.171 214.487 174.321 215.935" stroke="white" stroke-width="1.05398" stroke-linecap="round" stroke-linejoin="round"/>
<path d="M163.707 160.865C163.707 160.865 154.58 172.09 156.329 185.106C157.647 194.866 166.5 200.663 171.264 208.009" stroke="white" stroke-width="1.05398" stroke-linecap="round" stroke-linejoin="round"/>
</svg>
