<svg width="393" height="353" viewBox="0 0 393 353" fill="none" xmlns="http://www.w3.org/2000/svg">
<rect width="393" height="353" fill="white"/>
<path opacity="0.7" d="M67.9576 117.965C67.9576 117.965 48.2743 168.797 75.9354 219.982C103.596 271.167 160.571 298.207 206.171 321.329C251.772 344.45 299.123 333.189 321.623 295.32C344.124 257.45 313.264 230.417 313.222 176.415C313.18 122.413 321.306 108.117 292.042 62.4949C262.778 16.8732 191.042 6.77031 136.793 40.6089C82.5435 74.4475 67.9576 117.965 67.9576 117.965Z" fill="white"/>
<path d="M155.551 318.575C174.755 330.471 210.104 314.94 223.433 300.678C266.683 254.379 343.256 176.105 326.629 96.3337C319.569 62.4457 285.441 52.6464 271.759 50.7472C238.909 46.1724 205.466 51.0226 173.053 58.0332C139.165 65.3614 103.604 75.9938 77.7432 100.266C68.0074 109.43 59.3095 120.232 54.7911 133.003C50.2021 145.98 49.3479 160.213 51.6847 173.732C55.4689 195.548 66.8425 215.386 80.6801 232.698C94.5177 250.009 110.862 265.046 126.38 280.833C136.489 291.133 139.377 308.522 155.551 318.575Z" fill="#1FC29D"/>
<path opacity="0.7" d="M155.551 318.575C174.755 330.471 210.104 314.94 223.433 300.678C266.683 254.379 343.256 176.105 326.629 96.3337C319.569 62.4457 285.441 52.6464 271.759 50.7472C238.909 46.1724 205.466 51.0226 173.053 58.0332C139.165 65.3614 103.604 75.9938 77.7432 100.266C68.0074 109.43 59.3095 120.232 54.7911 133.003C50.2021 145.98 49.3479 160.213 51.6847 173.732C55.4689 195.548 66.8425 215.386 80.6801 232.698C94.5177 250.009 110.862 265.046 126.38 280.833C136.489 291.133 139.377 308.522 155.551 318.575Z" fill="white"/>
<path d="M106.401 117.005C106.401 117.005 113.856 110.157 119.017 110.976C119.878 111.11 115.452 119.54 115.452 119.54L106.401 117.005Z" fill="#1FC29D"/>
<mask id="mask0_640_4164" style="mask-type:luminance" maskUnits="userSpaceOnUse" x="106" y="110" width="14" height="10">
<path d="M106.401 117.005C106.401 117.005 113.856 110.157 119.017 110.976C119.878 111.11 115.452 119.54 115.452 119.54L106.401 117.005Z" fill="white"/>
</mask>
<g mask="url(#mask0_640_4164)">
<path opacity="0.5" d="M106.401 117.005C106.401 117.005 113.856 110.157 119.017 110.976C119.878 111.11 115.452 119.54 115.452 119.54L106.401 117.005Z" fill="#3F3F3F"/>
</g>
<path d="M106.401 117.005C106.401 117.005 113.856 110.157 119.017 110.976C119.878 111.11 115.452 119.54 115.452 119.54L106.401 117.005Z" stroke="#3F3F3F" stroke-width="0.706" stroke-linecap="round" stroke-linejoin="round"/>
<path d="M174.691 146.742C174.691 146.742 174.974 169.178 175.807 172.92C176.568 175.698 177.696 178.362 179.16 180.841C179.16 180.841 176.732 230 177.523 232.274C178.313 234.547 181.674 250.107 181.674 250.107L185.585 309.686H184.173C184.173 309.686 178.85 253.454 178.85 251.787C178.85 250.121 174.663 235.465 174.663 235.465C174.663 235.465 174.106 186.708 174.663 183.927C175.221 181.145 171.387 173.796 171.387 173.796C171.387 173.796 171.437 151.246 170.258 149.008C170.286 149.001 172.736 146.996 174.691 146.742Z" fill="#757575" stroke="#3F3F3F" stroke-width="0.706" stroke-linecap="round" stroke-linejoin="round"/>
<path d="M119.017 172.92C119.017 172.92 111.434 185.664 113.856 196.924C113.856 196.924 110.968 235.599 109.846 238.112C108.723 240.626 101.19 251.738 98.8745 267.92C97.4744 277.712 95.3506 287.387 92.5205 296.866H102.602C102.602 296.866 117.654 249.232 120.739 246.74C123.825 244.248 129.501 227.586 133.511 212.718C133.511 212.718 138.919 239.094 141.072 244.128C143.225 249.161 141.425 263.698 144.503 272.989C147.546 282.167 147.327 296.894 147.327 296.894C147.327 296.894 157.811 299.492 157.713 296.894C157.007 278.919 160.642 263.359 156.145 247.361C154.027 239.892 158.263 196.24 150.54 172.956L119.017 172.92Z" fill="#BFBFBF"/>
<mask id="mask1_640_4164" style="mask-type:luminance" maskUnits="userSpaceOnUse" x="92" y="172" width="67" height="127">
<path d="M119.017 172.92C119.017 172.92 111.434 185.664 113.856 196.924C113.856 196.924 110.968 235.599 109.846 238.112C108.723 240.626 101.19 251.738 98.8745 267.92C97.4744 277.712 95.3506 287.387 92.5205 296.866H102.602C102.602 296.866 117.654 249.232 120.739 246.74C123.825 244.248 129.501 227.586 133.511 212.718C133.511 212.718 138.919 239.094 141.072 244.128C143.225 249.161 141.425 263.698 144.503 272.989C147.546 282.167 147.327 296.894 147.327 296.894C147.327 296.894 157.811 299.492 157.713 296.894C157.007 278.919 160.642 263.359 156.145 247.361C154.027 239.892 158.263 196.24 150.54 172.956L119.017 172.92Z" fill="white"/>
</mask>
<g mask="url(#mask1_640_4164)">
<path opacity="0.3" d="M133.292 209.54C133.292 210.049 133.37 211.334 133.462 212.929C129.451 227.755 123.818 244.205 120.754 246.704C117.689 249.204 102.616 296.83 102.616 296.83H92.5488C95.3789 287.352 97.5027 277.677 98.9028 267.884C101.197 251.703 108.787 240.619 109.874 238.098C110.961 235.578 113.856 196.974 113.856 196.974C113.275 194.046 113.217 191.039 113.686 188.092C114.223 191.926 116.51 196.684 124.276 197.913C123.802 196.436 123.667 194.872 123.882 193.337C124.097 191.801 124.657 190.334 125.519 189.045C125.519 189.045 124.015 196.974 130.383 200.687C130.666 200.85 130.574 201.972 130.574 201.972C130.574 201.972 133.264 207.698 133.292 209.54Z" fill="#3F3F3F"/>
<path opacity="0.3" d="M151.542 176.147C148.965 177.707 143.381 179.528 131.492 179.048C129.535 180.656 127.895 182.615 126.656 184.823L125.519 183.92C125.519 183.92 120.076 187.019 114.16 185.501C115.17 181.095 116.806 176.856 119.017 172.913H150.61C150.928 173.951 151.246 175.031 151.542 176.147Z" fill="#3F3F3F"/>
</g>
<path d="M119.017 172.92C119.017 172.92 111.434 185.664 113.856 196.924C113.856 196.924 110.968 235.599 109.846 238.112C108.723 240.626 101.19 251.738 98.8745 267.92C97.4744 277.712 95.3506 287.387 92.5205 296.866H102.602C102.602 296.866 117.654 249.232 120.739 246.74C123.825 244.248 129.501 227.586 133.511 212.718C133.511 212.718 138.919 239.094 141.072 244.128C143.225 249.161 141.425 263.698 144.503 272.989C147.546 282.167 147.327 296.894 147.327 296.894C147.327 296.894 157.811 299.492 157.713 296.894C157.007 278.919 160.642 263.359 156.145 247.361C154.027 239.892 158.263 196.24 150.54 172.956L119.017 172.92Z" stroke="#3F3F3F" stroke-width="0.706" stroke-linecap="round" stroke-linejoin="round"/>
<path d="M127.489 182.889C127.489 182.889 122.265 192.865 127.948 198.795C127.948 198.795 135.128 205.538 142.873 203.921" stroke="#3F3F3F" stroke-width="0.706" stroke-linecap="round" stroke-linejoin="round"/>
<path d="M133.525 212.682C133.525 212.682 132.819 207.246 131.471 204.916C130.122 202.586 130.574 201.951 130.574 201.951C130.574 201.951 124.46 203.836 120.506 202.396" stroke="#3F3F3F" stroke-width="0.706" stroke-linecap="round" stroke-linejoin="round"/>
<path d="M113.856 196.974C115.24 198.278 116.883 199.277 118.678 199.906C120.474 200.535 122.381 200.78 124.277 200.624" stroke="#3F3F3F" stroke-width="0.706" stroke-linecap="round" stroke-linejoin="round"/>
<path d="M127.488 113.8C128.053 113.567 156.23 111.463 157.634 108.561C156.252 105.935 155.212 103.143 154.542 100.252C152.783 93.5798 149.952 87.2376 146.162 81.472L153.222 80.1801C157.458 92.0832 167.455 102.645 167.278 113.687C167.278 113.687 152.029 124.058 136.504 125.745C132.035 126.218 127.488 113.8 127.488 113.8Z" fill="white" stroke="#3F3F3F" stroke-width="0.706" stroke-linecap="round" stroke-linejoin="round"/>
<path d="M136.878 105.956C135.923 105.824 134.95 106.01 134.111 106.486C131.245 108.223 131.767 113.405 131.767 113.405L119.017 110.976C121.798 106.931 121.085 97.6467 121.085 97.6467C133.031 86.4496 135.911 96.7078 136.617 102.589C136.836 104.248 136.871 105.554 136.878 105.956Z" fill="white" stroke="#3F3F3F" stroke-width="0.706" stroke-linecap="round" stroke-linejoin="round"/>
<path d="M136.879 105.956C135.923 105.823 134.95 106.01 134.111 106.486C133.09 104.778 132.447 102.872 132.226 100.894L136.639 102.596C136.836 104.248 136.872 105.554 136.879 105.956Z" fill="#3F3F3F"/>
<path d="M114.442 78.5353C114.442 78.5353 113.355 72.1813 124.03 71.2071C134.704 70.2328 144.504 73.1768 144.504 80.9569C144.504 88.737 138.065 104.806 125.251 97.6468C112.437 90.4879 114.442 78.5353 114.442 78.5353Z" fill="#3F3F3F"/>
<path d="M120.64 98.529C119.539 97.117 116.63 92.0479 116.164 90.1135C113.284 78.2174 119.793 77.3561 124.636 74.9486C133.85 70.3808 142.23 79.6435 141.51 87.8896C140.79 96.1356 144.68 95.1614 144.503 96.298C144.355 97.2582 141.884 98.2325 141.884 98.2325C141.844 98.939 141.866 99.6476 141.947 100.35L141.34 100.908C141.023 102.476 140.302 106.429 139.787 106.556C138.756 106.867 132.974 104.848 132.021 102.709" fill="white"/>
<path d="M120.64 98.529C119.539 97.117 116.63 92.0479 116.164 90.1135C113.284 78.2174 119.793 77.3561 124.636 74.9486C133.85 70.3808 142.23 79.6435 141.51 87.8896C140.79 96.1356 144.68 95.1614 144.503 96.298C144.355 97.2582 141.884 98.2325 141.884 98.2325C141.844 98.939 141.866 99.6476 141.947 100.35L141.34 100.908C141.023 102.476 140.302 106.429 139.787 106.556C138.756 106.867 132.974 104.848 132.021 102.709" stroke="#3F3F3F" stroke-width="0.706" stroke-linecap="round" stroke-linejoin="round"/>
<path d="M140.62 91.3703C140.536 91.9704 140.197 92.4152 139.865 92.3728C139.533 92.3305 139.321 91.801 139.399 91.2009C139.477 90.6008 139.822 90.156 140.161 90.2054C140.5 90.2548 140.726 90.7702 140.62 91.3703Z" fill="#3F3F3F"/>
<path d="M141.072 86.6825C141.072 86.6825 139.533 86.4213 137.987 88.0945" stroke="#3F3F3F" stroke-width="0.706" stroke-linecap="round" stroke-linejoin="round"/>
<path d="M137.902 74.9912C133.666 71.7506 110.029 68.4183 113.955 87.0991C113.432 89.4147 115.021 93.3189 120.309 99.6517C120.309 99.6517 122.871 97.6467 125.618 99.3693C125.618 99.3693 127.277 94.2297 130.136 93.0648C130.754 92.7942 131.302 92.3861 131.739 91.8716C139.307 89.9795 140.267 82.7995 140.168 80.2862C140.62 79.6013 141.432 77.6598 137.902 74.9912Z" fill="#3F3F3F"/>
<path d="M119.017 75.5417C119.017 75.5417 112.86 68.6229 105.313 72.4847C97.766 76.3465 99.7851 87.1342 103.965 92.9587C108.144 98.7832 103.019 103.478 104.635 106.648C106.252 109.818 109.662 108.512 109.662 108.512C109.101 108.172 108.626 107.706 108.276 107.151C107.925 106.596 107.709 105.967 107.643 105.314C107.368 103.026 111.957 101.946 111.957 95.4721C111.957 88.9981 110.474 83.2018 115.868 85.8987C121.262 88.5956 119.017 75.5417 119.017 75.5417Z" fill="#3F3F3F"/>
<path d="M141.347 100.887C141.347 100.887 138.989 101.007 137.987 100.075" stroke="#3F3F3F" stroke-width="0.706" stroke-linecap="round" stroke-linejoin="round"/>
<g opacity="0.2">
<path d="M119.017 75.5419C119.017 75.5419 122.688 80.2297 118.275 84.1127" stroke="white" stroke-width="0.706" stroke-linecap="round" stroke-linejoin="round"/>
<path d="M137.902 74.9911C137.902 74.9911 143.55 81.1545 132.254 88.0591" stroke="white" stroke-width="0.706" stroke-linecap="round" stroke-linejoin="round"/>
<path d="M135.784 73.9109C135.784 73.9109 137.987 76.0289 132.96 80.1872C127.934 84.3456 124.178 85.4257 120.471 85.2351" stroke="white" stroke-width="0.706" stroke-linecap="round" stroke-linejoin="round"/>
<path d="M117.329 79.1706C117.329 79.1706 114.074 73.8756 108.913 77.5044C103.753 81.1333 104.868 86.1317 107.657 91.8715C110.445 97.6113 108.553 101.381 108.553 101.381" stroke="white" stroke-width="0.706" stroke-linecap="round" stroke-linejoin="round"/>
<path d="M107.544 73.0354C107.544 73.0354 101.19 73.219 101.678 81.5074C102.165 89.7958 105.123 89.7464 105.772 93.7424" stroke="white" stroke-width="0.706" stroke-linecap="round" stroke-linejoin="round"/>
<path d="M124.771 91.8716C124.771 91.8716 118.417 93.2836 116.03 88.0592" stroke="white" stroke-width="0.706" stroke-linecap="round" stroke-linejoin="round"/>
</g>
<path d="M130.898 92.6623C130.898 92.6623 129.853 88.8499 127.086 90.1348C124.318 91.4198 126.74 95.0768 128.11 96.8136C128.291 97.0955 128.55 97.3188 128.856 97.4565C129.162 97.5943 129.501 97.6406 129.833 97.5898C130.164 97.539 130.474 97.3934 130.724 97.1705C130.975 96.9475 131.155 96.6568 131.244 96.3335" fill="white"/>
<path d="M130.898 92.6623C130.898 92.6623 129.853 88.8499 127.086 90.1348C124.318 91.4198 126.74 95.0768 128.11 96.8136C128.291 97.0955 128.55 97.3188 128.856 97.4565C129.162 97.5943 129.501 97.6406 129.833 97.5898C130.164 97.539 130.474 97.3934 130.724 97.1705C130.975 96.9475 131.155 96.6568 131.244 96.3335" stroke="#3F3F3F" stroke-width="0.706" stroke-linecap="round" stroke-linejoin="round"/>
<path d="M118.134 108.999L117.838 111.153C106.944 121.34 114.138 145.281 120.979 160.573L116.609 174.382C116.609 174.382 135.248 180.588 152.234 175.73L150.61 159.514L148.725 146.848C148.725 146.848 150.278 142.534 150.582 134.14C150.885 125.746 135.078 104.283 118.134 108.999Z" fill="#3F3F3F"/>
<path d="M149.198 83.6397C149.198 83.6397 146.374 85.1505 145.167 84.741C145.167 84.741 139.088 85.087 138.919 82.5171C139.961 82.3364 140.957 81.9514 141.85 81.3844C142.743 80.8174 143.515 80.0794 144.122 79.213C145.139 77.801 153.907 77.801 153.392 80.7309C153.306 81.2029 153.113 81.6487 152.826 82.0333C152.54 82.4179 152.168 82.7309 151.74 82.9478" fill="white"/>
<path d="M149.198 83.6397C149.198 83.6397 146.374 85.1505 145.167 84.741C145.167 84.741 139.088 85.087 138.919 82.5171C139.961 82.3364 140.957 81.9514 141.85 81.3844C142.743 80.8174 143.515 80.0794 144.122 79.213C145.139 77.801 153.907 77.801 153.392 80.7309C153.306 81.2029 153.113 81.6487 152.826 82.0333C152.54 82.4179 152.168 82.7309 151.74 82.9478" stroke="#3F3F3F" stroke-width="0.706" stroke-linecap="round" stroke-linejoin="round"/>
<path d="M144.115 79.2132C145.365 79.0155 144.751 79.6509 145.64 79.5874C146.53 79.5239 146.607 78.952 147.257 79.7992C147.906 80.6464 148.627 79.7992 149.297 80.0816" fill="white"/>
<path d="M144.115 79.2132C145.365 79.0155 144.751 79.6509 145.64 79.5874C146.53 79.5239 146.607 78.952 147.257 79.7992C147.906 80.6464 148.627 79.7992 149.297 80.0816" stroke="#3F3F3F" stroke-width="0.706" stroke-linecap="round" stroke-linejoin="round"/>
<path d="M145.16 84.7197C145.245 84.0137 147.723 82.6794 148.372 81.804L145.16 84.7197Z" fill="white"/>
<path d="M145.16 84.7197C145.245 84.0137 147.723 82.6794 148.372 81.804" stroke="#3F3F3F" stroke-width="0.706" stroke-linecap="round" stroke-linejoin="round"/>
<path d="M143.056 84.7199C142.286 83.788 144.065 83.3644 145.767 81.6982L143.056 84.7199Z" fill="white"/>
<path d="M143.056 84.7199C142.286 83.788 144.065 83.3644 145.767 81.6982" stroke="#3F3F3F" stroke-width="0.706" stroke-linecap="round" stroke-linejoin="round"/>
<path d="M141.001 84.3599C140.041 83.4068 140.444 83.0679 141.947 82.369C142.776 82.0194 143.504 81.4685 144.065 80.7664" fill="white"/>
<path d="M141.001 84.3599C140.041 83.4068 140.444 83.0679 141.947 82.369C142.776 82.0194 143.504 81.4685 144.065 80.7664" stroke="#3F3F3F" stroke-width="0.706" stroke-linecap="round" stroke-linejoin="round"/>
<path d="M143.486 291.084C143.486 291.084 149.791 289.036 154.825 290.886L156.392 296.859L159.788 291.084C159.788 291.084 158.651 298.348 159.788 300.572C160.925 302.796 167.695 303.848 168.803 305.295C169.912 306.743 170.272 309.687 170.272 309.687H143.959L146.007 300.572L143.486 291.084Z" fill="#1FC29D" stroke="#3F3F3F" stroke-width="0.706" stroke-linecap="round" stroke-linejoin="round"/>
<path d="M91.0029 291.084C91.0029 291.084 95.9449 289.036 100.979 290.886L100.499 296.859L106.634 291.084C106.634 291.084 102.772 298.348 103.909 300.572C105.045 302.796 111.816 303.848 112.924 305.295C114.033 306.743 114.393 309.687 114.393 309.687H88.0659L90.7911 300.572L91.0029 291.084Z" fill="#1FC29D"/>
<mask id="mask2_640_4164" style="mask-type:luminance" maskUnits="userSpaceOnUse" x="88" y="290" width="27" height="20">
<path d="M91.0029 291.084C91.0029 291.084 95.9449 289.036 100.979 290.886L100.499 296.859L106.634 291.084C106.634 291.084 102.772 298.348 103.909 300.572C105.045 302.796 111.816 303.848 112.924 305.295C114.033 306.743 114.393 309.687 114.393 309.687H88.0659L90.7911 300.572L91.0029 291.084Z" fill="white"/>
</mask>
<g mask="url(#mask2_640_4164)">
<path opacity="0.3" d="M91.0029 291.084C91.0029 291.084 95.9449 289.036 100.979 290.886L100.499 296.859L106.634 291.084C106.634 291.084 102.772 298.348 103.909 300.572C105.045 302.796 111.816 303.848 112.924 305.295C114.033 306.743 114.393 309.687 114.393 309.687H88.0659L90.7911 300.572L91.0029 291.084Z" fill="#3F3F3F"/>
</g>
<path d="M91.0029 291.084C91.0029 291.084 95.9449 289.036 100.979 290.886L100.499 296.859L106.634 291.084C106.634 291.084 102.772 298.348 103.909 300.572C105.045 302.796 111.816 303.848 112.924 305.295C114.033 306.743 114.393 309.687 114.393 309.687H88.0659L90.7911 300.572L91.0029 291.084Z" stroke="#3F3F3F" stroke-width="0.706" stroke-linecap="round" stroke-linejoin="round"/>
<path d="M143.967 155.595C143.967 155.595 147.772 150.505 148.45 147.66L149.234 150.131C149.234 150.131 147.221 155.779 143.967 158.709V155.595Z" fill="#BFBFBF" stroke="#3F3F3F" stroke-width="0.706" stroke-linecap="round" stroke-linejoin="round"/>
<path d="M128.873 158.031C128.873 158.031 134.196 160.036 137.966 158.779C140.449 157.85 142.689 156.371 144.518 154.451L145.746 156.682C145.746 156.682 137.239 171.508 128.873 169.263" fill="#1FC29D"/>
<path d="M128.873 158.031C128.873 158.031 134.196 160.036 137.966 158.779C140.449 157.85 142.689 156.371 144.518 154.451L145.746 156.682C145.746 156.682 137.239 171.508 128.873 169.263" stroke="#3F3F3F" stroke-width="0.706" stroke-linecap="round" stroke-linejoin="round"/>
<path d="M129.43 177.552C126.663 184.823 99.8489 183.15 94.6315 179.062C93.4807 178.159 92.4147 176.415 91.4828 174.212C89.6296 169.504 88.3841 164.579 87.7763 159.556C87.6139 158.25 87.5009 157.014 87.4515 155.906C87.3315 153.421 87.508 151.55 88.0375 150.872C90.1555 148.182 92.5206 145.577 92.5206 145.577C92.5206 145.577 88.3975 123.55 92.5206 121.446C95.9229 119.415 99.648 117.982 103.534 117.21C109.493 116.158 119.518 113.193 124.008 119.328C124.238 119.651 124.434 119.996 124.594 120.359C128.823 129.332 132.078 170.59 129.43 177.552Z" fill="#1FC29D"/>
<mask id="mask3_640_4164" style="mask-type:luminance" maskUnits="userSpaceOnUse" x="87" y="115" width="44" height="68">
<path d="M129.43 177.552C126.663 184.823 99.8489 183.15 94.6315 179.062C93.4807 178.159 92.4147 176.415 91.4828 174.212C89.6296 169.504 88.3841 164.579 87.7763 159.556C87.6139 158.25 87.5009 157.014 87.4515 155.906C87.3315 153.421 87.508 151.55 88.0375 150.872C90.1555 148.182 92.5206 145.577 92.5206 145.577C92.5206 145.577 88.3975 123.55 92.5206 121.446C95.9229 119.415 99.648 117.982 103.534 117.21C109.493 116.158 119.518 113.193 124.008 119.328C124.238 119.651 124.434 119.996 124.594 120.359C128.823 129.332 132.078 170.59 129.43 177.552Z" fill="white"/>
</mask>
<g mask="url(#mask3_640_4164)">
<path opacity="0.3" d="M129.43 177.552C126.662 184.823 99.8485 183.15 94.6311 179.062C93.4804 178.159 92.4143 176.415 91.4824 174.212C90.0139 169.193 88.6584 163.396 87.8112 159.556C87.2817 157.134 86.9428 155.496 86.9146 155.32C87.0502 155.562 87.2474 155.764 87.4864 155.906C88.7501 156.809 92.732 158.497 105.136 159.316C105.136 159.316 96.1137 161.822 89.0396 158.723C89.0396 158.723 91.4612 173.323 94.0663 176.203C96.6715 179.084 108.497 181.512 111.293 179.931C114.088 178.349 112.189 163.509 112.768 161.991C113.347 160.473 115.592 159.21 115.712 158.723C115.832 158.235 116.319 151.112 116.319 151.112C116.319 151.112 98.9095 147.54 94.0663 147.674C89.2232 147.808 96.1137 144.363 100.957 144.92C105.8 145.478 115.479 147.54 115.712 147.674C115.945 147.808 113.7 126.381 111.194 123.175C108.688 119.97 114.357 120.111 115.712 125.209C117.011 130.151 120.266 148.083 120.499 149.319C120.442 148.337 119.793 137.811 119.129 133.885C118.459 129.77 118.522 124.347 119.235 123.79C119.948 123.232 123.549 121.806 123.888 121.029C124.068 120.754 124.31 120.524 124.594 120.359C128.823 129.332 132.077 170.59 129.43 177.552Z" fill="#3F3F3F"/>
</g>
<path d="M129.43 177.552C126.663 184.823 99.8489 183.15 94.6315 179.062C93.4807 178.159 92.4147 176.415 91.4828 174.212C89.6296 169.504 88.3841 164.579 87.7763 159.556C87.6139 158.25 87.5009 157.014 87.4515 155.906C87.3315 153.421 87.508 151.55 88.0375 150.872C90.1555 148.182 92.5206 145.577 92.5206 145.577C92.5206 145.577 88.3975 123.55 92.5206 121.446C95.9229 119.415 99.648 117.982 103.534 117.21C109.493 116.158 119.518 113.193 124.008 119.328C124.238 119.651 124.434 119.996 124.594 120.359C128.823 129.332 132.078 170.59 129.43 177.552Z" stroke="#3F3F3F" stroke-width="0.706" stroke-linecap="round" stroke-linejoin="round"/>
<path d="M115.451 116.885C113.575 115.339 111.317 114.327 108.914 113.955C105.01 113.397 101.656 118.699 101.656 118.699H103.471C103.471 118.699 105.984 113.814 111.011 118.142" fill="#1FC29D"/>
<path d="M115.451 116.885C113.575 115.339 111.317 114.327 108.914 113.955C105.01 113.397 101.656 118.699 101.656 118.699H103.471C103.471 118.699 105.984 113.814 111.011 118.142" stroke="#3F3F3F" stroke-width="0.706" stroke-linecap="round" stroke-linejoin="round"/>
<path d="M96.905 120.655C96.905 120.655 107.241 119.815 110.594 122.47C113.948 125.124 115.713 146.742 115.713 146.742C115.713 146.742 100.237 142.442 95.7896 144.673" stroke="#3F3F3F" stroke-width="0.706" stroke-linecap="round" stroke-linejoin="round"/>
<path d="M93.6926 139.788C93.6926 139.788 90.8686 129.904 92.5489 127.362C94.2291 124.82 104.869 125.244 106.824 127.362C108.78 129.48 108.942 141.327 108.942 141.327C108.942 141.327 99.863 139.293 95.8176 139.915" stroke="#3F3F3F" stroke-width="0.706" stroke-linecap="round" stroke-linejoin="round"/>
<path d="M88.6655 156.682C89.2233 157.388 108.829 160.876 112.225 158.638" stroke="#3F3F3F" stroke-width="0.706" stroke-linecap="round" stroke-linejoin="round"/>
<path d="M89.5059 152.919C90.9179 151.804 105.038 154.593 107.94 154.727C110.841 154.861 116.016 151.656 116.32 151.084C116.32 151.084 120.182 172.172 119.017 176.224C117.852 180.277 114.639 180.969 114.639 180.969" stroke="#3F3F3F" stroke-width="0.706" stroke-linecap="round" stroke-linejoin="round"/>
<path d="M93.1348 174.841C93.1348 174.841 93.9749 179.585 111.293 180.983" stroke="#3F3F3F" stroke-width="0.706" stroke-linecap="round" stroke-linejoin="round"/>
<path d="M121.205 157.247C121.911 156.965 126.917 156.435 128.745 155.292C128.898 157.652 128.891 160.02 128.724 162.38C128.724 162.38 123.281 164.498 122.299 164.06C121.318 163.623 120.944 160.566 120.944 160.566" stroke="#3F3F3F" stroke-width="0.706" stroke-linecap="round" stroke-linejoin="round"/>
<path d="M127.948 162.704C127.948 162.704 128.406 171.692 127.948 172.92C127.489 174.149 122.603 175.956 122.045 175.815C121.488 175.674 120.506 167.018 120.506 167.018" stroke="#3F3F3F" stroke-width="0.706" stroke-linecap="round" stroke-linejoin="round"/>
<path d="M109.846 119.54C109.846 119.54 114.922 119.54 116.736 122.893C118.551 126.247 120.591 145.598 120.972 146.742" stroke="#3F3F3F" stroke-width="0.706" stroke-linecap="round" stroke-linejoin="round"/>
<path d="M119.017 117.196C119.017 117.196 130.313 110.997 136.222 112.91C142.131 114.824 144.517 120.796 144.517 120.796C144.517 120.796 142.498 115.219 136.878 115.579C131.259 115.939 123.161 121.524 123.161 121.524" fill="#1FC29D"/>
<path d="M119.017 117.196C119.017 117.196 130.313 110.997 136.222 112.91C142.131 114.824 144.517 120.796 144.517 120.796C144.517 120.796 142.498 115.219 136.878 115.579C131.259 115.939 123.161 121.524 123.161 121.524" stroke="#3F3F3F" stroke-width="0.706" stroke-linecap="round" stroke-linejoin="round"/>
<path d="M136.879 115.551C136.879 115.551 143.233 115.021 145.181 118.001C147.13 120.98 145.181 128.725 145.181 128.725C145.181 128.725 146.855 130.702 143.967 132.128C141.079 133.554 133.321 134.331 131.478 131.521C129.635 128.711 130.624 116.723 136.879 115.551Z" fill="#3F3F3F"/>
<path d="M144.729 129.283C144.729 129.283 138.008 153.576 140.211 155.948C143.048 156.106 145.859 156.58 148.591 157.36C161.207 160.572 168.359 158.243 168.359 158.243L167.017 165.267C154.38 164.936 142.159 167.23 131.936 163.065C131.936 163.065 127.778 145.104 131.823 130.017C131.823 130.017 132.995 128.506 136.469 128.054C139.283 127.619 142.163 128.047 144.729 129.283Z" fill="white" stroke="#3F3F3F" stroke-width="0.706" stroke-linecap="round" stroke-linejoin="round"/>
<path d="M166.403 165.288C168.804 166.863 172.277 164.392 175.489 164.695C178.702 164.999 177.148 155.8 177.148 155.8C177.148 155.8 173.131 153.879 171.952 153.449C170.773 153.018 169.015 155.68 165.302 159.097" fill="white"/>
<path d="M166.403 165.288C168.804 166.863 172.277 164.392 175.489 164.695C178.702 164.999 177.148 155.8 177.148 155.8C177.148 155.8 173.131 153.879 171.952 153.449C170.773 153.018 169.015 155.68 165.302 159.097" stroke="#3F3F3F" stroke-width="0.706" stroke-linecap="round" stroke-linejoin="round"/>
<path d="M119.461 111.061C123.011 110.749 126.588 111.019 130.051 111.858" stroke="white" stroke-width="0.706" stroke-linecap="round" stroke-linejoin="round"/>
<path d="M131.244 131.076C131.244 131.076 130.157 129.487 131.244 128.725C131.244 128.725 128.082 126.289 128.533 123.783" stroke="white" stroke-width="0.706" stroke-linecap="round" stroke-linejoin="round"/>
<path d="M146.049 125.625L145.746 128.725C145.746 128.725 147.306 129.72 144.517 131.076" stroke="white" stroke-width="0.706" stroke-linecap="round" stroke-linejoin="round"/>
<path d="M147.37 147.66C147.37 147.66 144.024 150.194 142.11 149.778" stroke="white" stroke-width="0.706" stroke-linecap="round" stroke-linejoin="round"/>
<path d="M133.539 172.094C133.539 172.094 141.545 176.747 150.017 174.841" stroke="white" stroke-width="0.706" stroke-linecap="round" stroke-linejoin="round"/>
<path d="M172.92 156.682C174.429 156.884 175.921 157.2 177.382 157.628" stroke="#3F3F3F" stroke-width="0.706" stroke-linecap="round" stroke-linejoin="round"/>
<path d="M172.92 159.612C172.92 159.612 176.542 159.612 177.523 159.718" stroke="#3F3F3F" stroke-width="0.706" stroke-linecap="round" stroke-linejoin="round"/>
<path d="M172.92 161.977C172.92 161.977 177.474 161.843 177.382 162.302" stroke="#3F3F3F" stroke-width="0.706" stroke-linecap="round" stroke-linejoin="round"/>
<path d="M90.3457 306.531C90.3457 306.531 97.4481 305.825 101.225 307.364" stroke="#3F3F3F" stroke-width="0.706" stroke-linecap="round" stroke-linejoin="round"/>
<path d="M92.0117 299.901C92.0117 299.901 95.923 298.998 98.0198 299.901" stroke="#3F3F3F" stroke-width="0.706" stroke-linecap="round" stroke-linejoin="round"/>
<path d="M103.908 300.572C103.908 300.572 104.868 302.337 104.614 303.594" stroke="#3F3F3F" stroke-width="0.706" stroke-linecap="round" stroke-linejoin="round"/>
<path d="M112.924 305.295C111.22 305.465 109.503 305.465 107.798 305.295" stroke="#3F3F3F" stroke-width="0.706" stroke-linecap="round" stroke-linejoin="round"/>
<path d="M159.788 300.572C159.788 300.572 162.386 303.594 162.386 304.434" stroke="#3F3F3F" stroke-width="0.706" stroke-linecap="round" stroke-linejoin="round"/>
<path d="M168.818 305.295C167.577 305.525 166.31 305.573 165.055 305.437" stroke="#3F3F3F" stroke-width="0.706" stroke-linecap="round" stroke-linejoin="round"/>
<path d="M145.781 307.364C145.781 307.364 153.738 306.107 158.489 307.364" stroke="#3F3F3F" stroke-width="0.706" stroke-linecap="round" stroke-linejoin="round"/>
<path d="M147.737 300.572C147.737 300.572 151.648 300.692 153.328 299.704" stroke="#3F3F3F" stroke-width="0.706" stroke-linecap="round" stroke-linejoin="round"/>
<path d="M130.383 208.496C130.383 208.496 126.084 234.378 120.499 240.52C120.499 240.52 113.242 260.591 110.354 265.936C107.467 271.28 103.901 288.415 103.901 288.415" stroke="#3F3F3F" stroke-width="0.706" stroke-linecap="round" stroke-linejoin="round"/>
<path d="M109.846 238.134C109.846 238.134 112.5 234.265 115.494 238.134" stroke="#3F3F3F" stroke-width="0.706" stroke-linecap="round" stroke-linejoin="round"/>
<path d="M143.663 242.158C143.663 242.158 144.948 235.338 150.532 240.922" stroke="#3F3F3F" stroke-width="0.706" stroke-linecap="round" stroke-linejoin="round"/>
<path d="M150.532 178.618C150.532 178.618 153.836 192.823 153.279 200.659C153.279 200.659 155.142 229.979 154.585 238.134" stroke="#3F3F3F" stroke-width="0.706" stroke-linecap="round" stroke-linejoin="round"/>
<path d="M157.67 108.561C157.67 108.561 161.136 110.305 163.184 108.752" stroke="#3F3F3F" stroke-width="0.706" stroke-linecap="round" stroke-linejoin="round"/>
<path d="M332.956 264.383L331.784 264.341L332.08 260.924C332.144 260.591 332.097 260.246 331.946 259.942C331.699 259.561 331.191 259.483 330.746 259.384C329.448 259.088 328.298 258.337 327.506 257.266C326.941 256.497 326.538 255.551 325.719 255.064C324.576 254.358 323.135 254.866 321.858 255.233C320.58 255.6 318.942 255.706 318.179 254.619C317.735 253.984 317.706 253.066 317.092 252.586C316.478 252.106 315.348 252.416 314.536 252.819C311.409 254.358 307.914 256.349 307.314 259.801C307.102 260.98 303.445 265.901 302.139 266.557C299.859 267.694 295.545 265.52 293.229 264.75C288.26 264.63 283.306 264.158 278.403 263.338C276.991 263.338 275.579 264.75 274.167 266.162C273.461 266.868 273.461 267.574 272.755 268.28C270.637 270.398 267.107 271.81 266.401 275.34C266.401 280.282 260.753 283.106 256.517 285.224C250.163 288.048 243.809 288.754 237.455 291.578C233.925 292.99 229.689 292.99 225.453 292.99C220.511 297.226 216.981 302.168 213.451 307.816C212.745 308.522 212.039 309.934 210.627 309.934C165.443 309.934 119.553 309.934 74.1504 309.687V325.798H333.252L332.956 264.383Z" fill="white"/>
<path d="M74.1431 309.687C119.546 309.934 165.436 309.934 210.62 309.934C212.032 309.934 212.738 308.522 213.444 307.816C216.974 302.168 220.504 297.226 225.446 292.99C229.682 292.99 233.918 292.99 237.448 291.578C243.802 288.754 250.156 288.048 256.51 285.224C260.746 283.106 266.394 280.282 266.394 275.34C267.1 271.81 270.63 270.398 272.748 268.28C273.454 267.574 273.454 266.868 274.16 266.162C275.572 264.75 276.984 263.338 278.396 263.338C283.298 264.158 288.253 264.63 293.222 264.75C295.538 265.519 299.851 267.694 302.132 266.557C303.438 265.901 307.074 260.98 307.307 259.801C307.907 256.37 311.401 254.358 314.529 252.819C315.341 252.416 316.372 252.035 317.085 252.586C317.798 253.136 317.727 253.998 318.172 254.619C318.934 255.706 320.565 255.593 321.85 255.233C323.135 254.873 324.568 254.386 325.712 255.064C326.531 255.551 326.933 256.476 327.498 257.266C328.291 258.337 329.44 259.088 330.739 259.384C331.184 259.483 331.692 259.561 331.939 259.942" stroke="#3F3F3F" stroke-width="0.706" stroke-linecap="round" stroke-linejoin="round"/>
<path d="M294.846 278.376C297.86 278.602 302.23 276.576 302.28 276.752C302.329 276.929 307.589 277.564 307.589 277.564C307.589 277.564 314.557 279.548 315.708 278.376C316.859 277.204 320.41 278.009 323.241 277.748C326.072 277.486 328.96 279.781 328.96 279.781C328.96 279.781 333.958 284.066 334.608 284.264C335.257 284.462 340.298 285.937 342.254 287.293" stroke="#3F3F3F" stroke-width="0.706" stroke-linecap="round" stroke-linejoin="round"/>
<path d="M210.62 309.934H222.622C222.622 309.934 230.388 305.931 234.369 306.369C238.351 306.807 241.747 309.687 241.747 309.687H248.609L257.039 310.746H262.602" stroke="#3F3F3F" stroke-width="0.706" stroke-linecap="round" stroke-linejoin="round"/>
<path d="M290.878 292.454C289.205 290.611 282.208 290.223 281.234 288.465C280.26 286.707 274.125 290.731 273.284 290.11C272.444 289.488 268.025 290.604 267.305 292.701C266.585 294.798 266.938 295.179 264.106 296.231" stroke="#3F3F3F" stroke-width="0.706" stroke-linecap="round" stroke-linejoin="round"/>
<path d="M335.716 267.652C335.182 267.183 334.499 266.918 333.789 266.904C333.078 266.89 332.386 267.127 331.833 267.574C331.674 267.727 331.504 267.868 331.325 267.998C330.814 268.22 330.255 268.305 329.701 268.245C328.447 268.275 327.237 268.708 326.249 269.48C325.956 269.765 325.611 269.99 325.232 270.144C325 270.197 324.764 270.228 324.526 270.236C323.903 270.318 323.311 270.561 322.811 270.942" stroke="#3F3F3F" stroke-width="0.706" stroke-linecap="round" stroke-linejoin="round"/>
<path d="M298.531 310.217C301.602 311.572 305.394 310.379 307.709 307.929C309.545 305.973 311.035 303.065 313.717 302.952C314.423 302.952 315.129 303.107 315.835 303.114C317.424 303.114 318.857 302.26 320.333 301.702C321.808 301.144 323.651 300.841 324.844 301.886C325.635 302.592 325.966 303.714 326.828 304.321C327.689 304.929 328.797 304.837 329.814 305.027C330.831 305.218 331.932 306.044 331.72 307.061" stroke="#3F3F3F" stroke-width="0.706" stroke-linecap="round" stroke-linejoin="round"/>
</svg>
