<svg width="24" height="24" viewBox="0 0 24 24" fill="none" xmlns="http://www.w3.org/2000/svg">
<path d="M21 13C21 14.1819 20.7672 15.3522 20.3149 16.4442C19.8626 17.5361 19.1997 18.5282 18.364 19.364C17.5282 20.1997 16.5361 20.8626 15.4442 21.3149C14.3522 21.7672 13.1819 22 12 22C10.8181 22 9.64778 21.7672 8.55585 21.3149C7.46392 20.8626 6.47177 20.1997 5.63604 19.364C4.80031 18.5282 4.13738 17.5361 3.68508 16.4442C3.23279 15.3522 3 14.1819 3 13C3 10.6131 3.94821 8.32387 5.63604 6.63604C7.32387 4.94821 9.61305 4 12 4C14.3869 4 16.6761 4.94821 18.364 6.63604C20.0518 8.32387 21 10.6131 21 13Z" stroke="#3F3F3F" stroke-width="1.5"/>
<path d="M12 13V9" stroke="#3F3F3F" stroke-width="1.5" stroke-linecap="round" stroke-linejoin="round"/>
<path d="M10 2H14" stroke="#3F3F3F" stroke-width="1.5" stroke-linecap="round"/>
</svg>
