<svg width="20" height="20" viewBox="0 0 20 20" fill="none" xmlns="http://www.w3.org/2000/svg">
<path fill-rule="evenodd" clip-rule="evenodd" d="M10 18.3333C10.9849 18.3333 11.9602 18.1393 12.8701 17.7624C13.7801 17.3855 14.6069 16.8331 15.3033 16.1366C15.9997 15.4402 16.5522 14.6134 16.9291 13.7034C17.306 12.7935 17.5 11.8182 17.5 10.8333C17.5 9.84841 17.306 8.87314 16.9291 7.9632C16.5522 7.05326 15.9997 6.22646 15.3033 5.53002C14.6069 4.83358 13.7801 4.28114 12.8701 3.90423C11.9602 3.52732 10.9849 3.33332 10 3.33332C8.01088 3.33332 6.10322 4.1235 4.6967 5.53002C3.29018 6.93654 2.5 8.8442 2.5 10.8333C2.5 12.8224 3.29018 14.7301 4.6967 16.1366C6.10322 17.5431 8.01088 18.3333 10 18.3333ZM10 6.87499C10.1658 6.87499 10.3247 6.94084 10.4419 7.05805C10.5592 7.17526 10.625 7.33423 10.625 7.49999V10.8333C10.625 10.9991 10.5592 11.1581 10.4419 11.2753C10.3247 11.3925 10.1658 11.4583 10 11.4583C9.83424 11.4583 9.67527 11.3925 9.55806 11.2753C9.44085 11.1581 9.375 10.9991 9.375 10.8333V7.49999C9.375 7.33423 9.44085 7.17526 9.55806 7.05805C9.67527 6.94084 9.83424 6.87499 10 6.87499ZM7.70833 1.66666C7.70833 1.5009 7.77418 1.34192 7.89139 1.22471C8.0086 1.1075 8.16757 1.04166 8.33333 1.04166H11.6667C11.8324 1.04166 11.9914 1.1075 12.1086 1.22471C12.2258 1.34192 12.2917 1.5009 12.2917 1.66666C12.2917 1.83242 12.2258 1.99139 12.1086 2.1086C11.9914 2.22581 11.8324 2.29166 11.6667 2.29166H8.33333C8.16757 2.29166 8.0086 2.22581 7.89139 2.1086C7.77418 1.99139 7.70833 1.83242 7.70833 1.66666Z" fill="white"/>
</svg>
